<svg width="20" height="20" viewBox="0 0 20 20" fill="none" xmlns="http://www.w3.org/2000/svg">
<path d="M10.0001 3.12535C8.51674 3.12535 7.0667 3.56521 5.83333 4.38933C4.59996 5.21344 3.63866 6.38478 3.07101 7.75522C2.50335 9.12567 2.35482 10.6337 2.64421 12.0885C2.9336 13.5434 3.64791 14.8798 4.6968 15.9286C5.7457 16.9775 7.08207 17.6918 8.53693 17.9812C9.99178 18.2706 11.4998 18.1221 12.8702 17.5544C14.2407 16.9868 15.412 16.0255 16.2361 14.7921C17.0602 13.5588 17.5001 12.1087 17.5001 10.6253C17.4978 8.63692 16.7069 6.73059 15.3009 5.32456C13.8949 3.91853 11.9885 3.12762 10.0001 3.12535ZM10.0001 16.8753C8.76397 16.8753 7.5556 16.5088 6.52779 15.822C5.49998 15.1353 4.6989 14.1592 4.22586 13.0171C3.75281 11.8751 3.62904 10.6184 3.8702 9.40603C4.11135 8.19365 4.70661 7.08001 5.58069 6.20593C6.45476 5.33185 7.56841 4.7366 8.78079 4.49544C9.99317 4.25428 11.2498 4.37805 12.3919 4.8511C13.5339 5.32415 14.51 6.12523 15.1968 7.15303C15.8835 8.18084 16.2501 9.38921 16.2501 10.6253C16.2482 12.2824 15.5892 13.871 14.4175 15.0427C13.2458 16.2144 11.6571 16.8735 10.0001 16.8753ZM4.81729 2.94253L2.31729 5.44253C2.20002 5.55981 2.04096 5.62569 1.8751 5.62569C1.70925 5.62569 1.55019 5.55981 1.43292 5.44253C1.31564 5.32526 1.24976 5.1662 1.24976 5.00035C1.24976 4.83449 1.31564 4.67544 1.43292 4.55816L3.93292 2.05816C4.05019 1.94088 4.20925 1.875 4.3751 1.875C4.54096 1.875 4.70002 1.94088 4.81729 2.05816C4.93457 2.17544 5.00045 2.33449 5.00045 2.50035C5.00045 2.6662 4.93457 2.82526 4.81729 2.94253ZM18.5673 5.44253C18.5092 5.50065 18.4403 5.54674 18.3644 5.5782C18.2886 5.60965 18.2072 5.62584 18.1251 5.62584C18.043 5.62584 17.9616 5.60965 17.8858 5.5782C17.8099 5.54674 17.741 5.50065 17.6829 5.44253L15.1829 2.94253C15.0656 2.82526 14.9998 2.6662 14.9998 2.50035C14.9998 2.33449 15.0656 2.17544 15.1829 2.05816C15.3002 1.94088 15.4593 1.875 15.6251 1.875C15.791 1.875 15.95 1.94088 16.0673 2.05816L18.5673 4.55816C18.6254 4.61621 18.6715 4.68514 18.703 4.76101C18.7344 4.83688 18.7506 4.91821 18.7506 5.00035C18.7506 5.08248 18.7344 5.16381 18.703 5.23968C18.6715 5.31556 18.6254 5.38449 18.5673 5.44253ZM14.3751 10.0003C14.5409 10.0003 14.6998 10.0662 14.817 10.1834C14.9343 10.3006 15.0001 10.4596 15.0001 10.6253C15.0001 10.7911 14.9343 10.9501 14.817 11.0673C14.6998 11.1845 14.5409 11.2503 14.3751 11.2503H10.0001C9.83434 11.2503 9.67537 11.1845 9.55816 11.0673C9.44095 10.9501 9.3751 10.7911 9.3751 10.6253V6.25035C9.3751 6.08459 9.44095 5.92562 9.55816 5.80841C9.67537 5.6912 9.83434 5.62535 10.0001 5.62535C10.1659 5.62535 10.3248 5.6912 10.442 5.80841C10.5593 5.92562 10.6251 6.08459 10.6251 6.25035V10.0003H14.3751Z" fill="white"/>
</svg>
