<svg width="15" height="15" viewBox="0 0 15 15" fill="none" xmlns="http://www.w3.org/2000/svg">
<path d="M7.86141 1.41243C7.8204 1.41028 7.77954 1.41895 7.74293 1.43756C7.70632 1.45618 7.67524 1.48408 7.65281 1.51848C7.0493 2.43079 7.03172 3.26927 7.03172 3.28157C7.032 3.35133 7.04784 3.42014 7.07809 3.483C7.10834 3.54586 7.15224 3.60117 7.20658 3.6449C7.26093 3.68864 7.32435 3.71969 7.39222 3.7358C7.46009 3.75191 7.53071 3.75267 7.59891 3.73802C7.70536 3.71252 7.79999 3.6516 7.86727 3.56526C7.93456 3.47892 7.97051 3.37228 7.96922 3.26282C7.97146 3.1987 7.98684 3.13573 8.0144 3.0778C8.04197 3.01987 8.08113 2.96821 8.12947 2.92602C8.1778 2.88384 8.23428 2.85203 8.29541 2.83255C8.35654 2.81308 8.42102 2.80637 8.48485 2.81282C8.60249 2.82648 8.71084 2.88341 8.78881 2.97255C8.86679 3.06168 8.90882 3.17664 8.90672 3.29505C8.90462 3.66801 8.75445 4.02486 8.48925 4.2871C8.22404 4.54934 7.86552 4.69549 7.49256 4.69339C7.1196 4.69129 6.76275 4.54112 6.50051 4.27591C6.23827 4.01071 6.09212 3.65219 6.09422 3.27923C6.09422 3.24231 6.09949 2.64759 6.41297 1.87298C6.42885 1.83334 6.43359 1.79012 6.4267 1.74798C6.4198 1.70584 6.40152 1.66639 6.37384 1.63388C6.34616 1.60137 6.31012 1.57704 6.26962 1.56352C6.22911 1.55 6.18569 1.5478 6.14403 1.55716C4.76289 1.87441 3.5352 2.66239 2.67157 3.78592C1.80794 4.90946 1.3622 6.2985 1.41082 7.71477C1.52391 10.9409 4.1741 13.5355 7.40203 13.5882C8.99438 13.6126 10.533 13.0127 11.6885 11.9168C12.8441 10.821 13.5247 9.31632 13.5848 7.72492C13.6448 6.13352 13.0795 4.58185 12.0098 3.40205C10.9401 2.22226 9.45106 1.50809 7.86141 1.41243ZM4.68797 7.49505C4.68797 7.35598 4.72921 7.22004 4.80647 7.10441C4.88373 6.98878 4.99354 6.89866 5.12202 6.84544C5.2505 6.79223 5.39188 6.7783 5.52827 6.80543C5.66466 6.83256 5.78995 6.89953 5.88828 6.99786C5.98661 7.0962 6.05358 7.22148 6.08071 7.35787C6.10784 7.49427 6.09392 7.63564 6.0407 7.76412C5.98748 7.8926 5.89736 8.00241 5.78173 8.07967C5.6661 8.15693 5.53016 8.19817 5.3911 8.19817C5.20462 8.19817 5.02577 8.12409 4.89391 7.99223C4.76205 7.86037 4.68797 7.68153 4.68797 7.49505ZM9.39129 10.7042C8.82402 11.0579 8.16894 11.2453 7.50047 11.2453C6.832 11.2453 6.17692 11.0579 5.60965 10.7042C5.50444 10.6379 5.42991 10.5324 5.40244 10.4111C5.37496 10.2898 5.39681 10.1626 5.46317 10.0574C5.52952 9.95215 5.63495 9.87761 5.75627 9.85014C5.87758 9.82267 6.00484 9.84451 6.11004 9.91087C6.52753 10.17 7.00911 10.3073 7.50047 10.3073C7.99183 10.3073 8.47341 10.17 8.8909 9.91087C8.94299 9.87801 9.00105 9.85574 9.06175 9.84532C9.12245 9.8349 9.18461 9.83653 9.24468 9.85014C9.30474 9.86374 9.36154 9.88904 9.41183 9.92459C9.46212 9.96015 9.50492 10.0053 9.53778 10.0574C9.57063 10.1094 9.59291 10.1675 9.60333 10.2282C9.61375 10.2889 9.61211 10.3511 9.59851 10.4111C9.5849 10.4712 9.5596 10.528 9.52405 10.5783C9.4885 10.6286 9.44338 10.6714 9.39129 10.7042ZM9.60985 8.19817C9.47078 8.19817 9.33484 8.15693 9.21921 8.07967C9.10358 8.00241 9.01346 7.8926 8.96024 7.76412C8.90703 7.63564 8.8931 7.49427 8.92023 7.35787C8.94736 7.22148 9.01433 7.0962 9.11266 6.99786C9.211 6.89953 9.33628 6.83256 9.47267 6.80543C9.60907 6.7783 9.75044 6.79223 9.87892 6.84544C10.0074 6.89866 10.1172 6.98878 10.1945 7.10441C10.2717 7.22004 10.313 7.35598 10.313 7.49505C10.313 7.68153 10.2389 7.86037 10.107 7.99223C9.97517 8.12409 9.79633 8.19817 9.60985 8.19817Z" fill="white"/>
</svg>
