<svg width="15" height="15" viewBox="0 0 15 15" fill="none" xmlns="http://www.w3.org/2000/svg">
<path d="M11.8108 3.19102C10.9586 2.33881 9.8728 1.75845 8.69073 1.52333C7.50866 1.28821 6.28342 1.4089 5.16994 1.87013C4.05646 2.33135 3.10476 3.1124 2.43517 4.11451C1.76559 5.11662 1.4082 6.29478 1.4082 7.5C1.4082 8.70523 1.76559 9.88338 2.43517 10.8855C3.10476 11.8876 4.05646 12.6687 5.16994 13.1299C6.28342 13.5911 7.50866 13.7118 8.69073 13.4767C9.8728 13.2416 10.9586 12.6612 11.8108 11.809C12.3809 11.2455 12.8335 10.5745 13.1424 9.83484C13.4513 9.09518 13.6104 8.30157 13.6104 7.5C13.6104 6.69843 13.4513 5.90483 13.1424 5.16517C12.8335 4.42551 12.3809 3.7545 11.8108 3.19102ZM3.85263 3.85371C4.69636 3.00883 5.80817 2.48442 6.99677 2.37071C6.88221 3.55925 6.3555 4.67029 5.5079 5.51133C4.66572 6.35744 3.55446 6.88281 2.36611 6.99668C2.4808 5.80797 3.0065 4.69648 3.85263 3.85371ZM2.36318 7.93828C3.80252 7.82335 5.15334 7.19761 6.17177 6.17403C7.196 5.15593 7.82221 3.805 7.9372 2.36543C9.149 2.46646 10.2858 2.99357 11.1459 3.8532C12.0059 4.71283 12.5336 5.84938 12.6352 7.06114C11.1964 7.17896 9.84614 7.80377 8.825 8.82427C7.80386 9.84476 7.17819 11.1946 7.05946 12.6334C5.84766 12.5324 4.71085 12.0053 3.85079 11.1456C2.99072 10.286 2.46305 9.14945 2.36142 7.9377L2.36318 7.93828ZM11.1476 11.1463C10.3036 11.9909 9.19193 12.5153 8.00341 12.6293C8.12046 11.4417 8.64583 10.3314 9.48993 9.48786C10.334 8.64428 11.4446 8.11962 12.6323 8.00332C12.5181 9.1918 11.993 10.3033 11.1476 11.1463Z" fill="currentColor"/>
</svg>
