<svg width="60" height="60" viewBox="0 0 60 60" fill="none" xmlns="http://www.w3.org/2000/svg">
<g clip-path="url(#clip0_1444_7208)">
<path d="M36.6947 10.764H33.6947V8.1945C33.6947 6.1575 32.0372 4.5 30.0002 4.5C27.9632 4.5 26.3057 6.1575 26.3057 8.1945V10.764H23.3057V8.1945C23.3057 4.503 26.3087 1.5 30.0002 1.5C33.6917 1.5 36.6947 4.503 36.6947 8.1945V10.764Z" fill="#185DEE"/>
<path d="M30.0003 7.82715C42.3903 7.82715 52.4493 17.8861 52.4493 30.2761V44.0716C52.4493 50.5591 47.1813 55.8271 40.6938 55.8271H19.3053C12.8178 55.8271 7.5498 50.5591 7.5498 44.0716V30.2761C7.5498 17.8861 17.6103 7.82715 30.0003 7.82715Z" fill="#2F81F9"/>
<path d="M40.6942 32.1904H19.3072C14.4377 32.1904 10.4902 36.1379 10.4902 41.0074V47.0104C10.4902 51.8799 14.4377 55.8274 19.3072 55.8274H40.6942C45.5637 55.8274 49.5112 51.8799 49.5112 47.0104V41.0074C49.5112 36.1379 45.5637 32.1904 40.6942 32.1904Z" fill="#4D9DFF"/>
</g>
<defs>
<clipPath id="clip0_1444_7208">
<rect width="60" height="60" fill="white"/>
</clipPath>
</defs>
</svg>
