<svg width="50" height="50" viewBox="0 0 50 50" fill="none" xmlns="http://www.w3.org/2000/svg">
<g clip-path="url(#clip0_2087_4792)">
<path d="M41.3638 5.99805H8.63625C6.6275 5.99805 5 7.62555 5 9.6343V41.1493C5 43.158 6.6275 44.7855 8.63625 44.7855H35.3025L45 35.088V9.6343C45 7.62555 43.3725 5.99805 41.3638 5.99805Z" fill="#E5E9EE"/>
<path d="M8.63625 5.99805H41.3638C43.3713 5.99805 45 7.62805 45 9.6343V15.4918H5V9.6343C5 7.6268 6.63 5.99805 8.63625 5.99805Z" fill="#FDAEB3"/>
<path d="M12.8788 9.02875C12.0425 9.02875 11.3638 8.35125 11.3638 7.51375V4.48375C11.3638 3.64625 12.0413 2.96875 12.8788 2.96875C13.7163 2.96875 14.3938 3.64625 14.3938 4.48375V7.51375C14.3938 8.35125 13.7163 9.02875 12.8788 9.02875Z" fill="#4B596A"/>
<path d="M37.1214 9.02875C36.2852 9.02875 35.6064 8.35125 35.6064 7.51375V4.48375C35.6064 3.64625 36.2839 2.96875 37.1214 2.96875C37.9589 2.96875 38.6364 3.64625 38.6364 4.48375V7.51375C38.6364 8.35125 37.9589 9.02875 37.1214 9.02875Z" fill="#4B596A"/>
<path fill-rule="evenodd" clip-rule="evenodd" d="M37.7275 35.0898H45L35.3025 44.7873V37.5148C35.3025 36.1761 36.3875 35.0911 37.7262 35.0911L37.7275 35.0898Z" fill="#C0C7D1"/>
</g>
<defs>
<clipPath id="clip0_2087_4792">
<rect width="50" height="50" fill="white"/>
</clipPath>
</defs>
</svg>
