<svg width="30" height="30" viewBox="0 0 30 30" fill="none" xmlns="http://www.w3.org/2000/svg">
<path d="M24.5625 6.8125H21.3141L19.7168 4.41719C19.6312 4.28893 19.5153 4.18375 19.3794 4.11098C19.2435 4.03821 19.0917 4.00009 18.9375 4H11.4375C11.2833 4.00009 11.1315 4.03821 10.9956 4.11098C10.8597 4.18375 10.7438 4.28893 10.6582 4.41719L9.05977 6.8125H5.8125C5.06658 6.8125 4.35121 7.10882 3.82376 7.63626C3.29632 8.16371 3 8.87908 3 9.625V22.75C3 23.4959 3.29632 24.2113 3.82376 24.7387C4.35121 25.2662 5.06658 25.5625 5.8125 25.5625H24.5625C25.3084 25.5625 26.0238 25.2662 26.5512 24.7387C27.0787 24.2113 27.375 23.4959 27.375 22.75V9.625C27.375 8.87908 27.0787 8.16371 26.5512 7.63626C26.0238 7.10882 25.3084 6.8125 24.5625 6.8125ZM19.4062 15.7188C19.4062 16.5531 19.1588 17.3688 18.6953 18.0626C18.2317 18.7563 17.5728 19.2971 16.8019 19.6164C16.0311 19.9357 15.1828 20.0192 14.3645 19.8564C13.5461 19.6937 12.7944 19.2919 12.2044 18.7019C11.6144 18.1119 11.2126 17.3601 11.0498 16.5418C10.887 15.7234 10.9706 14.8752 11.2899 14.1043C11.6092 13.3334 12.1499 12.6746 12.8437 12.211C13.5375 11.7474 14.3531 11.5 15.1875 11.5C16.3064 11.5 17.3794 11.9445 18.1706 12.7356C18.9618 13.5268 19.4062 14.5999 19.4062 15.7188Z" fill="#BDBDBD"/>
</svg>
