<svg width="70" height="70" viewBox="0 0 70 70" fill="none" xmlns="http://www.w3.org/2000/svg">
<path d="M35 6.5625C29.3756 6.5625 23.8775 8.23033 19.201 11.3551C14.5245 14.4798 10.8796 18.9212 8.72719 24.1174C6.57482 29.3137 6.01166 35.0315 7.10893 40.5479C8.2062 46.0642 10.9146 51.1313 14.8917 55.1083C18.8687 59.0854 23.9358 61.7938 29.4521 62.8911C34.9685 63.9883 40.6863 63.4252 45.8826 61.2728C51.0788 59.1204 55.5202 55.4755 58.6449 50.799C61.7697 46.1225 63.4375 40.6244 63.4375 35C63.4295 27.4603 60.4309 20.2318 55.0996 14.9004C49.7682 9.5691 42.5397 6.57046 35 6.5625ZM47.4852 29.9852L32.1727 45.2977C31.9695 45.501 31.7283 45.6624 31.4627 45.7725C31.1971 45.8826 30.9125 45.9392 30.625 45.9392C30.3375 45.9392 30.0529 45.8826 29.7873 45.7725C29.5218 45.6624 29.2805 45.501 29.0774 45.2977L22.5149 38.7352C22.1044 38.3247 21.8738 37.768 21.8738 37.1875C21.8738 36.607 22.1044 36.0503 22.5149 35.6398C22.9253 35.2294 23.482 34.9988 24.0625 34.9988C24.643 34.9988 25.1997 35.2294 25.6102 35.6398L30.625 40.6574L44.3899 26.8898C44.5931 26.6866 44.8344 26.5254 45.0999 26.4154C45.3655 26.3054 45.6501 26.2488 45.9375 26.2488C46.2249 26.2488 46.5095 26.3054 46.7751 26.4154C47.0406 26.5254 47.2819 26.6866 47.4852 26.8898C47.6884 27.0931 47.8496 27.3344 47.9596 27.5999C48.0696 27.8655 48.1262 28.1501 48.1262 28.4375C48.1262 28.7249 48.0696 29.0095 47.9596 29.2751C47.8496 29.5406 47.6884 29.7819 47.4852 29.9852Z" fill="#4DEDB4"/>
</svg>
