<svg width="70" height="70" viewBox="0 0 70 70" fill="none" xmlns="http://www.w3.org/2000/svg">
<g clip-path="url(#clip0_3350_3425)">
<path d="M12.2255 39.7003C12.2255 52.2583 22.442 62.473 35 62.473C47.558 62.473 57.7745 52.2565 57.7745 39.7003C57.7745 27.144 47.558 16.9258 35 16.9258C22.442 16.9258 12.2255 27.1423 12.2255 39.7003ZM20.7253 52.295L30.2015 34.9018L47.5948 25.4255C47.8398 25.2418 48.1163 25.2173 48.377 25.282C49.1505 25.4063 49.728 26.2883 49.273 27.1038L39.7968 44.497L22.4035 53.9733C22.1585 54.157 21.882 54.1815 21.6213 54.1168C20.8478 53.9925 20.2703 53.1105 20.7253 52.295Z" fill="#ECEFF1"/>
<path d="M38.388 36.3119C39.2578 37.1817 39.7968 38.3804 39.7968 39.7017C39.7968 41.0229 39.3173 42.2199 38.3565 43.0599L38.4773 43.1807L39.7968 44.5002L49.273 27.1069C49.7263 26.2914 49.1505 25.4094 48.377 25.2852C48.6255 25.3482 48.8583 25.4917 49.0333 25.6684L38.388 36.3119Z" fill="#FF3D00"/>
<path d="M21.6213 54.1193C21.3728 54.0563 21.14 53.9128 20.965 53.736L31.6103 43.0908C30.7405 42.221 30.2015 41.0223 30.2015 39.7028C30.2015 38.3833 30.681 37.1845 31.6418 36.3445L30.2015 34.9043L20.7253 52.2976C20.272 53.1148 20.8478 53.995 21.6213 54.1193Z" fill="white"/>
<path d="M38.395 36.3126C39.2525 37.1876 39.795 38.3776 39.795 39.7076C39.795 41.0201 39.3225 42.2276 38.36 43.0676L36.6975 41.3876C37.135 40.9676 37.3975 40.3551 37.3975 39.7076C37.3975 38.3776 36.3125 37.3101 35 37.3101C34.335 37.3101 33.74 37.5726 33.3025 38.0101L31.64 36.3476L31.5175 36.2251L30.205 34.8951L47.6 25.4276C47.845 25.2351 48.125 25.2176 48.37 25.2876C48.6325 25.3401 48.86 25.4976 49.035 25.6726L38.395 36.3126Z" fill="#DD2C00"/>
<path d="M39.795 44.5027L22.4 53.9702C22.155 54.1627 21.875 54.1802 21.63 54.1102C21.3675 54.0577 21.14 53.9177 20.965 53.7427L31.605 43.0852C30.7475 42.2277 30.205 41.0202 30.205 39.7077C30.205 38.3777 30.6775 37.1877 31.64 36.3477L33.3025 38.0102C32.865 38.4477 32.6025 39.0427 32.6025 39.7077C32.6025 41.0202 33.6875 42.1052 35 42.1052C35.665 42.1052 36.26 41.8252 36.6975 41.3877L38.36 43.0677L38.4825 43.1727L39.795 44.5027Z" fill="#99A5AB"/>
<path d="M35 37.3008C34.3403 37.3008 33.74 37.5703 33.306 38.006C32.872 38.4418 32.6008 39.0403 32.6008 39.7C32.6008 41.0195 33.6805 42.0993 35 42.0993C35.6598 42.0993 36.26 41.8298 36.694 41.394C37.128 40.9583 37.3993 40.3598 37.3993 39.7C37.3993 38.3805 36.3195 37.3008 35 37.3008Z" fill="white"/>
<path d="M40.53 12.5825C41.16 11.585 41.5275 10.4125 41.5275 9.1525C41.5275 5.5475 38.605 2.625 35 2.625C31.395 2.625 28.4725 5.5475 28.4725 9.1525C28.4725 10.4125 28.84 11.585 29.47 12.5825C16.8525 15.155 7.33252 26.3375 7.33252 39.7075C7.33252 54.9675 19.74 67.375 35 67.375C50.26 67.375 62.6675 54.9675 62.6675 39.7075C62.6675 26.3375 53.1475 15.155 40.53 12.5825ZM35 6.3175C36.5575 6.3175 37.835 7.595 37.835 9.1525C37.835 10.71 36.5575 11.9875 35 11.9875C33.4425 11.9875 32.165 10.71 32.165 9.1525C32.165 7.595 33.4425 6.3175 35 6.3175ZM35 62.475C22.435 62.475 12.2325 52.255 12.2325 39.7075C12.2325 27.16 22.435 16.9225 35 16.9225C47.565 16.9225 57.7675 27.1425 57.7675 39.7075C57.7675 52.2725 47.565 62.475 35 62.475Z" fill="#4E5968"/>
</g>
<defs>
<clipPath id="clip0_3350_3425">
<rect width="70" height="70" fill="white"/>
</clipPath>
</defs>
</svg>
