<svg width="170" height="96" viewBox="0 0 170 96" fill="none" xmlns="http://www.w3.org/2000/svg">
<g clip-path="url(#clip0_2889_3493)">
<path d="M93.6571 9.76019L62.6614 40.7559L74.4167 52.5112L105.412 21.5155L93.6571 9.76019Z" fill="#FFAA00"/>
<path fill-rule="evenodd" clip-rule="evenodd" d="M110.266 16.6637L105.415 21.5162L93.6597 9.7592L98.5107 4.9082C99.8232 3.5957 101.95 3.5957 103.261 4.9082L110.266 11.9132C111.579 13.2257 111.579 15.3512 110.266 16.6637Z" fill="#FF9000"/>
<path fill-rule="evenodd" clip-rule="evenodd" d="M59.9426 56.3904L65.6876 54.8514L60.3221 49.4844L58.7831 55.2309C58.5941 55.9344 59.2391 56.5779 59.9426 56.3904Z" fill="#313D4C"/>
<path fill-rule="evenodd" clip-rule="evenodd" d="M60.3237 49.4844L65.6877 54.8514L74.4192 52.5114L62.6637 40.7559L60.3237 49.4844Z" fill="#FFCCA8"/>
</g>
<path d="M5.14844 79.9531C7.19531 79.9688 8.64844 81.8438 8.66406 84.7969C8.64844 87.75 7.19531 89.625 5.14844 89.625C3.08594 89.625 1.64844 87.75 1.64844 84.7969C1.64844 81.8438 3.08594 79.9688 5.14844 79.9531ZM5.14844 81.0469C3.77344 81.0625 2.80469 82.5312 2.80469 84.7969C2.80469 87.0625 3.77344 88.5312 5.14844 88.5312C6.53906 88.5312 7.47656 87.0625 7.47656 84.7969C7.47656 82.5312 6.53906 81.0625 5.14844 81.0469ZM12.1797 78.875V84.4219H14.5078V85.4844H12.1797V92.7656H10.9609V78.875H12.1797ZM20.2578 81.4531C20.2578 83.3281 21.7422 85.0312 23.8203 85.7031L23.1953 86.6562C21.5781 86.1094 20.2891 84.9609 19.6641 83.4844C19.0547 85.0703 17.75 86.3203 16.1016 86.9219L15.4609 85.9688C17.5391 85.2344 19.0234 83.4219 19.0234 81.4531V80.8594H15.7734V79.8594H23.4609V80.8594H20.2578V81.4531ZM26.7266 78.875V87.2812H25.5078V78.875H26.7266ZM26.7266 88.0156V92.7656H25.5078V89.0312H17.3828V88.0156H26.7266ZM45.7734 85.4844V86.5156H33.1016V85.4844H45.7734ZM44.2891 83.1562V84.1562H34.7109V79.4375H44.1953V80.4688H35.9141V83.1562H44.2891ZM39.4297 87.7344C42.4141 87.7344 44.1953 88.6406 44.2109 90.2344C44.1953 91.8438 42.4141 92.7344 39.4297 92.7344C36.4297 92.7344 34.6328 91.8438 34.6328 90.2344C34.6328 88.6406 36.4297 87.7344 39.4297 87.7344ZM39.4297 88.6875C37.1953 88.7031 35.8672 89.2656 35.8828 90.2344C35.8672 91.2188 37.1953 91.7656 39.4297 91.7656C41.6328 91.7656 42.9766 91.2188 42.9766 90.2344C42.9766 89.2656 41.6328 88.7031 39.4297 88.6875ZM59.6328 86.5312V87.5469H46.9141V86.5312H52.6641V85.0625H48.5703V81.6719H56.7578V80.2344H48.5234V79.2344H57.9922V82.5938H49.7891V84.0781H58.2891V85.0625H53.8672V86.5312H59.6328ZM58.0703 88.6094V92.6406H56.8359V89.6094H48.3359V88.6094H58.0703ZM68.8359 83.4375V84.4375H66.0234V86.375C67.3203 86.3203 68.6172 86.2266 69.8203 86.0938L69.9141 87C66.9297 87.4062 63.6172 87.5 61.0078 87.5L60.8203 86.5C62.0391 86.4922 63.4062 86.4766 64.8047 86.4219V84.4375H62.0859V79.7812H68.7266V80.7969H63.3203V83.4375H68.8359ZM72.2109 78.8906V89.2812H70.9766V78.8906H72.2109ZM72.6641 91.4375V92.4688H63.1953V88.5625H64.4141V91.4375H72.6641ZM84.8828 87.6562C87.8672 87.6562 89.7578 88.5938 89.7578 90.2031C89.7578 91.7969 87.8672 92.7344 84.8828 92.7344C81.9141 92.7344 80.0234 91.7969 80.0234 90.2031C80.0234 88.5938 81.9141 87.6562 84.8828 87.6562ZM84.8828 88.5938C82.6641 88.6094 81.2266 89.2188 81.2422 90.2031C81.2266 91.1719 82.6641 91.7656 84.8828 91.7656C87.1016 91.7656 88.5234 91.1719 88.5391 90.2031C88.5234 89.2188 87.1016 88.6094 84.8828 88.5938ZM89.6484 79.5938V80.7656C89.6484 81.8906 89.6484 83.0156 89.2578 84.4531L88.0547 84.3125C88.4297 82.875 88.4297 81.8594 88.4297 80.7656V80.5938H80.1172V79.5938H89.6484ZM91.2578 85.3594V86.3594H78.6172V85.3594H83.8516V82.6719H85.0547V85.3594H91.2578ZM97.3984 83.1406C97.3984 85.5 99.1172 87.8906 101.164 88.7812L100.477 89.75C98.8516 89.0078 97.4453 87.4062 96.8047 85.4844C96.1484 87.5234 94.75 89.2969 93.1641 90.0938L92.4297 89.125C94.4141 88.1719 96.1484 85.5469 96.1641 83.1406V81.3281H92.8828V80.3125H100.711V81.3281H97.3984V83.1406ZM103.883 78.875V92.7656H102.648V78.875H103.883ZM117.008 78.875V84.5312H119.258V85.5625H117.008V92.7656H115.789V78.875H117.008ZM113.414 80.375C113.414 84.3125 111.57 87.8906 107.039 90.125L106.352 89.1562C109.945 87.3672 111.898 84.6953 112.18 81.4062H106.992V80.375H113.414ZM126.867 87.0312V88.7656H129.398V87.0312H130.539V92.5781H125.711V87.0312H126.867ZM126.867 91.6094H129.398V89.7031H126.867V91.6094ZM134.508 88.125C134.492 89.5938 135.367 91.125 137.07 91.75L136.43 92.6875C135.148 92.1719 134.305 91.1953 133.883 90.0312C133.438 91.1719 132.594 92.1562 131.367 92.6875L130.727 91.75C132.398 91.0625 133.289 89.5312 133.289 88.125V86.9375H134.508V88.125ZM127.93 79.5C129.789 79.5 131.211 80.5547 131.477 82.1562H134.383V78.875H135.617V86.2344H134.383V83.1719H131.492C131.242 84.8125 129.812 85.8906 127.93 85.8906C125.82 85.8906 124.32 84.5938 124.32 82.6875C124.32 80.7969 125.82 79.5 127.93 79.5ZM127.93 80.5312C126.508 80.5312 125.492 81.4219 125.492 82.6875C125.492 83.9688 126.508 84.875 127.93 84.875C129.336 84.875 130.336 83.9688 130.336 82.6875C130.336 81.4219 129.336 80.5312 127.93 80.5312ZM141.664 79.9531C143.555 79.9688 144.914 81.5859 145.117 84.1875H148.227V78.875H149.445V92.7969H148.227V85.2031H145.133C144.984 87.9219 143.602 89.625 141.664 89.625C139.617 89.625 138.18 87.75 138.18 84.7969C138.18 81.8438 139.617 79.9688 141.664 79.9531ZM141.664 81.0469C140.289 81.0625 139.352 82.5312 139.352 84.7969C139.352 87.0625 140.289 88.5312 141.664 88.5312C143.023 88.5312 143.977 87.0625 143.977 84.7969C143.977 82.5312 143.023 81.0625 141.664 81.0469ZM164.477 89.9531V90.9844H151.758V89.9531H154.914V86.2031C153.727 85.5859 153.008 84.5859 153.008 83.3281C153.008 81.1719 155.117 79.7656 158.086 79.75C161.055 79.7656 163.164 81.1719 163.164 83.3281C163.164 84.5625 162.469 85.5547 161.32 86.1719V89.9531H164.477ZM158.086 80.7656C155.805 80.75 154.195 81.7812 154.195 83.3281C154.195 84.875 155.805 85.9219 158.086 85.9219C160.352 85.9219 161.977 84.875 161.977 83.3281C161.977 81.7812 160.352 80.75 158.086 80.7656ZM156.117 89.9531H160.086V86.6406C159.484 86.8047 158.812 86.8906 158.086 86.8906C157.375 86.8906 156.711 86.8125 156.117 86.6562V89.9531ZM167.836 80.1875L167.727 88.3125H166.414L166.305 80.1875H167.836ZM167.07 91.5938C166.523 91.5938 166.055 91.1406 166.07 90.5781C166.055 90.0312 166.523 89.5781 167.07 89.5781C167.617 89.5781 168.07 90.0312 168.07 90.5781C168.07 91.1406 167.617 91.5938 167.07 91.5938Z" fill="#8A8A8A"/>
<defs>
<clipPath id="clip0_2889_3493">
<rect width="60" height="60" fill="white" transform="translate(55 0.5)"/>
</clipPath>
</defs>
</svg>
