<svg width="80" height="80" viewBox="0 0 80 80" fill="none" xmlns="http://www.w3.org/2000/svg">
<g clip-path="url(#clip0_1617_6885)">
<circle cx="40" cy="40" r="40" fill="#FFF8E5"/>
<g clip-path="url(#clip1_1617_6885)">
<path d="M64.5663 78.738L63.6373 74.9639C63.276 73.4966 62.7997 72.0457 62.0478 70.7336C60.2136 67.538 57.3192 65.0432 53.8225 63.7146L46.5571 60.9552C45.641 60.6066 44.7011 60.3493 43.7521 60.1504V62.4663C43.7521 64.5651 42.0731 66.2623 39.9744 66.2623C37.8756 66.2623 36.1966 64.5651 36.1966 62.4663V60.1504C35.2476 60.3475 34.3078 60.6066 33.3898 60.9552L26.1245 63.7146C22.6278 65.0432 19.7333 67.538 17.8992 70.7336C17.1473 72.0457 16.671 73.4966 16.3096 74.9639L15.3807 78.738C15.2402 79.3074 15.6727 79.8604 16.2603 79.8604H63.6884C64.2761 79.8604 64.7068 79.3092 64.5663 78.738Z" fill="#5A81FF"/>
<path d="M21.624 38.4971C21.5236 38.4953 21.4452 38.4077 21.4415 38.3073C21.4123 37.3638 21.4798 36.3984 21.5985 35.4238C18.5343 37.0517 16.691 39.0903 16.691 41.3113C16.691 43.2458 18.0872 45.0416 20.4688 46.549C19.7187 45.5745 19.2406 44.401 19.2406 43.1053C19.2406 41.2419 20.1804 39.5848 21.624 38.4971Z" fill="#C27700"/>
<path d="M63.2539 41.3116C63.2539 38.9117 61.1095 36.7235 57.5854 35.0391C57.7424 36.0501 57.8464 37.0794 57.83 38.1379C57.8154 38.1343 57.8008 38.1434 57.7862 38.1416C59.5327 39.1982 60.7044 41.0232 60.7044 43.1074C60.7044 44.3867 60.2591 45.5565 59.5218 46.5183C61.8724 45.0182 63.2539 43.2333 63.2539 41.3116Z" fill="#C27700"/>
<path d="M25.5188 49.0358C24.2212 49.0285 23.0167 48.6544 22.0148 48.0156L23.6865 54.7298C24.0186 56.0657 25.2195 57.0037 26.5955 57.0037H33.4028C29.8951 55.4014 27.0755 52.5726 25.5188 49.0358Z" fill="#333333"/>
<path d="M46.5413 57.0031H53.2755C54.7501 57.0031 56.0057 55.93 56.2357 54.4736L57.1956 48.3945C56.3579 48.7887 55.4254 49.0315 54.4271 49.0369C52.8704 52.572 50.0489 55.4007 46.5413 57.0031Z" fill="#333333"/>
<path d="M21.6245 38.4959C22.0278 38.4995 23.0626 38.7058 24.07 40.5344C24.2214 40.81 24.5919 40.872 24.8 40.6366L34.7827 29.4676C34.7827 29.4676 47.4281 39.6237 55.7739 39.0689C55.9582 39.0562 56.1699 38.9923 56.3798 38.9029C56.9181 38.5999 57.3726 38.0597 57.7868 38.1364C57.8014 38.1382 57.816 38.1291 57.8306 38.1327C57.8471 37.076 57.743 36.0467 57.5861 35.0339C56.0549 25.2081 46.7255 17.8588 36.135 19.8426C28.8405 21.2077 23.0023 27.1134 21.7212 34.4225C21.6628 34.7583 21.6391 35.0868 21.5989 35.419C21.4803 36.3935 21.4128 37.3589 21.442 38.3025C21.4456 38.4028 21.5241 38.4886 21.6245 38.4923V38.4959Z" fill="#333333"/>
<path d="M57.7867 38.1375C57.3706 38.0609 56.9161 38.6011 56.3796 38.904C56.1697 38.9934 55.958 39.0573 55.7737 39.0701C47.428 39.6249 34.7825 29.4688 34.7825 29.4688L24.7998 40.6378C24.5899 40.8714 24.2213 40.8093 24.0698 40.5356C23.0624 38.7069 22.0294 38.5007 21.6261 38.497C20.1825 39.5847 19.2408 41.2418 19.2408 43.1052C19.2408 44.4009 19.719 45.5725 20.4691 46.5489C20.9016 47.1129 21.4016 47.6257 22.0148 48.0162C23.0149 48.6532 24.2213 49.0291 25.5188 49.0364C27.0756 52.5714 29.897 55.402 33.4047 57.0044C34.2971 57.4113 35.2224 57.7599 36.1951 57.9972V62.4684C36.1951 64.5672 37.8741 66.2644 39.9728 66.2644C42.0716 66.2644 43.7506 64.5672 43.7506 62.4684V57.9972C44.7233 57.7599 45.6486 57.4113 46.541 57.0044C50.0487 55.402 52.8701 52.5733 54.4268 49.0364C55.4251 49.0309 56.3577 48.7882 57.1954 48.394C58.1279 47.956 58.92 47.3045 59.5222 46.5161C60.2577 45.5525 60.7048 44.3845 60.7048 43.1052C60.7048 41.021 59.5332 39.196 57.7867 38.1393V38.1375Z" fill="#FFCCA8"/>
<path d="M35.5364 43.9161C36.4647 43.9161 37.2172 43.0132 37.2172 41.8994C37.2172 40.7857 36.4647 39.8828 35.5364 39.8828C34.6081 39.8828 33.8556 40.7857 33.8556 41.8994C33.8556 43.0132 34.6081 43.9161 35.5364 43.9161Z" fill="black"/>
<path d="M44.4098 43.9161C45.3381 43.9161 46.0907 43.0132 46.0907 41.8994C46.0907 40.7857 45.3381 39.8828 44.4098 39.8828C43.4815 39.8828 42.729 40.7857 42.729 41.8994C42.729 43.0132 43.4815 43.9161 44.4098 43.9161Z" fill="black"/>
<path d="M42.0623 49.8516C42.4401 49.8516 42.7083 50.2147 42.608 50.5779C42.2904 51.735 41.2301 52.5854 39.9727 52.5854C38.7152 52.5854 37.6549 51.735 37.3374 50.5779C37.237 50.2129 37.5053 49.8516 37.883 49.8516H42.0623Z" fill="#5C2F17"/>
<path d="M59.9598 37.1771C59.8941 26.1924 50.9735 17.3047 39.9724 17.3047C28.9713 17.3047 20.0525 26.1906 19.985 37.1771C24.4544 34.3849 31.7307 32.558 39.9724 32.558C48.2141 32.558 55.4904 34.383 59.9598 37.1771Z" fill="#FF9D00"/>
<path d="M63.2594 41.3154C63.2594 41.6074 63.2047 41.8994 63.1499 42.1731C62.0914 37.2639 52.1269 33.4314 39.9724 33.4314C27.8179 33.4314 17.8534 37.2639 16.7949 42.1731C16.7402 41.8994 16.6854 41.6074 16.6854 41.3154C16.6854 37.3004 22.6349 33.8694 31.0847 32.4094L30.0992 21.7331C29.9167 19.9446 30.9387 18.2656 32.5812 17.5356C34.8624 16.5319 37.3627 15.9844 39.9724 15.9844C42.5822 15.9844 45.0824 16.5319 47.3637 17.5356C49.0062 18.2656 50.0282 19.9446 49.8457 21.7331L48.8602 32.4094C57.3099 33.8694 63.2594 37.3004 63.2594 41.3154Z" fill="#FFBB00"/>
<path d="M57.9381 66.0742L55.0929 79.8603H60.4675L61.8436 70.4122C60.8234 68.7296 59.4838 67.2769 57.9381 66.0742Z" fill="#FF8400"/>
<path d="M53.8206 63.7165L48.6066 61.7363L44.7777 79.8604H49.6906L53.2968 63.5175L53.8206 63.7165Z" fill="#FF8400"/>
<path d="M56.0707 64.7949C56.4375 65.0066 56.7751 65.2603 57.1219 65.4994C56.7733 65.2603 56.4375 65.0066 56.0707 64.7949Z" fill="#FF8400"/>
<path d="M57.9411 66.0489C57.682 65.8481 57.3918 65.6857 57.1217 65.4995C56.7731 65.2605 56.4373 65.0068 56.0705 64.7951C55.3533 64.3808 54.6069 64.014 53.8203 63.7165L53.2965 63.5176L49.6903 79.8605H55.0905L57.9357 66.0744L57.9411 66.0489Z" fill="#FFBB00"/>
<path d="M18.089 70.4122L19.465 79.8603H24.8397L21.9945 66.0742C20.4487 67.2787 19.1092 68.7296 18.089 70.4122Z" fill="#FF8400"/>
<path d="M22.8099 65.4994C23.1585 65.2603 23.4943 65.0066 23.8611 64.7949C23.4925 65.0048 23.1585 65.2603 22.8099 65.4994Z" fill="#FF8400"/>
<path d="M26.1115 63.7165L26.6352 63.5175L30.2414 79.8604H35.1543L31.3255 61.7363L26.1115 63.7165Z" fill="#FF8400"/>
<path d="M26.1114 63.7165C25.3267 64.0158 24.5784 64.3808 23.8612 64.7951C23.4944 65.0068 23.1568 65.2605 22.81 65.4995C22.5381 65.6857 22.2479 65.8463 21.9888 66.0489L21.9942 66.0744L24.8394 79.8605H30.2396L26.6334 63.5176L26.1114 63.7165Z" fill="#FFBB00"/>
</g>
</g>
<defs>
<clipPath id="clip0_1617_6885">
<rect width="80" height="80" rx="40" fill="white"/>
</clipPath>
<clipPath id="clip1_1617_6885">
<rect width="73" height="73" fill="white" transform="translate(3 7)"/>
</clipPath>
</defs>
</svg>
