<svg width="105" height="80" viewBox="0 0 105 80" fill="none" xmlns="http://www.w3.org/2000/svg">
<g clip-path="url(#clip0_1970_3532)">
<path d="M66.952 73.7703L65.934 69.6343C65.538 68.0263 65.016 66.4363 64.192 64.9983C62.182 61.4963 59.01 58.7623 55.178 57.3063L47.216 54.2823C46.214 53.9023 45.188 53.6203 44.15 53.4023V55.9403C44.15 58.2323 42.292 60.0903 40 60.0903C37.708 60.0903 35.85 58.2323 35.85 55.9403V53.4023C34.814 53.6183 33.786 53.9003 32.784 54.2823L24.822 57.3063C20.99 58.7623 17.818 61.4963 15.808 64.9983C14.984 66.4363 14.462 68.0263 14.066 69.6343L13.048 73.7703C12.894 74.3943 13.368 75.0003 14.012 75.0003H65.988C66.632 75.0003 67.106 74.3963 66.952 73.7703Z" fill="#5A81FF"/>
<path d="M14.4861 32.7537C14.4861 34.9317 16.0881 36.9557 18.8321 38.6337C19.0261 34.7237 19.5681 30.0857 20.8581 25.8057C16.9041 27.6597 14.4861 30.0877 14.4861 32.7517V32.7537Z" fill="#C27700"/>
<path d="M65.5141 32.7533C65.5141 30.3473 63.5361 28.1353 60.2461 26.3633C60.9481 29.5133 61.5401 33.5793 61.8281 38.1853C64.1521 36.5973 65.5141 34.7433 65.5141 32.7533Z" fill="#C27700"/>
<path d="M59.066 22.1743C56.922 16.3323 50.524 9.8803 42.148 9.0083C33.77 8.1383 30.016 13.5783 30.016 13.5783C25.258 15.6643 22.472 20.4523 20.86 25.8063C19.57 30.0863 19.028 34.7223 18.834 38.6343C18.574 43.8683 18.93 47.7983 18.93 47.7983C18.93 47.7983 20.02 51.8863 35.86 52.5423V50.3403C29.74 48.6603 25 43.4403 23.88 36.9003C23.56 35.0603 24 33.1803 25.12 31.7003C25.88 30.6803 26.56 30.1603 26.56 30.1603C30.62 26.6003 31.88 21.6603 32.24 19.7203C32.3 19.4203 32.7 19.3003 32.9 19.5403C34.44 21.3203 39.26 26.1603 46.64 27.2603C53.68 28.2803 56.98 32.9203 56.04 38.3003C54.5 44.2603 49.92 48.9203 44.14 50.4003V52.5723C53.714 52.2403 58.184 50.6823 60.238 49.4343C61.298 48.7903 61.964 47.6543 61.992 46.4143C62.06 43.5403 61.992 40.7783 61.828 38.1843C61.54 33.5803 60.948 29.5123 60.246 26.3623C59.874 24.6923 59.47 23.2763 59.066 22.1743Z" fill="#333333"/>
<path d="M56.0401 38.3008C56.9801 32.9208 53.6801 28.2808 46.6401 27.2608C39.2601 26.1608 34.4401 21.3208 32.9001 19.5408C32.7001 19.3008 32.3001 19.4208 32.2401 19.7208C31.8801 21.6608 30.6201 26.6008 26.5601 30.1608C26.5601 30.1608 25.8801 30.6808 25.1201 31.7008C24.0001 33.1808 23.5601 35.0608 23.8801 36.9008C25.0001 43.4408 29.7401 48.6608 35.8601 50.3408V55.9408C35.8601 58.2408 37.7001 60.1008 40.0001 60.1008C42.3001 60.1008 44.1401 58.2408 44.1401 55.9408V50.4008C49.9201 48.9208 54.5001 44.2608 56.0401 38.3008Z" fill="#FFCCA8"/>
<path d="M35.1422 35.6141C36.1561 35.6141 36.9782 34.6273 36.9782 33.4101C36.9782 32.1928 36.1561 31.2061 35.1422 31.2061C34.1282 31.2061 33.3062 32.1928 33.3062 33.4101C33.3062 34.6273 34.1282 35.6141 35.1422 35.6141Z" fill="black"/>
<path d="M44.8362 35.6141C45.8502 35.6141 46.6722 34.6273 46.6722 33.4101C46.6722 32.1928 45.8502 31.2061 44.8362 31.2061C43.8222 31.2061 43.0002 32.1928 43.0002 33.4101C43.0002 34.6273 43.8222 35.6141 44.8362 35.6141Z" fill="black"/>
<path d="M42.2741 43.0879C42.6861 43.0879 42.9781 43.4839 42.8681 43.8799C42.5201 45.1459 41.3621 46.0739 39.9881 46.0739C38.6141 46.0739 37.4541 45.1439 37.1081 43.8799C37.0001 43.4839 37.2921 43.0879 37.7021 43.0879H42.2741Z" fill="#5C2F17"/>
<path d="M61.9039 28.2262C61.832 16.1882 52.056 6.44824 39.9999 6.44824C27.9439 6.44824 18.1699 16.1862 18.0959 28.2262C22.9939 25.1662 30.9679 23.1642 39.9999 23.1642C49.0319 23.1642 57.006 25.1642 61.9039 28.2262Z" fill="#FF9D00"/>
<path d="M65.52 32.76C65.52 33.08 65.46 33.4 65.4 33.7C64.24 28.32 53.32 24.12 40 24.12C26.68 24.12 15.76 28.32 14.6 33.7C14.54 33.4 14.48 33.08 14.48 32.76C14.48 28.36 21 24.6 30.26 23L29.18 11.3C28.98 9.34 30.1 7.5 31.9 6.7C34.4 5.6 37.14 5 40 5C42.86 5 45.6 5.6 48.1 6.7C49.9 7.5 51.02 9.34 50.82 11.3L49.74 23C59 24.6 65.52 28.36 65.52 32.76Z" fill="#FFBB00"/>
<path d="M55.1761 57.3077L49.4621 55.1377L45.2661 74.9997H50.6501L54.6021 57.0897L55.1761 57.3077Z" fill="#FF8400"/>
<path d="M57.6421 58.4893C58.0441 58.7213 58.4141 58.9993 58.7941 59.2613C58.4121 58.9993 58.0441 58.7213 57.6421 58.4893Z" fill="#FF8400"/>
<path d="M59.6881 59.8916L56.5701 74.9996H62.4601L63.9681 64.6456C62.8501 62.8016 61.3821 61.2096 59.6881 59.8916Z" fill="#FF8400"/>
<path d="M59.6921 59.8638C59.4081 59.6438 59.0901 59.4658 58.7941 59.2618C58.4121 58.9998 58.0441 58.7218 57.6421 58.4898C56.8561 58.0358 56.0381 57.6338 55.1761 57.3078L54.6021 57.0898L50.6501 74.9998H56.5681L59.6861 59.8918L59.6921 59.8638Z" fill="#FFBB00"/>
<path d="M16.0181 64.6456L17.5261 74.9996H23.4161L20.2981 59.8916C18.6041 61.2116 17.1361 62.8016 16.0181 64.6456Z" fill="#FF8400"/>
<path d="M24.8101 57.3077L25.3841 57.0897L29.3361 74.9997H34.7201L30.5241 55.1377L24.8101 57.3077Z" fill="#FF8400"/>
<path d="M21.1921 59.2613C21.5741 58.9993 21.9421 58.7213 22.3441 58.4893C21.9401 58.7193 21.5741 58.9993 21.1921 59.2613Z" fill="#FF8400"/>
<path d="M24.81 57.3078C23.95 57.6358 23.13 58.0358 22.344 58.4898C21.942 58.7218 21.572 58.9998 21.192 59.2618C20.894 59.4658 20.576 59.6418 20.292 59.8638L20.298 59.8918L23.416 74.9998H29.334L25.382 57.0898L24.81 57.3078Z" fill="#FFBB00"/>
</g>
<path d="M91.3869 21.6302C92.0632 22.077 92.9363 22.077 93.6126 21.6302C95.7594 20.2114 100.438 16.8227 102.453 13.0295C105.109 8.02578 101.989 3.03516 97.8663 3.03516C95.5157 3.03516 94.1013 4.26328 93.3194 5.31891C92.9076 5.87516 92.0932 5.87516 91.6807 5.31891C90.8988 4.26328 89.4844 3.03516 87.1338 3.03516C83.0107 3.03516 79.8907 8.02578 82.5476 13.0295C84.5613 16.822 89.2401 20.2114 91.3869 21.6302Z" fill="#4DEDB4"/>
<defs>
<clipPath id="clip0_1970_3532">
<rect width="80" height="80" fill="white"/>
</clipPath>
</defs>
</svg>
