<svg width="70" height="70" viewBox="0 0 70 70" fill="none" xmlns="http://www.w3.org/2000/svg">
<g clip-path="url(#clip0_3333_930)">
<path d="M34.6167 65.625C51.5304 65.625 65.2417 51.9137 65.2417 35C65.2417 18.0863 51.5304 4.375 34.6167 4.375C17.703 4.375 3.9917 18.0863 3.9917 35C3.9917 51.9137 17.703 65.625 34.6167 65.625Z" fill="#FFC84D"/>
<path d="M21.1975 32.2416C20.7862 32.4918 20.2577 32.1628 20.312 31.6833C20.6147 29.0233 22.692 26.8638 25.3852 26.6276C28.0785 26.3913 30.4987 28.1588 31.2582 30.7243C31.3947 31.1863 30.9327 31.6028 30.483 31.4278C29.503 31.0463 27.851 30.6018 25.7475 30.7856C23.644 30.9693 22.0935 31.6938 21.1957 32.2398L21.1975 32.2416Z" fill="black"/>
<path d="M48.0338 32.2416C48.4451 32.4918 48.9736 32.1628 48.9193 31.6833C48.6166 29.0233 46.5393 26.8638 43.8461 26.6276C41.1528 26.3913 38.7326 28.1588 37.9731 30.7243C37.8366 31.1863 38.2986 31.6028 38.7483 31.4278C39.7283 31.0463 41.3803 30.6018 43.4838 30.7856C45.5873 30.9693 47.1378 31.6938 48.0356 32.2398L48.0338 32.2416Z" fill="black"/>
<path d="M56.3216 62.4435C55.9121 62.7147 55.3836 62.7147 54.9724 62.4435C53.6721 61.5842 50.8371 59.5315 49.6174 57.2337C48.0074 54.2027 49.8974 51.1787 52.3964 51.1787C53.8209 51.1787 54.6766 51.9225 55.1509 52.563C55.4011 52.9007 55.8946 52.9007 56.1431 52.563C56.6174 51.9225 57.4731 51.1787 58.8976 51.1787C61.3949 51.1787 63.2849 54.2027 61.6766 57.2337C60.4569 59.5315 57.6219 61.5842 56.3216 62.4435Z" fill="#F5172B"/>
<path d="M58.3973 24.8567C57.7901 25.2575 57.0061 25.2575 56.4006 24.8567C54.4738 23.5845 50.2738 20.5412 48.4661 17.1375C46.0808 12.647 48.8826 8.16699 52.5821 8.16699C54.6926 8.16699 55.9613 9.26949 56.6631 10.2162C57.0323 10.715 57.7638 10.715 58.1331 10.2162C58.8348 9.26774 60.1036 8.16699 62.2141 8.16699C65.9136 8.16699 68.7153 12.647 66.3301 17.1375C64.5223 20.5412 60.3241 23.5827 58.3973 24.8567Z" fill="#F5172B"/>
<path d="M10.8971 54.308C10.4421 54.609 9.85411 54.609 9.39911 54.308C7.95361 53.3525 4.80361 51.0722 3.44911 48.519C1.66061 45.1502 3.76061 41.792 6.53611 41.792C8.11811 41.792 9.07011 42.618 9.59686 43.3285C9.87511 43.703 10.4229 43.703 10.6994 43.3285C11.2261 42.618 12.1781 41.792 13.7601 41.792C16.5356 41.792 18.6356 45.152 16.8471 48.519C15.4909 51.0722 12.3426 53.3525 10.8971 54.308Z" fill="#F5172B"/>
<path d="M34.6167 42.8681C29.4034 42.8681 25.5394 41.9353 23.2312 41.1601C22.1794 40.8066 21.3639 42.1121 22.1462 42.8978C24.4474 45.2096 29.2897 47.2011 34.6167 47.2011C39.9437 47.2011 44.7859 45.2096 47.0872 42.8978C47.8712 42.1103 47.0557 40.8066 46.0022 41.1601C43.6922 41.9353 39.8299 42.8681 34.6167 42.8681Z" fill="#FF6D00"/>
</g>
<defs>
<clipPath id="clip0_3333_930">
<rect width="70" height="70" fill="white"/>
</clipPath>
</defs>
</svg>
