<svg width="70" height="70" viewBox="0 0 70 70" fill="none" xmlns="http://www.w3.org/2000/svg">
<g clip-path="url(#clip0_2906_5865)">
<path d="M35 64.75C51.4305 64.75 64.75 51.4305 64.75 35C64.75 18.5695 51.4305 5.25 35 5.25C18.5695 5.25 5.25 18.5695 5.25 35C5.25 51.4305 18.5695 64.75 35 64.75Z" fill="#FFC84D"/>
<path d="M16.6075 41.3994C20.2435 41.3994 23.191 38.4519 23.191 34.8159C23.191 31.18 20.2435 28.2324 16.6075 28.2324C12.9716 28.2324 10.024 31.18 10.024 34.8159C10.024 38.4519 12.9716 41.3994 16.6075 41.3994Z" fill="#FFA52E"/>
<path d="M53.3925 41.3994C57.0284 41.3994 59.976 38.4519 59.976 34.8159C59.976 31.18 57.0284 28.2324 53.3925 28.2324C49.7565 28.2324 46.809 31.18 46.809 34.8159C46.809 38.4519 49.7565 41.3994 53.3925 41.3994Z" fill="#FFA52E"/>
<path d="M35.0001 37.8083C31.5631 37.8083 28.8821 37.215 27.0516 36.6165C26.1031 36.3068 25.3261 37.4338 25.9438 38.2178C27.5958 40.3125 30.5061 42.8063 34.9983 42.8063C39.4906 42.8063 42.4008 40.3125 44.0528 38.2178C44.6706 37.4338 43.8953 36.305 42.9451 36.6165C41.1146 37.215 38.4336 37.8083 34.9966 37.8083H35.0001Z" fill="#FF6D00"/>
<path d="M21.7298 26.8355C21.3098 27.042 20.8268 26.6798 20.9213 26.2213C21.4393 23.6733 23.632 21.7588 26.2588 21.7588C28.8855 21.7588 31.0783 23.6733 31.5963 26.2213C31.689 26.6798 31.2078 27.0438 30.7878 26.8355C29.8725 26.384 28.3098 25.8135 26.2588 25.8135C24.2078 25.8135 22.6468 26.384 21.7298 26.8355Z" fill="black"/>
<path d="M48.2702 26.8355C48.6902 27.042 49.1732 26.6798 49.0787 26.2213C48.5607 23.6733 46.3679 21.7588 43.7412 21.7588C41.1144 21.7588 38.9217 23.6733 38.4037 26.2213C38.3109 26.6798 38.7922 27.0438 39.2122 26.8355C40.1274 26.384 41.6902 25.8135 43.7412 25.8135C45.7922 25.8135 47.3532 26.384 48.2702 26.8355Z" fill="black"/>
<path d="M20.9528 44.1349C20.1443 44.5444 19.8205 45.5296 20.23 46.3381L21.5775 49.7296L18.655 47.5859L13.4978 43.8059C12.768 43.2704 11.7425 43.4279 11.207 44.1594C10.6715 44.8909 10.829 45.9146 11.5605 46.4501L16.6863 50.2739L16.422 50.6361L9.49202 45.6224C8.76227 45.0869 7.73677 45.2444 7.20127 45.9759C6.66577 46.7074 6.82327 47.7311 7.55477 48.2666L14.1435 53.1631L13.8828 53.5271L8.30027 49.5004C7.57052 48.9649 6.54502 49.1224 6.00952 49.8539C5.47402 50.5854 5.63152 51.6091 6.36302 52.1446L12.8958 57.0009L12.6315 57.3631L8.15502 54.1484C7.42527 53.6129 6.39977 53.7704 5.86427 54.5019C5.32877 55.2334 5.48627 56.2571 6.21777 56.7926L10.6628 60.0511L14.805 63.0856C18.263 65.6196 23.1963 64.7674 25.8248 61.1816C26.656 60.0476 27.1548 58.7771 27.342 57.4891L27.3438 57.4821C27.482 56.8941 27.4733 56.1889 27.3718 55.4364C27.3315 55.0671 27.265 54.7014 27.1723 54.3409C26.551 51.5934 25.0915 48.6814 25.0915 48.6814L23.1595 44.8611C22.75 44.0526 21.7648 43.7289 20.9563 44.1384L20.9528 44.1349Z" fill="#FF9210"/>
<path d="M49.0472 44.1349C49.8557 44.5444 50.1795 45.5296 49.77 46.3381L48.4225 49.7296L51.345 47.5859L56.5022 43.8059C57.232 43.2704 58.2575 43.4279 58.793 44.1594C59.3285 44.8909 59.171 45.9146 58.4395 46.4501L53.3137 50.2739L53.578 50.6361L60.508 45.6224C61.2377 45.0869 62.2632 45.2444 62.7987 45.9759C63.3342 46.7074 63.1767 47.7311 62.4452 48.2666L55.8565 53.1631L56.1172 53.5271L61.6997 49.5004C62.4295 48.9649 63.455 49.1224 63.9905 49.8539C64.526 50.5854 64.3685 51.6091 63.637 52.1446L57.1042 57.0009L57.3685 57.3631L61.845 54.1484C62.5747 53.6129 63.6002 53.7704 64.1357 54.5019C64.6712 55.2334 64.5137 56.2571 63.7822 56.7926L59.3372 60.0511L55.195 63.0856C51.737 65.6196 46.8037 64.7674 44.1752 61.1816C43.344 60.0476 42.8452 58.7771 42.658 57.4891L42.6562 57.4821C42.518 56.8941 42.5267 56.1889 42.6282 55.4364C42.6685 55.0671 42.735 54.7014 42.8277 54.3409C43.449 51.5934 44.9085 48.6814 44.9085 48.6814L46.8405 44.8611C47.25 44.0526 48.2352 43.7289 49.0437 44.1384L49.0472 44.1349Z" fill="#FF9210"/>
</g>
<defs>
<clipPath id="clip0_2906_5865">
<rect width="70" height="70" fill="white"/>
</clipPath>
</defs>
</svg>
