<svg width="145" height="31" viewBox="0 0 145 31" fill="none" xmlns="http://www.w3.org/2000/svg">
<path d="M5.633 13.032C5.633 13.48 5.84634 13.8107 6.273 14.024C6.69967 14.216 7.393 14.312 8.353 14.312C9.313 14.312 10.0063 14.216 10.433 14.024C10.8597 13.8107 11.073 13.48 11.073 13.032C11.073 12.6053 10.8597 12.296 10.433 12.104C10.0063 11.8907 9.313 11.784 8.353 11.784C7.393 11.784 6.69967 11.8907 6.273 12.104C5.84634 12.296 5.633 12.6053 5.633 13.032ZM8.353 8.008C10.8277 8.008 12.6623 8.424 13.857 9.256C15.0517 10.0667 15.649 11.3253 15.649 13.032C15.649 14.76 15.0517 16.04 13.857 16.872C12.6623 17.6827 10.8277 18.088 8.353 18.088C5.87834 18.088 4.04367 17.6827 2.849 16.872C1.65434 16.04 1.057 14.76 1.057 13.032C1.057 11.3253 1.65434 10.0667 2.849 9.256C4.04367 8.424 5.87834 8.008 8.353 8.008ZM10.721 2.12C10.721 2.58933 11.009 2.824 11.585 2.824H15.649C16.3103 2.824 16.641 3.15467 16.641 3.816V5.864C16.641 6.52533 16.3103 6.856 15.649 6.856H1.089C0.42767 6.856 0.0970031 6.52533 0.0970031 5.864V3.816C0.0970031 3.15467 0.42767 2.824 1.089 2.824H6.561C6.241 2.632 6.081 2.32267 6.081 1.896V1.352C6.081 0.690666 6.41167 0.359999 7.073 0.359999H9.729C10.3903 0.359999 10.721 0.690666 10.721 1.352V2.12ZM23.393 16.904C23.393 17.608 23.041 17.96 22.337 17.96H19.809C19.105 17.96 18.753 17.608 18.753 16.904V2.824C18.753 2.12 19.105 1.768 19.809 1.768H22.337C23.041 1.768 23.393 2.12 23.393 2.824V8.104C23.5637 7.82667 23.8197 7.61333 24.161 7.464C24.5237 7.29333 24.929 7.208 25.377 7.208H26.401C27.0623 7.208 27.393 7.53867 27.393 8.2V10.536C27.393 11.1973 27.0623 11.528 26.401 11.528H25.249C24.6943 11.528 24.2463 11.6987 23.905 12.04C23.5637 12.36 23.393 12.776 23.393 13.288V16.904ZM16.897 20.072C19.0943 20.072 20.705 20.5307 21.729 21.448C22.7743 22.3653 23.297 23.7947 23.297 25.736C23.297 26.7387 23.2757 27.5387 23.233 28.136C23.1903 28.7333 23.1477 29.224 23.105 29.608C23.0197 30.2693 22.6677 30.6 22.049 30.6H19.457C19.1157 30.6 18.849 30.504 18.657 30.312C18.4863 30.1413 18.4223 29.8853 18.465 29.544C18.529 29.0533 18.5717 28.5947 18.593 28.168C18.6357 27.7413 18.657 27.2613 18.657 26.728C18.657 25.9173 18.465 25.3307 18.081 24.968C17.7183 24.584 17.089 24.392 16.193 24.392C13.8037 24.392 11.649 24.456 9.729 24.584C7.809 24.712 5.953 24.84 4.161 24.968C3.841 24.9893 3.59567 24.9147 3.425 24.744C3.25434 24.552 3.169 24.296 3.169 23.976V21.64C3.169 21.0427 3.49967 20.712 4.161 20.648C4.97167 20.5627 5.80367 20.488 6.657 20.424C7.53167 20.3387 8.47034 20.2747 9.473 20.232C10.497 20.1893 11.617 20.1573 12.833 20.136C14.049 20.0933 15.4037 20.072 16.897 20.072ZM36.5658 10.92C36.5871 11.624 36.9818 11.976 37.7498 11.976H45.8778C46.6458 11.976 47.0404 11.624 47.0618 10.92L47.1578 9.224H36.4698L36.5658 10.92ZM44.1498 28.264C44.1498 28.968 43.8084 29.32 43.1258 29.32H40.5658C39.8618 29.32 39.5098 28.968 39.5098 28.264V24.68C39.5098 24.3387 39.5951 24.0293 39.7658 23.752C39.9364 23.4747 40.1711 23.272 40.4698 23.144C38.4644 23.1227 36.5871 23.0693 34.8378 22.984C33.0884 22.8987 31.5844 22.7707 30.3258 22.6C29.6218 22.5147 29.2698 22.1733 29.2698 21.576V19.208C29.2698 18.8667 29.3551 18.6107 29.5258 18.44C29.7178 18.2693 29.9844 18.2053 30.3258 18.248C31.7124 18.4187 33.3978 18.5573 35.3818 18.664C37.3871 18.7493 39.5204 18.792 41.7818 18.792C43.0404 18.792 44.2458 18.7813 45.3978 18.76C46.5711 18.7173 47.6591 18.6747 48.6618 18.632C49.6644 18.5893 50.5604 18.536 51.3498 18.472C52.1604 18.408 52.8111 18.3333 53.3018 18.248C53.6431 18.184 53.9098 18.248 54.1018 18.44C54.2938 18.6107 54.3898 18.8667 54.3898 19.208V21.576C54.3898 22.1307 54.0378 22.472 53.3338 22.6C52.5658 22.728 51.4778 22.8453 50.0698 22.952C48.6831 23.0587 47.1684 23.112 45.5258 23.112C44.6084 23.112 44.1498 23.56 44.1498 24.456V28.264ZM36.2138 16.232C34.8911 16.232 33.8671 15.9333 33.1418 15.336C32.4378 14.7173 32.0538 13.8107 31.9898 12.616L31.5098 3.528C31.4884 3.208 31.5738 2.96267 31.7658 2.792C31.9578 2.6 32.2244 2.504 32.5658 2.504H35.0938C35.7978 2.504 36.1604 2.81333 36.1818 3.432L36.2458 4.968H47.3818L47.4458 3.432C47.4671 2.81333 47.8298 2.504 48.5338 2.504H51.0618C51.8084 2.504 52.1604 2.84533 52.1178 3.528L51.6378 12.616C51.5738 13.8107 51.1791 14.7173 50.4538 15.336C49.7498 15.9333 48.7364 16.232 47.4138 16.232H36.2138ZM58.4745 27.4C57.7705 27.3147 57.4185 26.9733 57.4185 26.376V24.008C57.4185 23.304 57.7705 22.984 58.4745 23.048C59.0718 23.112 59.7652 23.176 60.5545 23.24C61.3652 23.2827 62.2185 23.336 63.1145 23.4C64.0105 23.4427 64.9278 23.4853 65.8665 23.528C66.8265 23.5707 67.7545 23.6027 68.6505 23.624C68.3518 23.4747 68.1065 23.2613 67.9145 22.984C67.7438 22.6853 67.6585 22.3333 67.6585 21.928V19.432H64.3305C62.9438 19.432 61.8878 19.112 61.1625 18.472C60.4372 17.832 60.0745 16.904 60.0745 15.688V5.32C60.0745 4.08267 60.6825 3.464 61.8985 3.464H74.7305C76.5225 3.464 77.8772 3.92267 78.7945 4.84C79.7332 5.736 80.2025 7.048 80.2025 8.776C80.2025 9.45867 80.1278 10.1307 79.9785 10.792C79.8292 11.4533 79.6265 12.072 79.3705 12.648C79.1145 13.2027 78.7945 13.704 78.4105 14.152C78.0478 14.6 77.6425 14.9733 77.1945 15.272H79.6585C80.3198 15.272 80.6505 15.6027 80.6505 16.264V18.44C80.6505 19.1013 80.3198 19.432 79.6585 19.432H72.2985V22.184C72.2985 22.5253 72.3518 22.792 72.4585 22.984C72.5865 23.1547 72.7358 23.2827 72.9065 23.368C73.0985 23.4533 73.3118 23.5067 73.5465 23.528C73.8025 23.528 74.0585 23.528 74.3145 23.528C74.7625 23.528 75.2745 23.5173 75.8505 23.496C76.4478 23.4747 77.0665 23.4427 77.7065 23.4C78.3465 23.3573 78.9865 23.304 79.6265 23.24C80.2878 23.176 80.8958 23.112 81.4505 23.048C81.7918 23.0053 82.0585 23.0693 82.2505 23.24C82.4425 23.4107 82.5385 23.6667 82.5385 24.008V26.376C82.5385 26.9307 82.1865 27.272 81.4825 27.4C80.9918 27.4853 80.3412 27.56 79.5305 27.624C78.7412 27.688 77.8452 27.7413 76.8425 27.784C75.8398 27.848 74.7518 27.8907 73.5785 27.912C72.4265 27.9333 71.2212 27.944 69.9625 27.944C67.7012 27.944 65.5678 27.9013 63.5625 27.816C61.5785 27.7307 59.8825 27.592 58.4745 27.4ZM64.7145 13.768C64.7145 14.1947 64.8532 14.5253 65.1305 14.76C65.4078 14.9947 65.7918 15.112 66.2825 15.112H72.5865C73.0132 15.112 73.4078 14.9947 73.7705 14.76C74.1332 14.5253 74.4425 14.216 74.6985 13.832C74.9758 13.4267 75.1892 12.9467 75.3385 12.392C75.4878 11.8373 75.5625 11.24 75.5625 10.6C75.5625 8.72267 74.7305 7.784 73.0665 7.784H65.6425C65.0238 7.784 64.7145 8.09333 64.7145 8.712V13.768ZM98.92 20.648C98.9413 21.3947 99.336 21.768 100.104 21.768H102.312C103.08 21.768 103.475 21.3947 103.496 20.648L103.624 14.824H98.792L98.92 20.648ZM98.44 26.088C97.16 26.088 96.168 25.768 95.464 25.128C94.76 24.488 94.3867 23.592 94.344 22.44L93.864 4.808C93.8427 4.488 93.928 4.24267 94.12 4.072C94.312 3.88 94.5787 3.784 94.92 3.784H97.448C98.152 3.784 98.5147 4.09333 98.536 4.712L98.664 10.504H103.752L103.88 4.712C103.88 4.09333 104.243 3.784 104.968 3.784H107.496C108.243 3.784 108.595 4.12533 108.552 4.808L108.072 22.44C108.029 23.592 107.656 24.488 106.952 25.128C106.248 25.768 105.256 26.088 103.976 26.088H98.44ZM112.488 2.824C112.488 2.12 112.84 1.768 113.544 1.768H116.072C116.776 1.768 117.128 2.12 117.128 2.824V29.384C117.128 30.088 116.776 30.44 116.072 30.44H113.544C112.84 30.44 112.488 30.088 112.488 29.384V16.104C112.125 16.7013 111.485 17 110.568 17H110.088C109.427 17 109.096 16.6693 109.096 16.008V13.512C109.096 12.8507 109.427 12.52 110.088 12.52H110.696C111.251 12.52 111.688 12.3707 112.008 12.072C112.328 11.752 112.488 11.336 112.488 10.824V2.824ZM134.588 2.504C135.292 2.504 135.644 2.856 135.644 3.56V5.768C135.644 6.472 135.292 6.824 134.588 6.824H130.524V8.616C130.524 10.152 130.918 11.3467 131.708 12.2C132.518 13.032 133.553 13.448 134.812 13.448C135.473 13.448 135.804 13.7573 135.804 14.376V16.776C135.804 17.4373 135.473 17.768 134.812 17.768C134.044 17.768 133.308 17.6827 132.604 17.512C131.921 17.32 131.292 17.0533 130.716 16.712C130.14 16.3707 129.638 15.944 129.212 15.432C128.785 14.8987 128.465 14.3013 128.252 13.64C127.804 14.984 126.972 16.008 125.756 16.712C124.54 17.416 123.153 17.768 121.596 17.768C120.892 17.768 120.54 17.4373 120.54 16.776V14.376C120.54 13.7573 120.892 13.448 121.596 13.448C122.854 13.448 123.878 13.032 124.668 12.2C125.478 11.3467 125.884 10.152 125.884 8.616V6.824H121.756C121.052 6.824 120.7 6.472 120.7 5.768V3.56C120.7 2.856 121.052 2.504 121.756 2.504H134.588ZM131.132 30.92C128.678 30.92 126.78 30.3653 125.436 29.256C124.113 28.168 123.452 26.6107 123.452 24.584C123.452 23.7733 123.473 23.1547 123.516 22.728C123.558 22.28 123.601 21.864 123.644 21.48C123.686 21.1387 123.782 20.8827 123.932 20.712C124.102 20.52 124.358 20.424 124.7 20.424H127.228C127.569 20.424 127.836 20.52 128.028 20.712C128.241 20.8827 128.326 21.1387 128.284 21.48C128.22 21.9707 128.166 22.3867 128.124 22.728C128.102 23.0693 128.092 23.4533 128.092 23.88C128.092 25.6933 129.297 26.6 131.708 26.6C133.884 26.6 135.996 26.5467 138.044 26.44C140.113 26.3333 142.001 26.1947 143.708 26.024C144.028 25.9813 144.262 26.056 144.412 26.248C144.582 26.44 144.678 26.696 144.7 27.016L144.86 29.352C144.881 29.9493 144.55 30.28 143.868 30.344C142.268 30.5147 140.444 30.6533 138.396 30.76C136.369 30.8667 133.948 30.92 131.132 30.92ZM139.356 11.304C139.014 11.88 138.406 12.168 137.532 12.168H136.156C135.494 12.168 135.164 11.8373 135.164 11.176V8.84C135.164 8.17867 135.494 7.848 136.156 7.848H137.66C138.79 7.848 139.356 7.31467 139.356 6.248V2.824C139.356 2.12 139.708 1.768 140.412 1.768H142.94C143.644 1.768 143.996 2.12 143.996 2.824V20.104C143.996 20.808 143.644 21.16 142.94 21.16H140.412C139.708 21.16 139.356 20.808 139.356 20.104V11.304Z" fill="url(#paint0_linear_3725_11591)"/>
<defs>
<linearGradient id="paint0_linear_3725_11591" x1="-1" y1="18" x2="147" y2="18" gradientUnits="userSpaceOnUse">
<stop stop-color="#6DC4FF"/>
<stop offset="0.625" stop-color="#00DD8E"/>
</linearGradient>
</defs>
</svg>
