<svg width="144" height="30" viewBox="0 0 144 30" fill="none" xmlns="http://www.w3.org/2000/svg">
<path d="M19.0336 1.824C19.0336 1.12 19.3856 0.768 20.0896 0.768H22.6176C23.3216 0.768 23.6736 1.12 23.6736 1.824V19.744C23.6736 20.448 23.3216 20.8 22.6176 20.8H20.0896C19.3856 20.8 19.0336 20.448 19.0336 19.744V1.824ZM7.86563 1.184C10.2336 1.184 12.079 1.87733 13.4016 3.264C14.7243 4.65067 15.3856 6.60267 15.3856 9.12C15.3856 11.6373 14.7136 13.6 13.3696 15.008C12.047 16.3947 10.2123 17.088 7.86563 17.088C6.71363 17.088 5.6683 16.9067 4.72963 16.544C3.81229 16.1813 3.02296 15.6587 2.36163 14.976C1.72163 14.2933 1.23096 13.4613 0.889628 12.48C0.548295 11.4773 0.377628 10.3573 0.377628 9.12C0.377628 6.60267 1.03896 4.65067 2.36163 3.264C3.68429 1.87733 5.51896 1.184 7.86563 1.184ZM4.95363 9.12C4.95363 10.3787 5.20963 11.328 5.72163 11.968C6.25496 12.608 6.96963 12.928 7.86563 12.928C8.76163 12.928 9.47629 12.608 10.0096 11.968C10.543 11.3067 10.8096 10.3573 10.8096 9.12C10.8096 7.904 10.543 6.976 10.0096 6.336C9.47629 5.67467 8.76163 5.344 7.86563 5.344C6.96963 5.344 6.25496 5.664 5.72163 6.304C5.20963 6.944 4.95363 7.88267 4.95363 9.12ZM10.8096 29.92C8.35629 29.92 6.45763 29.3653 5.11363 28.256C3.79096 27.168 3.12963 25.6107 3.12963 23.584C3.12963 22.7733 3.15096 22.1547 3.19363 21.728C3.2363 21.28 3.27896 20.864 3.32163 20.48C3.36429 20.1387 3.46029 19.8827 3.60963 19.712C3.78029 19.52 4.03629 19.424 4.37763 19.424H6.90563C7.24696 19.424 7.51363 19.52 7.70563 19.712C7.91896 19.8827 8.0043 20.1387 7.96163 20.48C7.89763 20.9707 7.84429 21.3867 7.80163 21.728C7.7803 22.0693 7.76963 22.4533 7.76963 22.88C7.76963 24.6933 8.97496 25.6 11.3856 25.6C13.5616 25.6 15.6736 25.5467 17.7216 25.44C19.791 25.3333 21.679 25.1947 23.3856 25.024C23.7056 24.9813 23.9403 25.056 24.0896 25.248C24.2603 25.44 24.3563 25.696 24.3776 26.016L24.5376 28.352C24.559 28.9493 24.2283 29.28 23.5456 29.344C21.9456 29.5147 20.1216 29.6533 18.0736 29.76C16.047 29.8667 13.6256 29.92 10.8096 29.92ZM49.8051 25.024C49.2291 25.024 48.6638 25.0133 48.1091 24.992C47.5545 24.992 46.9145 24.9813 46.1891 24.96C45.4851 24.96 44.6425 24.9493 43.6611 24.928C42.6798 24.928 41.4531 24.928 39.9811 24.928C38.8078 24.928 37.8585 24.9387 37.1331 24.96C36.4078 25.0027 35.8425 25.056 35.4371 25.12C35.0531 25.184 34.7865 25.2693 34.6371 25.376C34.5091 25.4827 34.4451 25.6213 34.4451 25.792C34.4451 25.9627 34.5305 26.1013 34.7011 26.208C34.8718 26.3147 35.2131 26.3893 35.7251 26.432C36.2371 26.496 36.9731 26.528 37.9331 26.528C38.8931 26.5493 40.1625 26.56 41.7411 26.56C42.4025 26.56 43.1278 26.5493 43.9171 26.528C44.7065 26.5067 45.4958 26.464 46.2851 26.4C47.0958 26.3573 47.8638 26.304 48.5891 26.24C49.3145 26.176 49.9438 26.0907 50.4771 25.984C51.0318 25.8773 51.3305 26.1013 51.3731 26.656L51.5331 28.512C51.5758 29.0027 51.3305 29.28 50.7971 29.344C50.2211 29.4293 49.5491 29.504 48.7811 29.568C48.0131 29.632 47.2131 29.6853 46.3811 29.728C45.5705 29.792 44.7598 29.8347 43.9491 29.856C43.1598 29.8987 42.4345 29.92 41.7731 29.92C39.4691 29.92 37.5491 29.856 36.0131 29.728C34.4771 29.6213 33.2505 29.408 32.3331 29.088C31.4158 28.7893 30.7651 28.3627 30.3811 27.808C29.9971 27.2747 29.8051 26.5813 29.8051 25.728C29.8051 24.896 29.9971 24.2133 30.3811 23.68C30.7865 23.1253 31.4051 22.6987 32.2371 22.4C33.0691 22.08 34.1145 21.8667 35.3731 21.76C36.6531 21.632 38.1678 21.568 39.9171 21.568C40.8131 21.568 41.7198 21.568 42.6371 21.568C43.5758 21.5467 44.3971 21.536 45.1011 21.536C45.8905 21.536 46.2851 21.3227 46.2851 20.896C46.2851 20.448 45.9118 20.224 45.1651 20.224C44.3971 20.224 43.4158 20.2347 42.2211 20.256C41.0478 20.2773 39.7998 20.32 38.4771 20.384C37.1758 20.4267 35.8851 20.48 34.6051 20.544C33.3251 20.608 32.2158 20.6827 31.2771 20.768C30.7225 20.8107 30.4451 20.5547 30.4451 20V18.144C30.4451 17.6533 30.7225 17.3973 31.2771 17.376C32.4931 17.2907 33.7945 17.216 35.1811 17.152C36.5891 17.088 38.0078 17.0347 39.4371 16.992C40.8878 16.9493 42.3171 16.928 43.7251 16.928C45.1331 16.928 46.4558 16.9493 47.6931 16.992C48.7171 17.0347 49.5065 17.248 50.0611 17.632C50.6158 17.9947 50.8931 18.56 50.8931 19.328C50.8931 19.9467 50.7225 20.48 50.3811 20.928C50.0611 21.3547 49.6131 21.664 49.0371 21.856H49.8051C50.0398 21.856 50.2318 21.92 50.3811 22.048C50.5518 22.176 50.6371 22.3573 50.6371 22.592V24.256C50.6371 24.4907 50.5625 24.672 50.4131 24.8C50.2638 24.9493 50.0611 25.024 49.8051 25.024ZM28.6211 15.744C28.2585 15.7013 28.0025 15.6053 27.8531 15.456C27.7038 15.3067 27.6291 15.0827 27.6291 14.784V13.088C27.6291 12.4267 27.9598 12.128 28.6211 12.192C29.2398 12.2347 29.9331 12.2773 30.7011 12.32C31.4691 12.3627 32.2798 12.3947 33.1331 12.416C33.9865 12.4373 34.8611 12.4587 35.7571 12.48C36.6531 12.48 37.5278 12.48 38.3811 12.48C38.0398 12.2667 37.8691 11.936 37.8691 11.488V10.976C37.8691 10.3147 38.1998 9.984 38.8611 9.984H41.5491C42.1891 9.984 42.5091 10.3147 42.5091 10.976V11.584C42.5091 12.1387 42.8185 12.4267 43.4371 12.448C43.8851 12.4693 44.4505 12.48 45.1331 12.48C45.8158 12.48 46.5411 12.4693 47.3091 12.448C48.0771 12.4053 48.8451 12.3627 49.6131 12.32C50.4025 12.2773 51.1065 12.2347 51.7251 12.192C52.4078 12.128 52.7491 12.4267 52.7491 13.088V14.784C52.7491 15.0827 52.6745 15.3067 52.5251 15.456C52.3758 15.6053 52.1198 15.7013 51.7571 15.744C51.2665 15.7867 50.6158 15.8293 49.8051 15.872C49.0158 15.8933 48.1091 15.9147 47.0851 15.936C46.0825 15.9573 44.9945 15.9787 43.8211 16C42.6478 16 41.4318 16 40.1731 16C37.9118 16 35.7678 15.9893 33.7411 15.968C31.7358 15.9253 30.0291 15.8507 28.6211 15.744ZM40.3331 7.072C39.9918 7.648 39.5011 8.18133 38.8611 8.672C38.2425 9.16267 37.5278 9.58933 36.7171 9.952C35.9065 10.3147 35.0105 10.592 34.0291 10.784C33.0691 10.976 32.0665 11.0507 31.0211 11.008C30.3171 10.9653 29.9651 10.6347 29.9651 10.016V8.256C29.9651 7.63733 30.3171 7.328 31.0211 7.328C32.1091 7.328 33.0798 7.21067 33.9331 6.976C34.8078 6.72 35.5438 6.38933 36.1411 5.984C36.7598 5.57867 37.2291 5.10933 37.5491 4.576C37.8691 4.04267 38.0291 3.488 38.0291 2.912V2.528C38.0291 1.824 38.3811 1.472 39.0851 1.472H41.6131C42.3171 1.472 42.6691 1.824 42.6691 2.528V2.912C42.6691 3.50933 42.8291 4.07467 43.1491 4.608C43.4691 5.14133 43.9278 5.61067 44.5251 6.016C45.1225 6.42133 45.8478 6.74133 46.7011 6.976C47.5545 7.21067 48.5251 7.328 49.6131 7.328C50.3171 7.328 50.6691 7.63733 50.6691 8.256V10.016C50.6691 10.6347 50.3171 10.9653 49.6131 11.008C48.5678 11.0507 47.5545 10.976 46.5731 10.784C45.6131 10.592 44.7278 10.3147 43.9171 9.952C43.1065 9.58933 42.3918 9.16267 41.7731 8.672C41.1545 8.18133 40.6745 7.648 40.3331 7.072ZM69.6019 2.784C70.3059 2.784 70.6579 3.136 70.6579 3.84V6.048C70.6579 6.752 70.3059 7.104 69.6019 7.104H65.3779V14.464C65.3779 15.296 65.4952 16.0747 65.7299 16.8C65.9645 17.5253 66.2739 18.1653 66.6579 18.72C67.0632 19.2747 67.5325 19.7333 68.0659 20.096C68.6205 20.4587 69.2072 20.6827 69.8259 20.768C70.4872 20.8533 70.8179 21.1947 70.8179 21.792V24.192C70.8179 24.8747 70.4872 25.1733 69.8259 25.088C69.0365 24.9813 68.2792 24.7787 67.5539 24.48C66.8285 24.1813 66.1672 23.808 65.5699 23.36C64.9939 22.912 64.4925 22.4 64.0659 21.824C63.6392 21.2267 63.3192 20.576 63.1059 19.872C62.8925 20.576 62.5619 21.2267 62.1139 21.824C61.6872 22.4 61.1752 22.912 60.5779 23.36C59.9805 23.808 59.3192 24.1813 58.5939 24.48C57.8685 24.7787 57.1005 24.9813 56.2899 25.088C55.9485 25.1307 55.6819 25.0667 55.4899 24.896C55.3192 24.7467 55.2339 24.512 55.2339 24.192V21.792C55.2339 21.1947 55.5859 20.8533 56.2899 20.768C56.9085 20.6827 57.4845 20.4587 58.0179 20.096C58.5725 19.7333 59.0525 19.2747 59.4579 18.72C59.8632 18.1653 60.1725 17.5253 60.3859 16.8C60.6205 16.0747 60.7379 15.296 60.7379 14.464V7.104H56.4499C55.7459 7.104 55.3939 6.752 55.3939 6.048V3.84C55.3939 3.136 55.7459 2.784 56.4499 2.784H69.6019ZM78.0499 28.384C78.0499 29.088 77.6979 29.44 76.9939 29.44H74.4659C73.7619 29.44 73.4099 29.088 73.4099 28.384V1.824C73.4099 1.12 73.7619 0.768 74.4659 0.768H76.9939C77.6979 0.768 78.0499 1.12 78.0499 1.824V12.544C78.2205 12.2667 78.4765 12.0533 78.8179 11.904C79.1805 11.7333 79.5859 11.648 80.0339 11.648H81.0579C81.7192 11.648 82.0499 11.9787 82.0499 12.64V15.136C82.0499 15.7973 81.7192 16.128 81.0579 16.128H79.9059C79.3512 16.128 78.9032 16.2987 78.5619 16.64C78.2205 16.96 78.0499 17.376 78.0499 17.888V28.384ZM97.2794 19.648C97.3007 20.3947 97.6954 20.768 98.4634 20.768H100.671C101.439 20.768 101.834 20.3947 101.855 19.648L101.983 13.824H97.1514L97.2794 19.648ZM96.7994 25.088C95.5194 25.088 94.5274 24.768 93.8234 24.128C93.1194 23.488 92.746 22.592 92.7034 21.44L92.2234 3.808C92.202 3.488 92.2874 3.24267 92.4794 3.072C92.6714 2.88 92.938 2.784 93.2794 2.784H95.8074C96.5114 2.784 96.874 3.09333 96.8954 3.712L97.0234 9.504H102.111L102.239 3.712C102.239 3.09333 102.602 2.784 103.327 2.784H105.855C106.602 2.784 106.954 3.12533 106.911 3.808L106.431 21.44C106.389 22.592 106.015 23.488 105.311 24.128C104.607 24.768 103.615 25.088 102.335 25.088H96.7994ZM110.847 1.824C110.847 1.12 111.199 0.768 111.903 0.768H114.431C115.135 0.768 115.487 1.12 115.487 1.824V28.384C115.487 29.088 115.135 29.44 114.431 29.44H111.903C111.199 29.44 110.847 29.088 110.847 28.384V15.104C110.485 15.7013 109.845 16 108.927 16H108.447C107.786 16 107.455 15.6693 107.455 15.008V12.512C107.455 11.8507 107.786 11.52 108.447 11.52H109.055C109.61 11.52 110.047 11.3707 110.367 11.072C110.687 10.752 110.847 10.336 110.847 9.824V1.824ZM132.947 1.504C133.651 1.504 134.003 1.856 134.003 2.56V4.768C134.003 5.472 133.651 5.824 132.947 5.824H128.883V7.616C128.883 9.152 129.278 10.3467 130.067 11.2C130.878 12.032 131.912 12.448 133.171 12.448C133.832 12.448 134.163 12.7573 134.163 13.376V15.776C134.163 16.4373 133.832 16.768 133.171 16.768C132.403 16.768 131.667 16.6827 130.963 16.512C130.28 16.32 129.651 16.0533 129.075 15.712C128.499 15.3707 127.998 14.944 127.571 14.432C127.144 13.8987 126.824 13.3013 126.611 12.64C126.163 13.984 125.331 15.008 124.115 15.712C122.899 16.416 121.512 16.768 119.955 16.768C119.251 16.768 118.899 16.4373 118.899 15.776V13.376C118.899 12.7573 119.251 12.448 119.955 12.448C121.214 12.448 122.238 12.032 123.027 11.2C123.838 10.3467 124.243 9.152 124.243 7.616V5.824H120.115C119.411 5.824 119.059 5.472 119.059 4.768V2.56C119.059 1.856 119.411 1.504 120.115 1.504H132.947ZM129.491 29.92C127.038 29.92 125.139 29.3653 123.795 28.256C122.472 27.168 121.811 25.6107 121.811 23.584C121.811 22.7733 121.832 22.1547 121.875 21.728C121.918 21.28 121.96 20.864 122.003 20.48C122.046 20.1387 122.142 19.8827 122.291 19.712C122.462 19.52 122.718 19.424 123.059 19.424H125.587C125.928 19.424 126.195 19.52 126.387 19.712C126.6 19.8827 126.686 20.1387 126.643 20.48C126.579 20.9707 126.526 21.3867 126.483 21.728C126.462 22.0693 126.451 22.4533 126.451 22.88C126.451 24.6933 127.656 25.6 130.067 25.6C132.243 25.6 134.355 25.5467 136.403 25.44C138.472 25.3333 140.36 25.1947 142.067 25.024C142.387 24.9813 142.622 25.056 142.771 25.248C142.942 25.44 143.038 25.696 143.059 26.016L143.219 28.352C143.24 28.9493 142.91 29.28 142.227 29.344C140.627 29.5147 138.803 29.6533 136.755 29.76C134.728 29.8667 132.307 29.92 129.491 29.92ZM137.715 10.304C137.374 10.88 136.766 11.168 135.891 11.168H134.515C133.854 11.168 133.523 10.8373 133.523 10.176V7.84C133.523 7.17867 133.854 6.848 134.515 6.848H136.019C137.15 6.848 137.715 6.31467 137.715 5.248V1.824C137.715 1.12 138.067 0.768 138.771 0.768H141.299C142.003 0.768 142.355 1.12 142.355 1.824V19.104C142.355 19.808 142.003 20.16 141.299 20.16H138.771C138.067 20.16 137.715 19.808 137.715 19.104V10.304Z" fill="url(#paint0_linear_3380_3449)"/>
<defs>
<linearGradient id="paint0_linear_3380_3449" x1="-1" y1="17" x2="145" y2="17" gradientUnits="userSpaceOnUse">
<stop stop-color="#6DC4FF"/>
<stop offset="0.625" stop-color="#00DD8E"/>
</linearGradient>
</defs>
</svg>
