<svg width="25" height="25" viewBox="0 0 25 25" fill="none" xmlns="http://www.w3.org/2000/svg">
<g clip-path="url(#clip0_1444_7225)">
<path d="M20.6214 12.4996C20.6214 12.4959 20.6214 12.4928 20.6214 12.489C20.6202 11.8065 20.847 11.1434 21.3214 10.6521L22.4427 9.49215C22.7483 9.17652 22.807 8.69652 22.5877 8.3159L21.167 5.85527C20.9477 5.47465 20.502 5.2859 20.0758 5.39215L18.6052 5.75965C17.9102 5.9334 17.1745 5.8284 16.5552 5.46777L16.537 5.45715C15.9283 5.10277 15.4802 4.52652 15.2864 3.84902L14.867 2.38465C14.7464 1.96215 14.3602 1.6709 13.9208 1.6709H11.0795C10.6402 1.6709 10.2539 1.96215 10.1333 2.38465L9.68578 3.94777C9.50828 4.56715 9.10016 5.0959 8.53953 5.4134C8.48203 5.4459 8.42453 5.47965 8.36828 5.5134C7.80766 5.84902 7.13703 5.94527 6.50328 5.78652L4.92391 5.39215C4.49766 5.2859 4.05266 5.47465 3.83266 5.85527L2.41203 8.3159C2.19266 8.69652 2.25141 9.17652 2.55703 9.49215L3.67828 10.6521C4.15266 11.1434 4.38016 11.8059 4.37891 12.489C4.37891 12.4928 4.37891 12.4965 4.37891 12.4996C4.37891 12.5034 4.37891 12.5065 4.37891 12.5103C4.38016 13.1934 4.15266 13.8559 3.67828 14.3471L2.55703 15.5071C2.25141 15.8228 2.19266 16.3028 2.41203 16.6834L3.83266 19.144C4.05203 19.5246 4.49766 19.7134 4.92391 19.6071L6.50266 19.2128C7.13641 19.0546 7.80703 19.1503 8.36766 19.4859C8.42453 19.5203 8.48203 19.5534 8.53953 19.5859C9.10016 19.9034 9.50828 20.4321 9.68578 21.0515L10.1333 22.6146C10.2539 23.0371 10.6402 23.3284 11.0795 23.3284H13.9208C14.3602 23.3284 14.7464 23.0371 14.867 22.6146L15.3145 21.0515C15.492 20.4321 15.9002 19.9034 16.4608 19.5859C16.5183 19.5534 16.5758 19.5196 16.6327 19.4859C17.1933 19.1503 17.8639 19.054 18.4977 19.2128L20.0764 19.6071C20.5027 19.7134 20.9477 19.5246 21.1677 19.144L22.5883 16.6834C22.8077 16.3028 22.7489 15.8228 22.4433 15.5071L21.322 14.3471C20.8477 13.8565 20.6208 13.1934 20.622 12.5103C20.622 12.5065 20.6214 12.5034 20.6214 12.4996Z" fill="#A3ADB7"/>
<path d="M12.5004 17.0462C9.99348 17.0462 7.9541 15.0062 7.9541 12.5C7.9541 9.99375 9.9941 7.95312 12.5004 7.95312C15.0066 7.95312 17.0472 9.99312 17.0472 12.5C17.0472 15.0069 15.0072 17.0462 12.5004 17.0462ZM12.5004 9.8275C11.0279 9.8275 9.8291 11.0262 9.8291 12.4994C9.8291 13.9725 11.0279 15.1706 12.5004 15.1706C13.9729 15.1706 15.1722 13.9719 15.1722 12.4994C15.1722 11.0269 13.9735 9.8275 12.5004 9.8275Z" fill="#303D4C"/>
</g>
<defs>
<clipPath id="clip0_1444_7225">
<rect width="25" height="25" fill="white"/>
</clipPath>
</defs>
</svg>
