<svg width="60" height="60" viewBox="0 0 60 60" fill="none" xmlns="http://www.w3.org/2000/svg">
<path d="M42.6901 14.4863H17.3101C10.3021 14.4863 4.62012 20.1683 4.62012 27.1763V47.2598C4.62012 49.0568 6.07662 50.5148 7.87512 50.5148H52.1281C53.9251 50.5148 55.3831 49.0583 55.3831 47.2598V27.1763C55.3831 20.1668 49.7011 14.4863 42.6931 14.4863H42.6901Z" fill="#1E6EF4"/>
<path d="M18.0511 16.715C23.9701 17.0975 28.4476 22.2785 28.4476 28.2095V48.3095H8.29211C7.12211 48.3095 6.17261 47.36 6.17261 46.19V27.827C6.17261 21.431 11.5651 16.295 18.0511 16.715Z" fill="#082B9C"/>
<path d="M48.3826 6.42408C49.1911 5.80758 48.7546 4.51758 47.7391 4.51758H40.3051C39.7531 4.51758 39.3076 4.96458 39.3076 5.51508V27.1016C39.3076 28.0751 40.0966 28.8641 41.0701 28.8641C42.0436 28.8641 42.8326 28.0751 42.8326 27.1016V10.6541L48.3826 6.42408Z" fill="#0A37C7"/>
<path d="M26.6655 50.5156H34.6725V54.6541C34.6725 55.2466 34.191 55.7281 33.5985 55.7281H27.7395C27.147 55.7281 26.6655 55.2466 26.6655 54.6541V50.5156Z" fill="#0A37C7"/>
<path d="M14.4299 31.6426V44.5231C14.4299 45.4186 14.7539 46.2316 15.2744 46.8811L24.1889 39.7756L14.4314 31.6441L14.4299 31.6426Z" fill="#D0D5DA"/>
<path d="M25.8674 41.1729L24.1889 39.7734L15.2744 46.8789C15.9689 47.7444 17.0219 48.3099 18.2189 48.3099H28.4474V42.0759C27.5459 42.0759 26.6429 41.7744 25.8674 41.1729Z" fill="#E5E9EE"/>
<path d="M25.8674 41.1736C26.6444 41.7751 27.5459 42.0766 28.4459 42.0766V40.3261C27.5444 40.3261 26.6429 40.0591 25.8674 39.5236L14.4299 31.6426L24.1874 39.7741L25.8659 41.1736H25.8674Z" fill="#AFB7C0"/>
<path d="M28.4474 40.3254V28.2099C28.4474 27.5754 28.3859 26.9514 28.2869 26.3379H18.2189C16.1264 26.3379 14.4299 28.0344 14.4299 30.1269V31.6419L25.8674 39.5229C26.6444 40.0584 27.5474 40.3254 28.4474 40.3254Z" fill="#E5E9EE"/>
</svg>
