<svg width="110" height="132" viewBox="0 0 110 132" fill="none" xmlns="http://www.w3.org/2000/svg">
<path d="M25.1273 130.2C22.3273 129.9 19.5273 129.1 16.7273 127.8C14.0273 126.5 11.5773 124.75 9.37734 122.55C7.17734 120.35 5.32734 117.7 3.82734 114.6C2.42734 111.5 1.57734 108 1.27734 104.1C0.477344 91.1 0.127344 78.5 0.227344 66.3C0.427344 54.1 0.827344 41.4 1.42734 28.2C1.62734 24.2 2.42734 20.65 3.82734 17.55C5.32734 14.45 7.17734 11.8 9.37734 9.6C11.5773 7.4 14.0273 5.69999 16.7273 4.49999C19.5273 3.2 22.3273 2.4 25.1273 2.1C28.9273 1.69999 32.9773 1.4 37.2773 1.2C41.6773 0.899996 46.1273 0.749995 50.6273 0.749995C59.1273 0.649996 66.9273 1.75 74.0273 4.05C81.2274 6.35 87.4274 10.05 92.6274 15.15C97.8273 20.15 101.877 26.65 104.777 34.65C107.677 42.65 109.127 52.3 109.127 63.6C109.127 74.9 107.677 84.8 104.777 93.3C101.877 101.7 97.8273 108.75 92.6274 114.45C87.5274 120.05 81.3773 124.3 74.1773 127.2C67.0773 130.1 59.3273 131.55 50.9273 131.55C46.4273 131.55 41.9773 131.4 37.5773 131.1C33.1773 130.9 29.0273 130.6 25.1273 130.2ZM49.8773 72.6C49.5773 73.2 49.5773 73.75 49.8773 74.25C50.2773 74.75 50.7773 75.15 51.3773 75.45C51.9773 75.65 52.6273 75.7 53.3273 75.6C54.0273 75.4 54.6273 74.95 55.1273 74.25C57.1273 71.35 58.4773 68 59.1773 64.2C59.9773 60.4 60.4273 56.65 60.5273 52.95C60.5273 52.05 60.2273 51.4 59.6273 51C59.1273 50.5 58.5273 50.25 57.8273 50.25C57.2273 50.15 56.6273 50.25 56.0273 50.55C55.5273 50.85 55.2773 51.3 55.2773 51.9C55.0773 55.6 54.5773 59.1 53.7773 62.4C52.9773 65.6 51.6773 69 49.8773 72.6Z" fill="url(#paint0_linear_1835_6101)"/>
<defs>
<linearGradient id="paint0_linear_1835_6101" x1="-5.5" y1="65.5" x2="113.5" y2="65.5" gradientUnits="userSpaceOnUse">
<stop stop-color="#6DC4FF"/>
<stop offset="0.625" stop-color="#00DD8E"/>
</linearGradient>
</defs>
</svg>
