<svg width="235" height="22" viewBox="0 0 235 22" fill="none" xmlns="http://www.w3.org/2000/svg">
<path d="M10.7856 17.3C11.2923 17.3 11.719 17.1467 12.0656 16.84C12.4123 16.5333 12.5856 16.14 12.5856 15.66C12.5856 15.2467 12.479 14.9733 12.2656 14.84C12.0523 14.6933 11.7123 14.62 11.2456 14.62H5.48563C5.16563 14.62 5.00563 14.78 5.00563 15.1V16.66C5.00563 16.86 5.07229 17.0133 5.20563 17.12C5.35229 17.24 5.54563 17.3 5.78563 17.3H10.7856ZM5.74563 9.2C6.47896 9.2 7.00563 9.12667 7.32563 8.98C7.64563 8.82 7.80563 8.56667 7.80563 8.22C7.80563 7.87333 7.64563 7.62667 7.32563 7.48C7.00563 7.32 6.47896 7.24 5.74563 7.24C5.01229 7.24 4.48563 7.32 4.16563 7.48C3.84563 7.62667 3.68563 7.87333 3.68563 8.22C3.68563 8.56667 3.84563 8.82 4.16563 8.98C4.48563 9.12667 5.01229 9.2 5.74563 9.2ZM14.6656 17.3C14.999 17.3 15.1656 17.4667 15.1656 17.8V18.9C15.1656 19.2333 14.999 19.4 14.6656 19.4H4.76563C4.12563 19.4 3.61896 19.2467 3.24563 18.94C2.88563 18.6333 2.70563 18.2 2.70563 17.64V13.46C2.70563 12.8333 3.01229 12.52 3.62563 12.52H12.4456C13.2323 12.52 13.8323 12.6933 14.2456 13.04C14.6723 13.3733 14.8856 13.9 14.8856 14.62C14.8856 15.1933 14.7323 15.7133 14.4256 16.18C14.119 16.66 13.7256 17.0333 13.2456 17.3H14.6656ZM1.38563 8.22C1.38563 6.23333 2.83896 5.24 5.74563 5.24C8.65229 5.24 10.1056 6.23333 10.1056 8.22C10.1056 10.2067 8.65229 11.2 5.74563 11.2C2.83896 11.2 1.38563 10.2067 1.38563 8.22ZM10.2256 2.24C10.559 2.24 10.7256 2.40667 10.7256 2.74V3.8C10.7256 4.13333 10.559 4.3 10.2256 4.3H1.28563C0.952292 4.3 0.785625 4.13333 0.785625 3.8V2.74C0.785625 2.40667 0.952292 2.24 1.28563 2.24H4.96563C4.76563 2.13333 4.66563 1.95333 4.66563 1.7V1.2C4.66563 0.866666 4.83229 0.699999 5.16563 0.699999H6.46563C6.79896 0.699999 6.96563 0.866666 6.96563 1.2V1.88C6.96563 2.12 7.10563 2.24 7.38563 2.24H10.2256ZM14.7456 10.56C14.7456 10.92 14.5723 11.1 14.2256 11.1H12.9656C12.619 11.1 12.4456 10.92 12.4456 10.56V2.12C12.4456 1.76 12.619 1.58 12.9656 1.58H14.2256C14.5723 1.58 14.7456 1.76 14.7456 2.12V5.38C14.8923 5.11333 15.1656 4.98 15.5656 4.98H16.7456C17.079 4.98 17.2456 5.14667 17.2456 5.48V6.58C17.2456 6.91333 17.079 7.08 16.7456 7.08H15.4456C14.979 7.08 14.7456 7.29333 14.7456 7.72V10.56ZM21.828 16.12C21.788 16.4267 21.608 16.58 21.288 16.58H20.108C19.748 16.58 19.588 16.4067 19.628 16.06C19.748 15.2067 19.848 14.34 19.928 13.46C20.0213 12.58 20.1013 11.7133 20.168 10.86C20.2346 10.0067 20.2813 9.18 20.308 8.38C20.348 7.56667 20.368 6.8 20.368 6.08C20.368 5.70667 20.3146 5.44 20.208 5.28C20.1013 5.12 19.9346 5.04 19.708 5.04C19.5613 5.04 19.388 5.06667 19.188 5.12C19.0013 5.16 18.7746 5.23333 18.508 5.34C18.3613 5.39333 18.2346 5.38667 18.128 5.32C18.0346 5.24 17.988 5.11333 17.988 4.94V3.8C17.988 3.46667 18.128 3.24667 18.408 3.14C18.7013 3.02 18.9746 2.94 19.228 2.9C19.4813 2.86 19.748 2.84 20.028 2.84C20.9346 2.84 21.5946 3.13333 22.008 3.72C22.0213 3.42667 22.1613 3.23333 22.428 3.14C22.7213 3.03333 22.9946 2.96 23.248 2.92C23.5013 2.86667 23.7813 2.84 24.088 2.84C25.8213 2.84 26.688 3.89333 26.688 6C26.688 6.42667 26.6813 6.84667 26.668 7.26C26.668 7.67333 26.6613 8.08667 26.648 8.5H28.088C28.3146 8.5 28.468 8.46 28.548 8.38C28.6413 8.3 28.688 8.16 28.688 7.96V2.28C28.688 1.94667 28.8546 1.78 29.188 1.78H30.388C30.7213 1.78 30.888 1.94667 30.888 2.28V18.8C30.888 19.1333 30.7213 19.3 30.388 19.3H29.188C28.8546 19.3 28.688 19.1333 28.688 18.8V10.34C28.6213 10.4467 28.528 10.5333 28.408 10.6C28.288 10.6667 28.1546 10.7 28.008 10.7H26.528C26.4613 11.5267 26.3813 12.38 26.288 13.26C26.208 14.14 26.0946 15.0933 25.948 16.12C25.9213 16.2933 25.868 16.4133 25.788 16.48C25.7213 16.5467 25.5946 16.58 25.408 16.58H24.228C23.868 16.58 23.708 16.4067 23.748 16.06C23.988 14.34 24.168 12.6067 24.288 10.86C24.4213 9.11333 24.488 7.52 24.488 6.08C24.488 5.38667 24.2546 5.04 23.788 5.04C23.6013 5.04 23.408 5.06667 23.208 5.12C23.008 5.16 22.7813 5.23333 22.528 5.34C22.5413 5.44667 22.548 5.55333 22.548 5.66C22.5613 5.76667 22.568 5.88 22.568 6C22.568 6.8 22.5546 7.59333 22.528 8.38C22.5013 9.15333 22.4546 9.94667 22.388 10.76C22.3346 11.5733 22.2613 12.42 22.168 13.3C22.0746 14.18 21.9613 15.12 21.828 16.12ZM34.288 18.8C34.288 19.1333 34.1213 19.3 33.788 19.3H32.588C32.2546 19.3 32.088 19.1333 32.088 18.8V2.08C32.088 1.74667 32.2546 1.58 32.588 1.58H33.788C34.1213 1.58 34.288 1.74667 34.288 2.08V18.8ZM42.2488 14.62C43.3021 14.62 44.4021 14.3733 45.5488 13.88C45.6288 13.84 45.7021 13.82 45.7688 13.82C45.9288 13.82 46.0488 13.9333 46.1288 14.16L46.4888 15.36C46.5821 15.6533 46.4621 15.86 46.1288 15.98C45.3288 16.26 44.5754 16.46 43.8688 16.58C43.1754 16.7133 42.4821 16.78 41.7888 16.78C38.6288 16.78 37.0488 15.38 37.0488 12.58C37.0488 11.2067 37.4354 10.1933 38.2088 9.54C38.9954 8.88667 40.2021 8.56 41.8288 8.56C42.4421 8.56 42.8888 8.42 43.1688 8.14C43.4488 7.84667 43.5888 7.4 43.5888 6.8C43.5888 6.16 43.4354 5.7 43.1288 5.42C42.8354 5.14 42.3488 5 41.6688 5C40.9221 5 39.7488 5.1 38.1488 5.3C37.8154 5.34 37.6488 5.2 37.6488 4.88V3.6C37.6488 3.30667 37.8021 3.14 38.1088 3.1C38.4688 3.04667 38.8088 3.00667 39.1288 2.98C39.4488 2.94 39.7688 2.91333 40.0888 2.9C40.4088 2.87333 40.7354 2.86 41.0688 2.86C41.4154 2.84667 41.7954 2.84 42.2088 2.84C44.6621 2.84 45.8888 3.81333 45.8888 5.76C45.8888 6.38667 45.7821 6.95333 45.5688 7.46C45.3554 7.96667 45.0421 8.38 44.6288 8.7H45.2688C45.5754 8.7 45.7288 8.85333 45.7288 9.16V10.24C45.7288 10.5467 45.5754 10.7 45.2688 10.7C44.7354 10.7 44.2354 10.7 43.7688 10.7C43.3154 10.6867 42.9021 10.68 42.5288 10.68C41.3554 10.68 40.5288 10.8267 40.0488 11.12C39.5821 11.4133 39.3488 11.9267 39.3488 12.66C39.3488 13.3667 39.5688 13.8733 40.0088 14.18C40.4621 14.4733 41.2088 14.62 42.2488 14.62ZM50.4488 18.76C50.4488 19.12 50.2754 19.3 49.9288 19.3H48.6688C48.3221 19.3 48.1488 19.12 48.1488 18.76V2.12C48.1488 1.76 48.3221 1.58 48.6688 1.58H49.9288C50.2754 1.58 50.4488 1.76 50.4488 2.12V8.98C50.5954 8.71333 50.8688 8.58 51.2688 8.58H52.4488C52.7821 8.58 52.9488 8.74667 52.9488 9.08V10.28C52.9488 10.6133 52.7821 10.78 52.4488 10.78H51.1488C50.6821 10.78 50.4488 10.9933 50.4488 11.42V18.76ZM58.8911 12.96C58.7578 13.4267 58.5511 13.8667 58.2711 14.28C58.0044 14.6933 57.6844 15.06 57.3111 15.38C56.9378 15.7 56.5244 15.9667 56.0711 16.18C55.6311 16.3933 55.1711 16.5267 54.6911 16.58C54.3578 16.62 54.1911 16.4667 54.1911 16.12V14.92C54.1911 14.6 54.3444 14.42 54.6511 14.38C55.0778 14.3267 55.4778 14.1667 55.8511 13.9C56.2244 13.6333 56.5511 13.2933 56.8311 12.88C57.1111 12.4667 57.3311 11.9933 57.4911 11.46C57.6511 10.9267 57.7311 10.3733 57.7311 9.8V3.38C57.7311 3.02 57.9044 2.84 58.2511 2.84H59.5111C59.8578 2.84 60.0311 3.02 60.0311 3.38V9.8C60.0311 10.3733 60.1111 10.9267 60.2711 11.46C60.4444 11.9933 60.6711 12.4667 60.9511 12.88C61.2311 13.2933 61.5578 13.6333 61.9311 13.9C62.3044 14.1667 62.6978 14.3267 63.1111 14.38C63.4178 14.42 63.5711 14.6 63.5711 14.92V16.12C63.5711 16.4667 63.4044 16.62 63.0711 16.58C62.5911 16.5267 62.1244 16.3933 61.6711 16.18C61.2311 15.9667 60.8244 15.7 60.4511 15.38C60.0778 15.06 59.7511 14.6933 59.4711 14.28C59.2044 13.8667 59.0111 13.4267 58.8911 12.96ZM65.9511 2.12C65.9511 1.76 66.1244 1.58 66.4711 1.58H67.7311C68.0778 1.58 68.2511 1.76 68.2511 2.12V18.76C68.2511 19.12 68.0778 19.3 67.7311 19.3H66.4711C66.1244 19.3 65.9511 19.12 65.9511 18.76V9.3C65.8044 9.56667 65.5311 9.7 65.1311 9.7H63.0311C62.6978 9.7 62.5311 9.53333 62.5311 9.2V8C62.5311 7.66667 62.6978 7.5 63.0311 7.5H65.2511C65.7178 7.5 65.9511 7.28667 65.9511 6.86V2.12ZM78.8981 9.82C78.8981 11.4333 79.1648 12.6333 79.6981 13.42C80.2448 14.1933 81.0648 14.58 82.1581 14.58C83.0248 14.58 84.0381 14.3333 85.1981 13.84C85.2781 13.8133 85.3381 13.8 85.3781 13.8C85.5381 13.8 85.6648 13.94 85.7581 14.22L86.0981 15.36C86.1915 15.64 86.0515 15.8533 85.6781 16C85.0381 16.2533 84.4115 16.4467 83.7981 16.58C83.1981 16.7133 82.6048 16.78 82.0181 16.78C80.2048 16.78 78.8448 16.1933 77.9381 15.02C77.0448 13.8333 76.5981 12.1 76.5981 9.82C76.5981 7.40667 77.0648 5.64 77.9981 4.52C78.9315 3.4 80.3315 2.84 82.1981 2.84C82.7848 2.84 83.2781 2.85333 83.6781 2.88C84.0915 2.89333 84.4848 2.93333 84.8581 3C85.0581 3.02667 85.1915 3.08 85.2581 3.16C85.3381 3.22667 85.3781 3.34667 85.3781 3.52V4.72C85.3781 5.09333 85.2048 5.26 84.8581 5.22C84.4581 5.16667 84.0648 5.12667 83.6781 5.1C83.3048 5.06 82.8648 5.04 82.3581 5.04C81.7315 5.04 81.1981 5.12667 80.7581 5.3C80.3181 5.46 79.9581 5.73333 79.6781 6.12C79.4115 6.49333 79.2115 6.98667 79.0781 7.6C78.9581 8.2 78.8981 8.94 78.8981 9.82ZM88.1581 2.12C88.1581 1.76 88.3315 1.58 88.6781 1.58H89.9381C90.2848 1.58 90.4581 1.76 90.4581 2.12V18.76C90.4581 19.12 90.2848 19.3 89.9381 19.3H88.6781C88.3315 19.3 88.1581 19.12 88.1581 18.76V10.3C88.0115 10.5667 87.7381 10.7 87.3381 10.7H84.4381C84.1048 10.7 83.9381 10.5333 83.9381 10.2V9C83.9381 8.66667 84.1048 8.5 84.4381 8.5H87.4581C87.9248 8.5 88.1581 8.28667 88.1581 7.86V2.12ZM105.385 6.7C105.385 5.86 105.185 5.19333 104.785 4.7C104.398 4.19333 103.865 3.94 103.185 3.94C102.505 3.94 101.972 4.19333 101.585 4.7C101.198 5.19333 101.005 5.86 101.005 6.7C101.005 7.54 101.198 8.21333 101.585 8.72C101.985 9.22667 102.518 9.48 103.185 9.48C103.865 9.48 104.398 9.22667 104.785 8.72C105.185 8.21333 105.385 7.54 105.385 6.7ZM107.685 6.7C107.685 7.43333 107.578 8.10667 107.365 8.72C107.152 9.32 106.845 9.83333 106.445 10.26C106.058 10.6733 105.585 11 105.025 11.24C104.478 11.4667 103.865 11.58 103.185 11.58C102.505 11.58 101.892 11.4667 101.345 11.24C100.798 11 100.325 10.6733 99.9252 10.26C99.5385 9.83333 99.2385 9.32 99.0252 8.72C98.8118 8.10667 98.7052 7.43333 98.7052 6.7C98.7052 5.95333 98.8118 5.28667 99.0252 4.7C99.2385 4.1 99.5385 3.58667 99.9252 3.16C100.312 2.73333 100.778 2.40667 101.325 2.18C101.885 1.95333 102.505 1.84 103.185 1.84C103.865 1.84 104.478 1.95333 105.025 2.18C105.585 2.40667 106.058 2.73333 106.445 3.16C106.845 3.58667 107.152 4.1 107.365 4.7C107.578 5.28667 107.685 5.95333 107.685 6.7ZM112.265 13.36C112.265 13.72 112.092 13.9 111.745 13.9H110.485C110.138 13.9 109.965 13.72 109.965 13.36V2.12C109.965 1.76 110.138 1.58 110.485 1.58H111.745C112.092 1.58 112.265 1.76 112.265 2.12V6.78C112.412 6.51333 112.685 6.38 113.085 6.38H114.265C114.598 6.38 114.765 6.54667 114.765 6.88V7.98C114.765 8.31333 114.598 8.48 114.265 8.48H112.965C112.498 8.48 112.265 8.69333 112.265 9.12V13.36ZM100.545 13.66C100.612 13.3133 100.805 13.14 101.125 13.14H102.325C102.498 13.14 102.632 13.1933 102.725 13.3C102.832 13.3933 102.872 13.52 102.845 13.68C102.818 13.92 102.792 14.2133 102.765 14.56C102.738 14.9067 102.725 15.2733 102.725 15.66C102.725 16.26 102.905 16.7133 103.265 17.02C103.625 17.34 104.112 17.5 104.725 17.5C105.565 17.5 106.312 17.4933 106.965 17.48C107.632 17.4667 108.252 17.44 108.825 17.4C109.412 17.3733 109.972 17.34 110.505 17.3C111.052 17.26 111.618 17.2133 112.205 17.16C112.525 17.12 112.698 17.28 112.725 17.64L112.805 18.74C112.818 19.0333 112.658 19.2 112.325 19.24C111.325 19.3467 110.212 19.4333 108.985 19.5C107.772 19.5667 106.385 19.6 104.825 19.6C103.425 19.6 102.338 19.2733 101.565 18.62C100.805 17.9667 100.425 17.0533 100.425 15.88C100.425 15.4533 100.432 15.04 100.445 14.64C100.472 14.24 100.505 13.9133 100.545 13.66ZM116.608 4.14C116.274 4.14 116.108 3.97333 116.108 3.64V2.54C116.108 2.20667 116.274 2.04 116.608 2.04H124.808C125.141 2.04 125.308 2.20667 125.308 2.54V3.64C125.308 3.97333 125.141 4.14 124.808 4.14H121.848V5.36C121.848 5.92 121.921 6.44 122.068 6.92C122.228 7.38667 122.441 7.8 122.708 8.16C122.974 8.50667 123.294 8.78 123.668 8.98C124.041 9.18 124.448 9.28 124.888 9.28C125.221 9.28 125.388 9.44667 125.388 9.78V10.88C125.388 11.2133 125.221 11.38 124.888 11.38C124.368 11.38 123.881 11.3 123.428 11.14C122.988 10.98 122.588 10.7667 122.228 10.5C121.868 10.22 121.554 9.90667 121.288 9.56C121.034 9.2 120.841 8.82 120.708 8.42C120.574 8.82 120.374 9.2 120.108 9.56C119.854 9.90667 119.548 10.22 119.188 10.5C118.828 10.7667 118.421 10.98 117.968 11.14C117.514 11.3 117.028 11.38 116.507 11.38C116.174 11.38 116.008 11.2133 116.008 10.88V9.78C116.008 9.44667 116.174 9.28 116.507 9.28C116.948 9.28 117.354 9.18 117.728 8.98C118.101 8.78 118.421 8.50667 118.688 8.16C118.954 7.8 119.161 7.38667 119.308 6.92C119.468 6.44 119.548 5.92 119.548 5.36V4.14H116.608ZM117.948 13.66C118.014 13.3133 118.208 13.14 118.528 13.14H119.728C119.901 13.14 120.034 13.1933 120.128 13.3C120.234 13.3933 120.274 13.52 120.248 13.68C120.221 13.92 120.194 14.2133 120.168 14.56C120.141 14.9067 120.128 15.2733 120.128 15.66C120.128 16.26 120.308 16.7133 120.668 17.02C121.028 17.34 121.514 17.5 122.128 17.5C123.008 17.5 123.801 17.4933 124.508 17.48C125.228 17.4667 125.894 17.44 126.508 17.4C127.121 17.3733 127.708 17.34 128.268 17.3C128.841 17.26 129.421 17.2133 130.008 17.16C130.328 17.12 130.501 17.28 130.528 17.64L130.608 18.74C130.621 19.0333 130.461 19.2 130.128 19.24C129.128 19.3467 127.974 19.4333 126.668 19.5C125.374 19.5667 123.894 19.6 122.228 19.6C120.828 19.6 119.741 19.2733 118.968 18.62C118.208 17.9667 117.827 17.0533 117.827 15.88C117.827 15.4533 117.834 15.04 117.848 14.64C117.874 14.24 117.908 13.9133 117.948 13.66ZM127.768 2.12C127.768 1.76 127.941 1.58 128.288 1.58H129.548C129.894 1.58 130.068 1.76 130.068 2.12V13.36C130.068 13.72 129.894 13.9 129.548 13.9H128.288C127.941 13.9 127.768 13.72 127.768 13.36V7.32C127.621 7.58667 127.348 7.72 126.947 7.72H125.548C125.214 7.72 125.048 7.55333 125.048 7.22V6.12C125.048 5.78667 125.214 5.62 125.548 5.62H127.068C127.534 5.62 127.768 5.40667 127.768 4.98V2.12ZM137.269 9.96C138.002 9.96 138.529 9.86 138.849 9.66C139.169 9.44667 139.329 9.12667 139.329 8.7C139.329 8.27333 139.169 7.96 138.849 7.76C138.529 7.54667 138.002 7.44 137.269 7.44C136.536 7.44 136.009 7.54667 135.689 7.76C135.369 7.96 135.209 8.27333 135.209 8.7C135.209 9.12667 135.369 9.44667 135.689 9.66C136.009 9.86 136.536 9.96 137.269 9.96ZM132.909 8.7C132.909 6.5 134.362 5.4 137.269 5.4C140.176 5.4 141.629 6.5 141.629 8.7C141.629 10.9 140.176 12 137.269 12C134.362 12 132.909 10.9 132.909 8.7ZM146.269 13.36C146.269 13.72 146.096 13.9 145.749 13.9H144.489C144.142 13.9 143.969 13.72 143.969 13.36V2.12C143.969 1.76 144.142 1.58 144.489 1.58H145.749C146.096 1.58 146.269 1.76 146.269 2.12V6.78C146.416 6.51333 146.689 6.38 147.089 6.38H148.269C148.602 6.38 148.769 6.54667 148.769 6.88V7.98C148.769 8.31333 148.602 8.48 148.269 8.48H146.969C146.502 8.48 146.269 8.69333 146.269 9.12V13.36ZM141.749 2.24C142.082 2.24 142.249 2.40667 142.249 2.74V3.84C142.249 4.17333 142.082 4.34 141.749 4.34H132.809C132.476 4.34 132.309 4.17333 132.309 3.84V2.74C132.309 2.40667 132.476 2.24 132.809 2.24H136.489C136.289 2.13333 136.189 1.95333 136.189 1.7V1.2C136.189 0.866666 136.356 0.699999 136.689 0.699999H137.989C138.322 0.699999 138.489 0.866666 138.489 1.2V1.88C138.489 2.12 138.629 2.24 138.909 2.24H141.749ZM134.549 14.06C134.616 13.7133 134.809 13.54 135.129 13.54H136.329C136.502 13.54 136.636 13.5933 136.729 13.7C136.836 13.7933 136.876 13.92 136.849 14.08C136.822 14.32 136.796 14.56 136.769 14.8C136.742 15.04 136.729 15.3267 136.729 15.66C136.729 16.26 136.909 16.7133 137.269 17.02C137.629 17.34 138.116 17.5 138.729 17.5C139.569 17.5 140.316 17.4933 140.969 17.48C141.636 17.4667 142.256 17.44 142.829 17.4C143.416 17.3733 143.976 17.34 144.509 17.3C145.056 17.26 145.622 17.2133 146.209 17.16C146.529 17.12 146.702 17.28 146.729 17.64L146.809 18.74C146.822 19.0333 146.662 19.2 146.329 19.24C145.329 19.3467 144.216 19.4333 142.989 19.5C141.776 19.5667 140.389 19.6 138.829 19.6C137.429 19.6 136.342 19.2733 135.569 18.62C134.809 17.9667 134.429 17.0533 134.429 15.88C134.429 15.16 134.469 14.5533 134.549 14.06ZM168.717 4.3C168.13 4.26 167.61 4.23333 167.157 4.22C166.704 4.19333 166.297 4.17333 165.937 4.16C165.577 4.14667 165.25 4.14 164.957 4.14C164.664 4.12667 164.384 4.12 164.117 4.12C163.224 4.12 162.484 4.14 161.897 4.18C161.31 4.20667 160.837 4.26667 160.477 4.36C160.13 4.45333 159.884 4.57333 159.737 4.72C159.59 4.86667 159.517 5.05333 159.517 5.28C159.517 5.52 159.577 5.72 159.697 5.88C159.817 6.04 160.03 6.16667 160.337 6.26C160.657 6.34 161.077 6.4 161.597 6.44C162.13 6.48 162.797 6.5 163.597 6.5C164.397 6.5 165.257 6.46667 166.177 6.4C167.097 6.33333 168.004 6.24667 168.897 6.14C169.217 6.1 169.39 6.26 169.417 6.62L169.497 7.72C169.51 8.01333 169.35 8.18 169.017 8.22C167.897 8.35333 166.924 8.45333 166.097 8.52C165.27 8.57333 164.537 8.6 163.897 8.6C162.67 8.6 161.63 8.54 160.777 8.42C159.937 8.3 159.25 8.11333 158.717 7.86C158.184 7.59333 157.797 7.25333 157.557 6.84C157.33 6.41333 157.217 5.89333 157.217 5.28C157.217 4.68 157.337 4.17333 157.577 3.76C157.817 3.33333 158.21 2.99333 158.757 2.74C159.304 2.48667 160.017 2.30667 160.897 2.2C161.79 2.08 162.884 2.02 164.177 2.02C164.457 2.02 164.73 2.02667 164.997 2.04C165.277 2.04 165.584 2.05333 165.917 2.08C166.264 2.09333 166.664 2.11333 167.117 2.14C167.57 2.15333 168.11 2.18 168.737 2.22C169.07 2.23333 169.237 2.40667 169.237 2.74V3.82C169.237 4.16667 169.064 4.32667 168.717 4.3ZM157.117 16.18C157.117 15.0067 157.65 14.1467 158.717 13.6C159.784 13.04 161.43 12.76 163.657 12.76C165.884 12.76 167.53 13.04 168.597 13.6C169.664 14.1467 170.197 15.0067 170.197 16.18C170.197 17.3533 169.664 18.22 168.597 18.78C167.53 19.34 165.884 19.62 163.657 19.62C161.43 19.62 159.784 19.34 158.717 18.78C157.65 18.22 157.117 17.3533 157.117 16.18ZM159.417 16.18C159.417 16.6733 159.744 17.0267 160.397 17.24C161.064 17.4533 162.15 17.56 163.657 17.56C165.164 17.56 166.244 17.4533 166.897 17.24C167.564 17.0267 167.897 16.6733 167.897 16.18C167.897 15.6867 167.57 15.34 166.917 15.14C166.264 14.9267 165.177 14.82 163.657 14.82C162.137 14.82 161.05 14.9267 160.397 15.14C159.744 15.34 159.417 15.6867 159.417 16.18ZM156.497 9.52C156.964 9.54667 157.477 9.57333 158.037 9.6C158.597 9.61333 159.184 9.63333 159.797 9.66C160.41 9.67333 161.03 9.68667 161.657 9.7C162.284 9.71333 162.89 9.72 163.477 9.72C165.117 9.72 166.51 9.71333 167.657 9.7C168.817 9.67333 169.77 9.62 170.517 9.54C170.877 9.5 171.057 9.66 171.057 10.02V11.1C171.057 11.42 170.89 11.6 170.557 11.64C170.197 11.68 169.757 11.7133 169.237 11.74C168.717 11.7667 168.144 11.7867 167.517 11.8C166.904 11.8133 166.25 11.82 165.557 11.82C164.877 11.82 164.184 11.82 163.477 11.82C161.65 11.8067 160.17 11.7867 159.037 11.76C157.917 11.7333 157.057 11.6867 156.457 11.62C156.124 11.58 155.957 11.4 155.957 11.08V10C155.957 9.65333 156.137 9.49333 156.497 9.52ZM183.559 15.46C183.653 15.46 183.819 15.46 184.059 15.46C184.299 15.4467 184.566 15.44 184.859 15.44C185.166 15.4267 185.486 15.4133 185.819 15.4C186.153 15.3867 186.466 15.3733 186.759 15.36C187.053 15.3467 187.306 15.3333 187.519 15.32C187.733 15.3067 187.866 15.2933 187.919 15.28C188.279 15.24 188.459 15.4 188.459 15.76V16.86C188.459 17.1667 188.293 17.3467 187.959 17.4C187.626 17.4533 187.213 17.5 186.719 17.54C186.226 17.58 185.673 17.6133 185.059 17.64C184.446 17.68 183.786 17.7067 183.079 17.72C182.373 17.7333 181.639 17.74 180.879 17.74C177.706 17.74 175.366 17.62 173.859 17.38C173.526 17.3267 173.359 17.1467 173.359 16.84V15.74C173.359 15.5667 173.406 15.44 173.499 15.36C173.593 15.2667 173.726 15.2333 173.899 15.26C174.326 15.3267 174.753 15.3933 175.179 15.46C175.619 15.5133 176.019 15.56 176.379 15.6C176.099 15.4267 175.959 15.1533 175.959 14.78V10.28C175.959 9.92 176.133 9.74 176.479 9.74H177.739C178.086 9.74 178.259 9.92 178.259 10.28V14.96C178.259 15.3733 178.493 15.58 178.959 15.58C179.199 15.58 179.406 15.58 179.579 15.58C179.766 15.58 179.939 15.58 180.099 15.58C180.259 15.58 180.419 15.58 180.579 15.58C180.739 15.5667 180.919 15.56 181.119 15.56C180.746 15.4267 180.559 15.1333 180.559 14.68V10.28C180.559 9.92 180.733 9.74 181.079 9.74H182.339C182.686 9.74 182.859 9.92 182.859 10.28V14.84C182.859 15.2533 183.093 15.46 183.559 15.46ZM175.519 5.18C175.186 5.22 175.019 5.06 175.019 4.7V3.48C175.019 3.17333 175.186 3 175.519 2.96C176.079 2.89333 176.613 2.84 177.119 2.8C177.639 2.76 178.166 2.72667 178.699 2.7C179.246 2.67333 179.813 2.65333 180.399 2.64C180.986 2.62667 181.619 2.62 182.299 2.62C183.833 2.62 184.999 3.03333 185.799 3.86C186.613 4.68667 187.019 5.88667 187.019 7.46C187.019 7.95333 187.013 8.40667 186.999 8.82C186.986 9.22 186.966 9.60667 186.939 9.98C186.913 10.34 186.873 10.6933 186.819 11.04C186.766 11.3733 186.706 11.7133 186.639 12.06C186.586 12.3267 186.406 12.44 186.099 12.4L184.719 12.2C184.426 12.16 184.306 11.9933 184.359 11.7C184.586 10.5933 184.699 9.32 184.699 7.88C184.699 6.77333 184.479 5.98667 184.039 5.52C183.613 5.05333 182.873 4.82 181.819 4.82C180.659 4.82 179.573 4.84667 178.559 4.9C177.546 4.95333 176.533 5.04667 175.519 5.18ZM192.302 16.88C192.768 16.88 193.135 17.02 193.402 17.3C193.682 17.58 193.822 17.9733 193.822 18.48C193.822 19.28 193.575 19.9133 193.082 20.38C192.602 20.8467 191.982 21.08 191.222 21.08C191.088 21.08 191.022 21.0067 191.022 20.86V20.44C191.022 20.2933 191.088 20.22 191.222 20.22C191.648 20.22 191.915 20.06 192.022 19.74C191.662 19.6867 191.368 19.5333 191.142 19.28C190.915 19.0267 190.802 18.7067 190.802 18.32C190.802 17.88 190.935 17.5267 191.202 17.26C191.482 17.0067 191.848 16.88 192.302 16.88ZM214.147 4.3C213.56 4.26 213.04 4.23333 212.587 4.22C212.133 4.19333 211.727 4.17333 211.367 4.16C211.007 4.14667 210.68 4.14 210.387 4.14C210.093 4.12667 209.813 4.12 209.547 4.12C208.653 4.12 207.913 4.14 207.327 4.18C206.74 4.20667 206.267 4.26667 205.907 4.36C205.56 4.45333 205.313 4.57333 205.167 4.72C205.02 4.86667 204.947 5.05333 204.947 5.28C204.947 5.52 205.007 5.72 205.127 5.88C205.247 6.04 205.46 6.16667 205.767 6.26C206.087 6.34 206.507 6.4 207.027 6.44C207.56 6.48 208.227 6.5 209.027 6.5C209.827 6.5 210.687 6.46667 211.607 6.4C212.527 6.33333 213.433 6.24667 214.327 6.14C214.647 6.1 214.82 6.26 214.847 6.62L214.927 7.72C214.94 8.01333 214.78 8.18 214.447 8.22C213.54 8.32667 212.733 8.41333 212.027 8.48C211.32 8.53333 210.673 8.56667 210.087 8.58V9.36C210.087 9.68 210.253 9.84667 210.587 9.86C210.973 9.87333 211.4 9.88 211.867 9.88C212.347 9.88 212.827 9.87333 213.307 9.86C213.787 9.84667 214.253 9.82667 214.707 9.8C215.173 9.77333 215.587 9.74 215.947 9.7C216.307 9.66 216.487 9.82 216.487 10.18V11.26C216.487 11.58 216.32 11.76 215.987 11.8C215.627 11.84 215.187 11.8733 214.667 11.9C214.147 11.9267 213.573 11.9467 212.947 11.96C212.333 11.9733 211.68 11.98 210.987 11.98C210.307 11.98 209.613 11.98 208.907 11.98C207.08 11.9667 205.6 11.9467 204.467 11.92C203.347 11.8933 202.487 11.8467 201.887 11.78C201.553 11.74 201.387 11.56 201.387 11.24V10.16C201.387 9.81333 201.567 9.65333 201.927 9.68C202.313 9.70667 202.753 9.73333 203.247 9.76C203.753 9.77333 204.28 9.79333 204.827 9.82C205.373 9.83333 205.927 9.84667 206.487 9.86C207.06 9.87333 207.593 9.88 208.087 9.88C207.887 9.77333 207.787 9.59333 207.787 9.34V8.56C206.853 8.52 206.06 8.42667 205.407 8.28C204.753 8.13333 204.22 7.92667 203.807 7.66C203.407 7.39333 203.113 7.06667 202.927 6.68C202.74 6.28 202.647 5.81333 202.647 5.28C202.647 4.68 202.767 4.17333 203.007 3.76C203.247 3.33333 203.64 2.99333 204.187 2.74C204.733 2.48667 205.447 2.30667 206.327 2.2C207.22 2.08 208.313 2.02 209.607 2.02C209.887 2.02 210.16 2.02667 210.427 2.04C210.707 2.04 211.013 2.05333 211.347 2.08C211.693 2.09333 212.093 2.11333 212.547 2.14C213 2.15333 213.54 2.18 214.167 2.22C214.5 2.23333 214.667 2.40667 214.667 2.74V3.82C214.667 4.16667 214.493 4.32667 214.147 4.3ZM202.547 16.18C202.547 15.0067 203.08 14.1467 204.147 13.6C205.213 13.04 206.86 12.76 209.087 12.76C211.313 12.76 212.96 13.04 214.027 13.6C215.093 14.1467 215.627 15.0067 215.627 16.18C215.627 17.3533 215.093 18.22 214.027 18.78C212.96 19.34 211.313 19.62 209.087 19.62C206.86 19.62 205.213 19.34 204.147 18.78C203.08 18.22 202.547 17.3533 202.547 16.18ZM204.847 16.18C204.847 16.6733 205.173 17.0267 205.827 17.24C206.493 17.4533 207.58 17.56 209.087 17.56C210.593 17.56 211.673 17.4533 212.327 17.24C212.993 17.0267 213.327 16.6733 213.327 16.18C213.327 15.6867 213 15.34 212.347 15.14C211.693 14.9267 210.607 14.82 209.087 14.82C207.567 14.82 206.48 14.9267 205.827 15.14C205.173 15.34 204.847 15.6867 204.847 16.18ZM220.769 16.02C220.769 13.62 223.049 12.42 227.609 12.42C232.169 12.42 234.449 13.62 234.449 16.02C234.449 18.42 232.169 19.62 227.609 19.62C223.049 19.62 220.769 18.42 220.769 16.02ZM234.049 11C234.049 11.3333 233.882 11.5 233.549 11.5H232.349C232.016 11.5 231.849 11.3333 231.849 11V7.34H230.749C230.522 7.34 230.362 7.38 230.269 7.46C230.189 7.54 230.149 7.68 230.149 7.88V10.6C230.149 10.9333 229.982 11.1 229.649 11.1H228.449C228.116 11.1 227.949 10.9333 227.949 10.6V2.28C227.949 1.94667 228.116 1.78 228.449 1.78H229.649C229.982 1.78 230.149 1.94667 230.149 2.28V5.5C230.296 5.26 230.522 5.14 230.829 5.14H231.849V2.08C231.849 1.74667 232.016 1.58 232.349 1.58H233.549C233.882 1.58 234.049 1.74667 234.049 2.08V11ZM218.549 8.22C218.549 7.26 218.869 6.52667 219.509 6.02C220.149 5.5 221.069 5.24 222.269 5.24C223.469 5.24 224.389 5.5 225.029 6.02C225.669 6.52667 225.989 7.26 225.989 8.22C225.989 9.18 225.669 9.92 225.029 10.44C224.389 10.9467 223.469 11.2 222.269 11.2C221.069 11.2 220.149 10.9467 219.509 10.44C218.869 9.92 218.549 9.18 218.549 8.22ZM223.069 16.02C223.069 16.26 223.142 16.4667 223.289 16.64C223.449 16.8267 223.709 16.9867 224.069 17.12C224.429 17.2533 224.896 17.3533 225.469 17.42C226.056 17.4867 226.769 17.52 227.609 17.52C228.449 17.52 229.156 17.4867 229.729 17.42C230.316 17.3533 230.789 17.2533 231.149 17.12C231.509 16.9867 231.762 16.8267 231.909 16.64C232.069 16.4667 232.149 16.26 232.149 16.02C232.149 15.78 232.069 15.5733 231.909 15.4C231.762 15.2133 231.509 15.0533 231.149 14.92C230.789 14.7867 230.316 14.6867 229.729 14.62C229.156 14.5533 228.449 14.52 227.609 14.52C226.769 14.52 226.056 14.5533 225.469 14.62C224.896 14.6867 224.429 14.7867 224.069 14.92C223.709 15.0533 223.449 15.2133 223.289 15.4C223.142 15.5733 223.069 15.78 223.069 16.02ZM223.389 1.88C223.389 2.12 223.529 2.24 223.809 2.24H226.109C226.442 2.24 226.609 2.40667 226.609 2.74V3.8C226.609 4.13333 226.442 4.3 226.109 4.3H218.449C218.116 4.3 217.949 4.13333 217.949 3.8V2.74C217.949 2.40667 218.116 2.24 218.449 2.24H221.489C221.289 2.13333 221.189 1.95333 221.189 1.7V1.2C221.189 0.866666 221.356 0.699999 221.689 0.699999H222.889C223.222 0.699999 223.389 0.866666 223.389 1.2V1.88ZM222.269 9.2C223.282 9.2 223.789 8.87333 223.789 8.22C223.789 7.56667 223.282 7.24 222.269 7.24C221.256 7.24 220.749 7.56667 220.749 8.22C220.749 8.87333 221.256 9.2 222.269 9.2Z" fill="url(#paint0_linear_1383_4141)"/>
<defs>
<linearGradient id="paint0_linear_1383_4141" x1="-77" y1="11.5" x2="313" y2="11.5" gradientUnits="userSpaceOnUse">
<stop stop-color="#6DC4FF"/>
<stop offset="0.625" stop-color="#00DD8E"/>
</linearGradient>
</defs>
</svg>
