<svg width="60" height="61" viewBox="0 0 60 61" fill="none" xmlns="http://www.w3.org/2000/svg">
<g clip-path="url(#clip0_2013_4788)">
<path d="M3 19.5527V44.3642C3 46.0907 3.624 47.6552 4.626 48.9062L21.7965 35.2187L3 19.5527Z" fill="#D0D5DA"/>
<path d="M55.3741 48.9047C56.3761 47.6552 57.0001 46.0892 57.0001 44.3627V19.5527L38.2021 35.2172L55.3741 48.9047Z" fill="#D0D5DA"/>
<path d="M25.032 34.7337L3 19.5537L21.798 35.2182L25.032 37.9137C28.023 40.2327 31.977 40.2327 34.9695 37.9137L38.2035 35.2182L57.0015 19.5537L34.9695 34.7337C31.9785 36.7947 28.0245 36.7947 25.032 34.7337Z" fill="#AFB7C0"/>
<path d="M34.968 37.9143C31.977 40.2333 28.023 40.2333 25.0305 37.9143L21.7965 35.2188L4.62598 48.9062C5.96398 50.5728 7.99348 51.6618 10.296 51.6618H49.701C52.005 51.6618 54.0345 50.5728 55.371 48.9062L38.2005 35.2188L34.968 37.9143Z" fill="#E5E9EE"/>
<path d="M49.5 9.33789H10.5C6.3585 9.33789 3 12.6964 3 16.8379V19.5544L25.032 34.7344C28.023 36.7954 31.977 36.7954 34.9695 34.7344L57.0015 19.5544V16.8379C57.0015 12.6964 53.6415 9.33789 49.5 9.33789Z" fill="#E5E9EE"/>
</g>
<defs>
<clipPath id="clip0_2013_4788">
<rect width="60" height="60" fill="white" transform="translate(0 0.5)"/>
</clipPath>
</defs>
</svg>
