<svg width="60" height="60" viewBox="0 0 60 60" fill="none" xmlns="http://www.w3.org/2000/svg">
<g filter="url(#filter0_d_3545_7938)">
<rect x="5" y="3" width="50" height="50" rx="25" fill="white" shape-rendering="crispEdges"/>
<path d="M43 27H41.9575C41.7175 24.1743 40.486 21.5245 38.4808 19.5192C36.4755 17.514 33.8257 16.2825 31 16.0425V15C31 14.7348 30.8946 14.4804 30.7071 14.2929C30.5196 14.1054 30.2652 14 30 14C29.7348 14 29.4804 14.1054 29.2929 14.2929C29.1054 14.4804 29 14.7348 29 15V16.0425C26.1743 16.2825 23.5245 17.514 21.5192 19.5192C19.514 21.5245 18.2825 24.1743 18.0425 27H17C16.7348 27 16.4804 27.1054 16.2929 27.2929C16.1054 27.4804 16 27.7348 16 28C16 28.2652 16.1054 28.5196 16.2929 28.7071C16.4804 28.8946 16.7348 29 17 29H18.0425C18.2825 31.8257 19.514 34.4755 21.5192 36.4808C23.5245 38.486 26.1743 39.7175 29 39.9575V41C29 41.2652 29.1054 41.5196 29.2929 41.7071C29.4804 41.8946 29.7348 42 30 42C30.2652 42 30.5196 41.8946 30.7071 41.7071C30.8946 41.5196 31 41.2652 31 41V39.9575C33.8257 39.7175 36.4755 38.486 38.4808 36.4808C40.486 34.4755 41.7175 31.8257 41.9575 29H43C43.2652 29 43.5196 28.8946 43.7071 28.7071C43.8946 28.5196 44 28.2652 44 28C44 27.7348 43.8946 27.4804 43.7071 27.2929C43.5196 27.1054 43.2652 27 43 27ZM31 37.95V37C31 36.7348 30.8946 36.4804 30.7071 36.2929C30.5196 36.1054 30.2652 36 30 36C29.7348 36 29.4804 36.1054 29.2929 36.2929C29.1054 36.4804 29 36.7348 29 37V37.95C26.7061 37.7159 24.5631 36.6978 22.9327 35.0673C21.3022 33.4369 20.2841 31.2939 20.05 29H21C21.2652 29 21.5196 28.8946 21.7071 28.7071C21.8946 28.5196 22 28.2652 22 28C22 27.7348 21.8946 27.4804 21.7071 27.2929C21.5196 27.1054 21.2652 27 21 27H20.05C20.2841 24.7061 21.3022 22.5631 22.9327 20.9327C24.5631 19.3022 26.7061 18.2841 29 18.05V19C29 19.2652 29.1054 19.5196 29.2929 19.7071C29.4804 19.8946 29.7348 20 30 20C30.2652 20 30.5196 19.8946 30.7071 19.7071C30.8946 19.5196 31 19.2652 31 19V18.05C33.2939 18.2841 35.4369 19.3022 37.0673 20.9327C38.6978 22.5631 39.7159 24.7061 39.95 27H39C38.7348 27 38.4804 27.1054 38.2929 27.2929C38.1054 27.4804 38 27.7348 38 28C38 28.2652 38.1054 28.5196 38.2929 28.7071C38.4804 28.8946 38.7348 29 39 29H39.95C39.7159 31.2939 38.6978 33.4369 37.0673 35.0673C35.4369 36.6978 33.2939 37.7159 31 37.95ZM30 23C29.0111 23 28.0444 23.2932 27.2221 23.8427C26.3999 24.3921 25.759 25.173 25.3806 26.0866C25.0022 27.0002 24.9031 28.0055 25.0961 28.9755C25.289 29.9454 25.7652 30.8363 26.4645 31.5355C27.1637 32.2348 28.0546 32.711 29.0245 32.9039C29.9945 33.0969 30.9998 32.9978 31.9134 32.6194C32.827 32.241 33.6079 31.6001 34.1573 30.7779C34.7068 29.9556 35 28.9889 35 28C35 26.6739 34.4732 25.4021 33.5355 24.4645C32.5979 23.5268 31.3261 23 30 23ZM30 31C29.4067 31 28.8266 30.8241 28.3333 30.4944C27.8399 30.1648 27.4554 29.6962 27.2284 29.1481C27.0013 28.5999 26.9419 27.9967 27.0576 27.4147C27.1734 26.8328 27.4591 26.2982 27.8787 25.8787C28.2982 25.4591 28.8328 25.1734 29.4147 25.0576C29.9967 24.9419 30.5999 25.0013 31.1481 25.2284C31.6962 25.4554 32.1648 25.8399 32.4944 26.3333C32.8241 26.8266 33 27.4067 33 28C33 28.7956 32.6839 29.5587 32.1213 30.1213C31.5587 30.6839 30.7956 31 30 31Z" fill="#23E7A0"/>
</g>
<defs>
<filter id="filter0_d_3545_7938" x="0" y="0" width="60" height="60" filterUnits="userSpaceOnUse" color-interpolation-filters="sRGB">
<feFlood flood-opacity="0" result="BackgroundImageFix"/>
<feColorMatrix in="SourceAlpha" type="matrix" values="0 0 0 0 0 0 0 0 0 0 0 0 0 0 0 0 0 0 127 0" result="hardAlpha"/>
<feOffset dy="2"/>
<feGaussianBlur stdDeviation="2.5"/>
<feComposite in2="hardAlpha" operator="out"/>
<feColorMatrix type="matrix" values="0 0 0 0 0 0 0 0 0 0 0 0 0 0 0 0 0 0 0.2 0"/>
<feBlend mode="normal" in2="BackgroundImageFix" result="effect1_dropShadow_3545_7938"/>
<feBlend mode="normal" in="SourceGraphic" in2="effect1_dropShadow_3545_7938" result="shape"/>
</filter>
</defs>
</svg>
