<svg width="17" height="17" viewBox="0 0 17 17" fill="none" xmlns="http://www.w3.org/2000/svg">
<path d="M15.0948 4.87273L12.1278 1.90503C12.0291 1.80635 11.912 1.72806 11.783 1.67465C11.6541 1.62124 11.5159 1.59375 11.3764 1.59375C11.2368 1.59375 11.0987 1.62124 10.9697 1.67465C10.8408 1.72806 10.7237 1.80635 10.625 1.90503L2.43645 10.0943C2.33736 10.1926 2.2588 10.3096 2.20533 10.4385C2.15186 10.5675 2.12456 10.7057 2.12501 10.8453V13.813C2.12501 14.0948 2.23695 14.365 2.4362 14.5643C2.63546 14.7636 2.90571 14.8755 3.18751 14.8755H6.1552C6.29478 14.8759 6.43306 14.8486 6.56199 14.7952C6.69093 14.7417 6.80795 14.6631 6.90626 14.5641L15.0948 6.3755C15.1935 6.27684 15.2718 6.1597 15.3252 6.03077C15.3786 5.90185 15.4061 5.76367 15.4061 5.62412C15.4061 5.48457 15.3786 5.34638 15.3252 5.21746C15.2718 5.08854 15.1935 4.9714 15.0948 4.87273ZM6.1552 13.813H3.18751V10.8453L9.03126 5.00156L11.999 7.96925L6.1552 13.813ZM12.75 7.21754L9.78231 4.2505L11.3761 2.65675L14.3438 5.62379L12.75 7.21754Z" fill="white"/>
</svg>
