<svg width="25" height="25" viewBox="0 0 25 25" fill="none" xmlns="http://www.w3.org/2000/svg">
<circle cx="12.5" cy="12.5" r="12.5" fill="#BDBDBD"/>
<path d="M19.0948 8.87175L16.1278 5.90406C16.0291 5.80537 15.912 5.72709 15.783 5.67367C15.6541 5.62026 15.5159 5.59277 15.3764 5.59277C15.2368 5.59277 15.0987 5.62026 14.9697 5.67367C14.8408 5.72709 14.7237 5.80537 14.625 5.90406L6.43645 14.0933C6.33736 14.1916 6.2588 14.3086 6.20533 14.4375C6.15186 14.5665 6.12456 14.7048 6.12501 14.8443V17.812C6.12501 18.0938 6.23695 18.3641 6.4362 18.5633C6.63546 18.7626 6.90571 18.8745 7.18751 18.8745H10.1552C10.2948 18.875 10.4331 18.8477 10.562 18.7942C10.6909 18.7407 10.808 18.6622 10.9063 18.5631L19.0948 10.3745C19.1935 10.2759 19.2718 10.1587 19.3252 10.0298C19.3786 9.90087 19.4061 9.76269 19.4061 9.62314C19.4061 9.48359 19.3786 9.34541 19.3252 9.21648C19.2718 9.08756 19.1935 8.97042 19.0948 8.87175ZM10.1552 17.812H7.18751V14.8443L13.0313 9.00058L15.999 11.9683L10.1552 17.812ZM16.75 11.2166L13.7823 8.24953L15.3761 6.65578L18.3438 9.62281L16.75 11.2166Z" fill="white"/>
</svg>
