<svg width="85" height="85" viewBox="0 0 85 85" fill="none" xmlns="http://www.w3.org/2000/svg">
<g clip-path="url(#clip0_3350_9094)">
<path d="M71.6867 83.5308L70.6051 79.1363C70.1843 77.4278 69.6297 75.7384 68.7542 74.2106C66.6186 70.4897 63.2483 67.5848 59.1768 66.0378L50.7172 62.8248C49.6504 62.4189 48.5561 62.1193 47.4511 61.8877V64.5843C47.4511 67.0281 45.4961 69.0043 43.0523 69.0043C40.6086 69.0043 38.6536 67.0281 38.6536 64.5843V61.8877C37.5486 62.1172 36.4542 62.4189 35.3853 62.8248L26.9257 66.0378C22.8542 67.5848 19.4839 70.4897 17.3483 74.2106C16.4728 75.7384 15.9182 77.4278 15.4974 79.1363L14.4158 83.5308C14.2522 84.1938 14.7558 84.8377 15.4401 84.8377H70.6646C71.3488 84.8377 71.8503 84.1959 71.6867 83.5308Z" fill="#5A81FF"/>
<path d="M21.6855 36.6742C21.5686 36.6721 21.4773 36.5701 21.473 36.4532C21.439 35.3546 21.5177 34.2305 21.6558 33.0957C18.0879 34.9912 15.9417 37.3648 15.9417 39.951C15.9417 42.2035 17.5673 44.2945 20.3404 46.0497C19.467 44.915 18.9103 43.5486 18.9103 42.0398C18.9103 39.8702 20.0047 37.9407 21.6855 36.6742Z" fill="#C27700"/>
<path d="M70.1587 39.9521C70.1587 37.1577 67.6618 34.6098 63.5584 32.6484C63.7412 33.8257 63.8623 35.0242 63.8432 36.2567C63.8262 36.2524 63.8092 36.2631 63.7922 36.2609C65.8258 37.4913 67.1901 39.6163 67.1901 42.0431C67.1901 43.5327 66.6716 44.8948 65.8131 46.0147C68.5501 44.2679 70.1587 42.1897 70.1587 39.9521Z" fill="#C27700"/>
<path d="M26.2206 48.9457C24.7097 48.9372 23.3072 48.5016 22.1406 47.7578L24.0871 55.5757C24.4738 57.1312 25.8721 58.2234 27.4743 58.2234H35.4006C31.3163 56.3577 28.0332 53.0639 26.2206 48.9457Z" fill="#333333"/>
<path d="M50.6987 58.2209H58.5399C60.2569 58.2209 61.7189 56.9714 61.9867 55.2756L63.1044 48.1973C62.1291 48.6563 61.0432 48.9389 59.8808 48.9453C58.0682 53.0614 54.7829 56.3551 50.6987 58.2209Z" fill="#333333"/>
<path d="M21.6861 36.6732C22.1557 36.6775 23.3606 36.9176 24.5336 39.0469C24.7099 39.3677 25.1413 39.44 25.3836 39.1659L37.0073 26.1609C37.0073 26.1609 51.7314 37.9865 61.4491 37.3405C61.6637 37.3256 61.9102 37.2512 62.1546 37.1471C62.7814 36.7944 63.3106 36.1654 63.7929 36.2546C63.8099 36.2567 63.8269 36.2461 63.8439 36.2504C63.8631 35.02 63.7419 33.8215 63.5592 32.6421C61.7763 21.2011 50.9133 12.6437 38.5819 14.9536C30.0883 16.5431 23.2904 23.4196 21.7987 31.9302C21.7307 32.3212 21.7031 32.7037 21.6563 33.0905C21.5182 34.2252 21.4396 35.3494 21.4736 36.448C21.4778 36.5649 21.5692 36.6647 21.6861 36.669V36.6732Z" fill="#333333"/>
<path d="M63.7927 36.2559C63.3082 36.1666 62.7791 36.7956 62.1544 37.1484C61.91 37.2525 61.6635 37.3269 61.4489 37.3417C51.7312 37.9877 37.0071 26.1621 37.0071 26.1621L25.3834 39.1671C25.139 39.4391 24.7097 39.3669 24.5334 39.0481C23.3604 36.9189 22.1576 36.6787 21.688 36.6745C20.0071 37.941 18.9106 39.8705 18.9106 42.0401C18.9106 43.5489 19.4674 44.9131 20.3407 46.05C20.8444 46.7066 21.4266 47.3037 22.1406 47.7585C23.3051 48.5001 24.7097 48.9379 26.2206 48.9464C28.0332 53.0625 31.3185 56.3584 35.4027 58.2241C36.4419 58.698 37.5192 59.1039 38.6519 59.3801V64.5864C38.6519 67.0301 40.6069 69.0064 43.0506 69.0064C45.4944 69.0064 47.4494 67.0301 47.4494 64.5864V59.3801C48.582 59.1039 49.6594 58.698 50.6985 58.2241C54.7827 56.3584 58.068 53.0646 59.8806 48.9464C61.043 48.94 62.1289 48.6574 63.1042 48.1984C64.1901 47.6884 65.1124 46.9297 65.8136 46.0117C66.67 44.8897 67.1906 43.5297 67.1906 42.0401C67.1906 39.6134 65.8264 37.4884 63.7927 36.258V36.2559Z" fill="#FFCCA8"/>
<path d="M37.885 42.9853C38.9658 42.9853 39.8421 41.934 39.8421 40.6372C39.8421 39.3404 38.9658 38.2891 37.885 38.2891C36.8041 38.2891 35.9278 39.3404 35.9278 40.6372C35.9278 41.934 36.8041 42.9853 37.885 42.9853Z" fill="black"/>
<path d="M48.217 42.9853C49.2978 42.9853 50.1741 41.934 50.1741 40.6372C50.1741 39.3404 49.2978 38.2891 48.217 38.2891C47.1361 38.2891 46.2598 39.3404 46.2598 40.6372C46.2598 41.934 47.1361 42.9853 48.217 42.9853Z" fill="black"/>
<path d="M45.4836 49.8965C45.9235 49.8965 46.2358 50.3194 46.119 50.7422C45.7492 52.0895 44.5146 53.0797 43.0505 53.0797C41.5863 53.0797 40.3517 52.0895 39.982 50.7422C39.8651 50.3172 40.1775 49.8965 40.6173 49.8965H45.4836Z" fill="#5C2F17"/>
<path d="M66.3231 35.1391C66.2466 22.3488 55.8596 12 43.0501 12C30.2406 12 19.8557 22.3466 19.7771 35.1391C24.9812 31.8879 33.4536 29.7608 43.0501 29.7608C52.6466 29.7608 61.1189 31.8858 66.3231 35.1391Z" fill="#FF9D00"/>
<path d="M70.1651 39.9569C70.1651 40.2969 70.1013 40.6369 70.0376 40.9557C68.8051 35.2394 57.2026 30.7769 43.0501 30.7769C28.8976 30.7769 17.2951 35.2394 16.0626 40.9557C15.9988 40.6369 15.9351 40.2969 15.9351 39.9569C15.9351 35.2819 22.8626 31.2869 32.7013 29.5869L31.5538 17.1557C31.3413 15.0732 32.5313 13.1182 34.4438 12.2682C37.1001 11.0994 40.0113 10.4619 43.0501 10.4619C46.0888 10.4619 49.0001 11.0994 51.6563 12.2682C53.5688 13.1182 54.7588 15.0732 54.5463 17.1557L53.3988 29.5869C63.2376 31.2869 70.1651 35.2819 70.1651 39.9569Z" fill="#FFBB00"/>
<path d="M63.9691 68.7891L60.6562 84.8413H66.9144L68.5166 73.8402C67.3287 71.8809 65.769 70.1894 63.9691 68.7891Z" fill="#FF8400"/>
<path d="M59.1747 66.041L53.1035 63.7354L48.6453 84.8387H54.3658L58.5648 65.8094L59.1747 66.041Z" fill="#FF8400"/>
<path d="M61.7947 67.2969C62.2218 67.5434 62.615 67.8387 63.0187 68.1171C62.6128 67.8387 62.2218 67.5434 61.7947 67.2969Z" fill="#FF8400"/>
<path d="M63.9726 68.7569C63.6709 68.5232 63.333 68.3341 63.0185 68.1173C62.6126 67.8389 62.2216 67.5436 61.7945 67.2971C60.9594 66.8147 60.0903 66.3876 59.1744 66.0412L58.5645 65.8096L54.3655 84.8389H60.6534L63.9663 68.7867L63.9726 68.7569Z" fill="#FFBB00"/>
<path d="M17.5695 73.8402L19.1717 84.8413H25.4298L22.117 68.7891C20.3171 70.1916 18.7573 71.8809 17.5695 73.8402Z" fill="#FF8400"/>
<path d="M23.0664 68.1171C23.4723 67.8387 23.8633 67.5434 24.2904 67.2969C23.8612 67.5413 23.4723 67.8387 23.0664 68.1171Z" fill="#FF8400"/>
<path d="M26.9107 66.041L27.5206 65.8094L31.7196 84.8387H37.4401L32.9818 63.7354L26.9107 66.041Z" fill="#FF8400"/>
<path d="M26.9106 66.0412C25.9969 66.3897 25.1256 66.8147 24.2905 67.2971C23.8634 67.5436 23.4703 67.8389 23.0665 68.1173C22.7499 68.3341 22.412 68.5211 22.1103 68.7569L22.1166 68.7867L25.4295 84.8389H31.7174L27.5184 65.8096L26.9106 66.0412Z" fill="#FFBB00"/>
</g>
<defs>
<clipPath id="clip0_3350_9094">
<rect width="85" height="85" fill="white"/>
</clipPath>
</defs>
</svg>
