<svg width="85" height="85" viewBox="0 0 85 85" fill="none" xmlns="http://www.w3.org/2000/svg">
<g clip-path="url(#clip0_3350_9079)">
<path d="M60.4137 65.4675L51.459 62.0654C46.2315 60.0785 40.4578 60.0785 35.2303 62.0654L26.2756 65.4675C21.9661 67.1059 18.3982 70.1786 16.1372 74.1183C15.2107 75.7333 14.6221 77.5226 14.178 79.331L13.0326 83.9826C12.8605 84.686 13.3917 85.366 14.1163 85.366H72.573C73.2976 85.366 73.8288 84.686 73.6567 83.9826L72.5113 79.331C72.0672 77.5226 71.4786 75.7333 70.5521 74.1183C68.2911 70.1807 64.7232 67.1059 60.4137 65.4675Z" fill="#6B778A"/>
<path d="M51.4608 62.0683C46.2333 60.0814 40.4596 60.0814 35.2321 62.0683L34.2525 62.4402V85.3668H52.4298V62.4359L51.4608 62.0683Z" fill="#F0F0F0"/>
<path d="M35.2302 62.0693L39.1806 85.3615H27.304L25.4935 78.5338L30.2726 75.5631L25.4935 72.7241L26.9682 65.208L35.2302 62.0693Z" fill="#4F5966"/>
<path d="M51.5098 62.082L47.5594 85.3742H59.4361L61.2466 78.5465L56.4674 75.5758L61.2466 72.7368L59.7718 65.2207L51.5098 62.082Z" fill="#4F5966"/>
<path d="M19.6838 54.7299C19.6838 54.7299 16.7938 22.976 32.1512 16.2462C32.1512 16.2462 36.3736 10.1283 45.7958 11.1058C55.2181 12.0833 62.4133 19.3423 64.8231 25.9128C66.6187 30.8067 68.3952 41.1682 68.1147 53.1744C68.0828 54.5684 67.3327 55.8455 66.1427 56.5702C63.5438 58.1512 57.5194 60.1742 43.7154 60.1742C21.0778 60.1742 19.6838 54.7278 19.6838 54.7278V54.7299Z" fill="#333333"/>
<path d="M50.8533 31.6233C42.5403 30.4015 37.1343 24.9551 35.4046 22.9618C35.1687 22.6898 34.7246 22.8088 34.6608 23.1616C34.2571 25.3418 32.8248 30.886 28.2688 34.9043C28.2688 34.9043 27.5038 35.4823 26.6474 36.6192C25.3894 38.2895 24.8943 40.4166 25.2513 42.4693C26.8089 51.4411 34.3888 58.2496 43.5114 58.2496C52.0858 58.2496 59.3002 52.2337 61.4294 44.061C62.4877 37.9898 58.7711 32.7878 50.8533 31.6233Z" fill="#FFCCA8"/>
<path d="M37.9185 41.0258C39.0592 41.0258 39.984 39.9165 39.984 38.5481C39.984 37.1796 39.0592 36.0703 37.9185 36.0703C36.7777 36.0703 35.853 37.1796 35.853 38.5481C35.853 39.9165 36.7777 41.0258 37.9185 41.0258Z" fill="black"/>
<path d="M48.8197 41.0258C49.9605 41.0258 50.8852 39.9165 50.8852 38.5481C50.8852 37.1796 49.9605 36.0703 48.8197 36.0703C47.679 36.0703 46.7542 37.1796 46.7542 38.5481C46.7542 39.9165 47.679 41.0258 48.8197 41.0258Z" fill="black"/>
<path d="M45.9403 49.4346C46.4036 49.4346 46.7308 49.8787 46.6097 50.3249C46.2187 51.7487 44.9161 52.7942 43.3691 52.7942C41.8221 52.7942 40.5195 51.7487 40.1285 50.3249C40.0052 49.8787 40.3346 49.4346 40.7978 49.4346H45.9403Z" fill="#5C2F17"/>
<path d="M38.7028 53.8154H48.0358V62.6746C48.0358 65.2501 45.9448 67.3411 43.3693 67.3411C40.7938 67.3411 38.7028 65.2501 38.7028 62.6746V53.8154Z" fill="#FFCCA8"/>
</g>
<defs>
<clipPath id="clip0_3350_9079">
<rect width="85" height="85" fill="white"/>
</clipPath>
</defs>
</svg>
