<svg width="30" height="30" viewBox="0 0 30 30" fill="none" xmlns="http://www.w3.org/2000/svg">
<g clip-path="url(#clip0_3781_3634)">
<path d="M1.125 9.375V22.125C1.125 23.0122 1.446 23.8162 1.96125 24.459L10.785 17.4255L1.125 9.375Z" fill="#D0D5DA"/>
<path d="M28.0388 24.459C28.5541 23.817 28.8751 23.0122 28.8751 22.125V9.375L19.2151 17.4247L28.0388 24.459Z" fill="#D0D5DA"/>
<path d="M20.691 15.303L16.4587 19.4205C16.8397 19.2735 17.2102 19.0763 17.553 18.81L19.215 17.4248L28.875 9.375L20.886 14.8793C20.8267 15.0203 20.766 15.1613 20.691 15.303Z" fill="#AFB7C0"/>
<path d="M12.3593 18.7365C11.22 17.7982 9.99525 16.5945 9.309 15.3022C9.234 15.1612 9.17325 15.0195 9.114 14.8785L1.125 9.375L10.785 17.4247L12.3593 18.7365Z" fill="#AFB7C0"/>
<path d="M17.5529 18.8101C17.2102 19.0756 16.8397 19.2728 16.4587 19.4206L15.6359 20.2208C15.2489 20.4766 14.7502 20.4766 14.3632 20.2208C13.8667 19.8931 13.1317 19.3741 12.3584 18.7366L10.7842 17.4248L1.96045 24.4583C2.64745 25.3148 3.6907 25.8743 4.8742 25.8743H25.1242C26.3077 25.8743 27.351 25.3148 28.0379 24.4583L19.2142 17.4248L17.5529 18.8101Z" fill="#E5E9EE"/>
<path d="M25.125 4.125H4.875C2.80425 4.125 1.125 5.80425 1.125 7.875V9.375L9.114 14.8793C7.97325 12.1665 9.69075 9.58725 11.9318 9.58725C13.2758 9.58725 14.085 10.2892 14.532 10.893C14.7675 11.211 15.2332 11.211 15.4688 10.893C15.9157 10.2892 16.725 9.58725 18.069 9.58725C20.31 9.58725 22.0268 12.1665 20.8868 14.8793L28.8757 9.375V7.875C28.8757 5.80425 27.1957 4.125 25.125 4.125Z" fill="#E5E9EE"/>
<path d="M9.30891 15.3029C9.99516 16.5944 11.2199 17.7981 12.3592 18.7371C13.1324 19.3746 13.8674 19.8929 14.3639 20.2214C14.7509 20.4771 15.2497 20.4771 15.6367 20.2214L16.4594 19.4211L20.6917 15.3036C20.7667 15.1626 20.8274 15.0209 20.8867 14.8799C22.0274 12.1671 20.3099 9.58789 18.0689 9.58789C16.7249 9.58789 15.9157 10.2899 15.4687 10.8936C15.2332 11.2116 14.7674 11.2116 14.5319 10.8936C14.0849 10.2899 13.2757 9.58789 11.9317 9.58789C9.69066 9.58789 7.97391 12.1671 9.11391 14.8799C9.17316 15.0209 9.23391 15.1619 9.30891 15.3036V15.3029Z" fill="#EC4452"/>
</g>
<defs>
<clipPath id="clip0_3781_3634">
<rect width="30" height="30" fill="white"/>
</clipPath>
</defs>
</svg>
