<svg width="15" height="15" viewBox="0 0 15 15" fill="none" xmlns="http://www.w3.org/2000/svg">
<path d="M7.5 1.40625C6.29477 1.40625 5.11661 1.76364 4.1145 2.43323C3.11238 3.10282 2.33133 4.05454 1.87011 5.16802C1.40889 6.28151 1.28821 7.50676 1.52334 8.68883C1.75847 9.8709 2.33884 10.9567 3.19107 11.8089C4.0433 12.6612 5.1291 13.2415 6.31117 13.4767C7.49324 13.7118 8.71849 13.5911 9.83198 13.1299C10.9455 12.6687 11.8972 11.8876 12.5668 10.8855C13.2364 9.88339 13.5938 8.70523 13.5938 7.5C13.592 5.88436 12.9495 4.33538 11.807 3.19295C10.6646 2.05052 9.11564 1.40796 7.5 1.40625ZM9.70664 9.04336C9.75019 9.08691 9.78474 9.13861 9.80831 9.19552C9.83188 9.25242 9.84401 9.31341 9.84401 9.375C9.84401 9.43659 9.83188 9.49758 9.80831 9.55448C9.78474 9.61139 9.75019 9.66309 9.70664 9.70664C9.66309 9.75019 9.61139 9.78474 9.55449 9.80831C9.49758 9.83188 9.43659 9.84401 9.375 9.84401C9.31341 9.84401 9.25242 9.83188 9.19552 9.80831C9.13862 9.78474 9.08691 9.75019 9.04336 9.70664L7.5 8.16269L5.95664 9.70664C5.91309 9.75019 5.86139 9.78474 5.80449 9.80831C5.74758 9.83188 5.68659 9.84401 5.625 9.84401C5.56341 9.84401 5.50242 9.83188 5.44552 9.80831C5.38862 9.78474 5.33691 9.75019 5.29336 9.70664C5.24981 9.66309 5.21526 9.61139 5.19169 9.55448C5.16812 9.49758 5.15599 9.43659 5.15599 9.375C5.15599 9.31341 5.16812 9.25242 5.19169 9.19552C5.21526 9.13861 5.24981 9.08691 5.29336 9.04336L6.83731 7.5L5.29336 5.95664C5.2054 5.86868 5.15599 5.74939 5.15599 5.625C5.15599 5.50061 5.2054 5.38132 5.29336 5.29336C5.38132 5.2054 5.50061 5.15599 5.625 5.15599C5.74939 5.15599 5.86869 5.2054 5.95664 5.29336L7.5 6.8373L9.04336 5.29336C9.08691 5.24981 9.13862 5.21526 9.19552 5.19169C9.25242 5.16812 9.31341 5.15599 9.375 5.15599C9.43659 5.15599 9.49758 5.16812 9.55449 5.19169C9.61139 5.21526 9.66309 5.24981 9.70664 5.29336C9.75019 5.33691 9.78474 5.38861 9.80831 5.44552C9.83188 5.50242 9.84401 5.56341 9.84401 5.625C9.84401 5.68659 9.83188 5.74758 9.80831 5.80448C9.78474 5.86139 9.75019 5.91309 9.70664 5.95664L8.1627 7.5L9.70664 9.04336Z" fill="black"/>
</svg>
