<svg width="55" height="29" viewBox="0 0 55 29" fill="none" xmlns="http://www.w3.org/2000/svg">
<rect y="1" width="55" height="27" rx="13.5" fill="#E1E1E1" fill-opacity="0.25"/>
<path d="M16.0312 9.34375V8.875C16.0312 8.75068 16.0806 8.63145 16.1685 8.54354C16.2565 8.45564 16.3757 8.40625 16.5 8.40625C16.6243 8.40625 16.7435 8.45564 16.8315 8.54354C16.9194 8.63145 16.9688 8.75068 16.9688 8.875V9.34375C16.9688 9.46807 16.9194 9.5873 16.8315 9.67521C16.7435 9.76311 16.6243 9.8125 16.5 9.8125C16.3757 9.8125 16.2565 9.76311 16.1685 9.67521C16.0806 9.5873 16.0312 9.46807 16.0312 9.34375ZM20.25 14.5C20.25 15.2417 20.0301 15.9667 19.618 16.5834C19.206 17.2001 18.6203 17.6807 17.9351 17.9645C17.2498 18.2484 16.4958 18.3226 15.7684 18.1779C15.041 18.0333 14.3728 17.6761 13.8483 17.1517C13.3239 16.6272 12.9667 15.959 12.8221 15.2316C12.6774 14.5042 12.7516 13.7502 13.0355 13.0649C13.3193 12.3797 13.7999 11.794 14.4166 11.382C15.0333 10.9699 15.7583 10.75 16.5 10.75C17.4942 10.7511 18.4474 11.1465 19.1505 11.8495C19.8535 12.5526 20.2489 13.5058 20.25 14.5ZM19.3125 14.5C19.3125 13.9437 19.1475 13.4 18.8385 12.9375C18.5295 12.4749 18.0902 12.1145 17.5763 11.9016C17.0624 11.6887 16.4969 11.633 15.9513 11.7415C15.4057 11.8501 14.9046 12.1179 14.5113 12.5113C14.1179 12.9046 13.8501 13.4057 13.7415 13.9513C13.633 14.4969 13.6887 15.0624 13.9016 15.5763C14.1145 16.0902 14.4749 16.5295 14.9375 16.8385C15.4 17.1475 15.9437 17.3125 16.5 17.3125C17.2457 17.3117 17.9606 17.0152 18.4879 16.4879C19.0152 15.9606 19.3117 15.2457 19.3125 14.5ZM12.4184 11.0816C12.5063 11.1696 12.6256 11.219 12.75 11.219C12.8744 11.219 12.9937 11.1696 13.0816 11.0816C13.1696 10.9937 13.219 10.8744 13.219 10.75C13.219 10.6256 13.1696 10.5063 13.0816 10.4184L12.6129 9.94961C12.5249 9.86165 12.4056 9.81224 12.2812 9.81224C12.1569 9.81224 12.0376 9.86165 11.9496 9.94961C11.8617 10.0376 11.8122 10.1569 11.8122 10.2812C11.8122 10.4056 11.8617 10.5249 11.9496 10.6129L12.4184 11.0816ZM12.4184 17.9184L11.9496 18.3871C11.8617 18.4751 11.8122 18.5944 11.8122 18.7188C11.8122 18.8431 11.8617 18.9624 11.9496 19.0504C12.0376 19.1383 12.1569 19.1878 12.2812 19.1878C12.4056 19.1878 12.5249 19.1383 12.6129 19.0504L13.0816 18.5816C13.1252 18.5381 13.1597 18.4864 13.1833 18.4295C13.2069 18.3726 13.219 18.3116 13.219 18.25C13.219 18.1884 13.2069 18.1274 13.1833 18.0705C13.1597 18.0136 13.1252 17.9619 13.0816 17.9184C13.0381 17.8748 12.9864 17.8403 12.9295 17.8167C12.8726 17.7931 12.8116 17.781 12.75 17.781C12.6884 17.781 12.6274 17.7931 12.5705 17.8167C12.5136 17.8403 12.4619 17.8748 12.4184 17.9184ZM20.25 11.2188C20.3116 11.2188 20.3726 11.2067 20.4295 11.1832C20.4864 11.1597 20.5381 11.1252 20.5816 11.0816L21.0504 10.6129C21.1383 10.5249 21.1878 10.4056 21.1878 10.2812C21.1878 10.1569 21.1383 10.0376 21.0504 9.94961C20.9624 9.86165 20.8431 9.81224 20.7188 9.81224C20.5944 9.81224 20.4751 9.86165 20.3871 9.94961L19.9184 10.4184C19.8527 10.4839 19.808 10.5675 19.7899 10.6584C19.7718 10.7494 19.7811 10.8437 19.8166 10.9294C19.8521 11.0151 19.9122 11.0884 19.9894 11.1399C20.0665 11.1914 20.1572 11.2188 20.25 11.2188ZM20.5816 17.9184C20.4937 17.8304 20.3744 17.781 20.25 17.781C20.1256 17.781 20.0063 17.8304 19.9184 17.9184C19.8304 18.0063 19.781 18.1256 19.781 18.25C19.781 18.3744 19.8304 18.4937 19.9184 18.5816L20.3871 19.0504C20.4307 19.0939 20.4824 19.1285 20.5393 19.1521C20.5962 19.1756 20.6572 19.1878 20.7188 19.1878C20.7803 19.1878 20.8413 19.1756 20.8982 19.1521C20.9551 19.1285 21.0068 19.0939 21.0504 19.0504C21.0939 19.0068 21.1285 18.9551 21.1521 18.8982C21.1756 18.8413 21.1878 18.7803 21.1878 18.7188C21.1878 18.6572 21.1756 18.5962 21.1521 18.5393C21.1285 18.4824 21.0939 18.4307 21.0504 18.3871L20.5816 17.9184ZM11.3438 14.0312H10.875C10.7507 14.0312 10.6315 14.0806 10.5435 14.1685C10.4556 14.2565 10.4062 14.3757 10.4062 14.5C10.4062 14.6243 10.4556 14.7435 10.5435 14.8315C10.6315 14.9194 10.7507 14.9688 10.875 14.9688H11.3438C11.4681 14.9688 11.5873 14.9194 11.6752 14.8315C11.7631 14.7435 11.8125 14.6243 11.8125 14.5C11.8125 14.3757 11.7631 14.2565 11.6752 14.1685C11.5873 14.0806 11.4681 14.0312 11.3438 14.0312ZM16.5 19.1875C16.3757 19.1875 16.2565 19.2369 16.1685 19.3248C16.0806 19.4127 16.0312 19.5319 16.0312 19.6562V20.125C16.0312 20.2493 16.0806 20.3685 16.1685 20.4565C16.2565 20.5444 16.3757 20.5938 16.5 20.5938C16.6243 20.5938 16.7435 20.5444 16.8315 20.4565C16.9194 20.3685 16.9688 20.2493 16.9688 20.125V19.6562C16.9688 19.5319 16.9194 19.4127 16.8315 19.3248C16.7435 19.2369 16.6243 19.1875 16.5 19.1875ZM22.125 14.0312H21.6562C21.5319 14.0312 21.4127 14.0806 21.3248 14.1685C21.2369 14.2565 21.1875 14.3757 21.1875 14.5C21.1875 14.6243 21.2369 14.7435 21.3248 14.8315C21.4127 14.9194 21.5319 14.9688 21.6562 14.9688H22.125C22.2493 14.9688 22.3685 14.9194 22.4565 14.8315C22.5444 14.7435 22.5938 14.6243 22.5938 14.5C22.5938 14.3757 22.5444 14.2565 22.4565 14.1685C22.3685 14.0806 22.2493 14.0312 22.125 14.0312Z" fill="#BDBDBD"/>
<path d="M36.832 15.5215H28.7754V14.6328H36.832V15.5215ZM35.9043 13.9395H29.7617V10.8242H35.8555V11.7031H30.8457V13.0703H35.9043V13.9395ZM32.7891 16.1367C33.4206 16.1335 33.9642 16.1953 34.4199 16.3223C34.8789 16.446 35.2305 16.6283 35.4746 16.8691C35.7188 17.11 35.8424 17.3997 35.8457 17.7383C35.8424 18.0801 35.7188 18.3714 35.4746 18.6123C35.2305 18.8564 34.8805 19.042 34.4248 19.1689C33.9691 19.2959 33.4238 19.3594 32.7891 19.3594C32.1478 19.3594 31.596 19.2959 31.1338 19.1689C30.6748 19.042 30.3232 18.8564 30.0791 18.6123C29.835 18.3714 29.7129 18.0801 29.7129 17.7383C29.7129 17.3997 29.835 17.11 30.0791 16.8691C30.3232 16.6283 30.6764 16.446 31.1387 16.3223C31.6009 16.1953 32.151 16.1335 32.7891 16.1367ZM32.7891 16.9668C32.1445 16.9668 31.653 17.0335 31.3145 17.167C30.9759 17.2972 30.8099 17.4876 30.8164 17.7383C30.8132 17.9954 30.9792 18.1908 31.3145 18.3242C31.6497 18.4544 32.1413 18.5195 32.7891 18.5195C33.4238 18.5195 33.9105 18.4544 34.249 18.3242C34.5876 18.1908 34.7585 17.9954 34.7617 17.7383C34.7585 17.4909 34.5859 17.3005 34.2441 17.167C33.9056 17.0335 33.4206 16.9668 32.7891 16.9668ZM44.4043 12.25C44.4043 12.7448 44.3978 13.1712 44.3848 13.5293C44.375 13.8874 44.3473 14.2992 44.3018 14.7646C44.2562 15.2269 44.1829 15.7266 44.082 16.2637L43.0176 16.1562C43.151 15.4368 43.234 14.7891 43.2666 14.2129C43.3024 13.6367 43.3203 12.9824 43.3203 12.25V12.2207H37.9785V11.3516H44.4043V12.25ZM45.2148 18.2266H37.168V17.3379H38.9746V14.5254H40.0586V17.3379H41.1816V14.5254H42.2461V17.3379H45.2148V18.2266Z" fill="#BDBDBD"/>
</svg>
