<svg width="80" height="80" viewBox="0 0 80 80" fill="none" xmlns="http://www.w3.org/2000/svg">
<g clip-path="url(#clip0_1617_6883)">
<circle cx="40" cy="40" r="40" fill="#FEF1FF"/>
<g clip-path="url(#clip1_1617_6883)">
<path d="M54.1584 63.3422L46.4678 60.4204C41.9783 58.714 37.0198 58.714 32.5303 60.4204L24.8397 63.3422C21.1386 64.7493 18.0745 67.3883 16.1327 70.7718C15.337 72.1588 14.8314 73.6955 14.45 75.2485L13.4663 79.2435C13.3185 79.8475 13.7748 80.4315 14.3971 80.4315H64.601C65.2233 80.4315 65.6796 79.8475 65.5318 79.2435L64.5481 75.2485C64.1667 73.6955 63.6611 72.1588 62.8654 70.7718C60.9236 67.3901 57.8595 64.7493 54.1584 63.3422Z" fill="#6B778A"/>
<path d="M46.4694 60.4224C41.9799 58.716 37.0214 58.716 32.5319 60.4224L31.6906 60.7417V80.4317H47.3016V60.7381L46.4694 60.4224Z" fill="#F0F0F0"/>
<path d="M32.5301 60.4238L35.9228 80.4277H25.7229L24.168 74.5639L28.2724 72.0126L24.168 69.5744L25.4345 63.1194L32.5301 60.4238Z" fill="#4F5966"/>
<path d="M46.5114 60.4355L43.1188 80.4394H53.3187L54.8736 74.5756L50.7692 72.0243L54.8736 69.5861L53.607 63.1311L46.5114 60.4355Z" fill="#4F5966"/>
<path d="M19.1786 54.1207C19.1786 54.1207 16.6966 26.8498 29.8859 21.07C29.8859 21.07 33.5122 15.8158 41.6042 16.6553C49.6963 17.4948 55.8757 23.729 57.9453 29.3719C59.4874 33.5749 61.0131 42.4736 60.7722 52.7848C60.7448 53.982 60.1006 55.0789 59.0786 55.7012C56.8466 57.059 51.6728 58.7964 39.8176 58.7964C20.3758 58.7964 19.1786 54.1189 19.1786 54.1189V54.1207Z" fill="#333333"/>
<path d="M45.9477 34.2759C38.8083 33.2266 34.1655 28.5491 32.6799 26.8372C32.4774 26.6036 32.0959 26.7058 32.0412 27.0088C31.6944 28.8812 30.4644 33.6427 26.5516 37.0937C26.5516 37.0937 25.8946 37.5901 25.1591 38.5665C24.0787 40.001 23.6535 41.8278 23.9601 43.5907C25.2978 51.2959 31.8076 57.1432 39.6423 57.1432C47.0062 57.1432 53.2021 51.9766 55.0307 44.9577C55.9396 39.7436 52.7476 35.276 45.9477 34.2759Z" fill="#FFCCA8"/>
<path d="M34.839 42.3516C35.8187 42.3516 36.6129 41.3989 36.6129 40.2237C36.6129 39.0484 35.8187 38.0957 34.839 38.0957C33.8593 38.0957 33.0651 39.0484 33.0651 40.2237C33.0651 41.3989 33.8593 42.3516 34.839 42.3516Z" fill="black"/>
<path d="M44.2013 42.3516C45.181 42.3516 45.9752 41.3989 45.9752 40.2237C45.9752 39.0484 45.181 38.0957 44.2013 38.0957C43.2216 38.0957 42.4274 39.0484 42.4274 40.2237C42.4274 41.3989 43.2216 42.3516 44.2013 42.3516Z" fill="black"/>
<path d="M41.7283 49.5723C42.1262 49.5723 42.4072 49.9537 42.3032 50.3369C41.9674 51.5597 40.8487 52.4576 39.5201 52.4576C38.1915 52.4576 37.0728 51.5597 36.737 50.3369C36.6311 49.9537 36.914 49.5723 37.3118 49.5723H41.7283Z" fill="#5C2F17"/>
<path d="M35.5126 53.334H43.528V60.9424C43.528 63.1543 41.7322 64.9501 39.5203 64.9501C37.3084 64.9501 35.5126 63.1543 35.5126 60.9424V53.334Z" fill="#FFCCA8"/>
</g>
</g>
<defs>
<clipPath id="clip0_1617_6883">
<rect width="80" height="80" rx="40" fill="white"/>
</clipPath>
<clipPath id="clip1_1617_6883">
<rect width="73" height="73" fill="white" transform="translate(3 12)"/>
</clipPath>
</defs>
</svg>
