<svg width="57" height="18" viewBox="0 0 57 18" fill="none" xmlns="http://www.w3.org/2000/svg">
<path d="M15.6339 5.04434L12.1425 1.55372C12.0264 1.43761 11.8886 1.34551 11.7369 1.28268C11.5852 1.21984 11.4227 1.1875 11.2585 1.1875C11.0943 1.1875 10.9318 1.21984 10.7801 1.28268C10.6284 1.34551 10.4906 1.43761 10.3745 1.55372L0.740924 11.1873C0.624346 11.303 0.531919 11.4406 0.469017 11.5923C0.406116 11.744 0.373993 11.9067 0.374518 12.0709V15.5623C0.374518 15.8938 0.506214 16.2118 0.740635 16.4462C0.975055 16.6806 1.293 16.8123 1.62452 16.8123H14.7495C14.9153 16.8123 15.0742 16.7465 15.1915 16.6293C15.3087 16.512 15.3745 16.3531 15.3745 16.1873C15.3745 16.0216 15.3087 15.8626 15.1915 15.7454C15.0742 15.6282 14.9153 15.5623 14.7495 15.5623H6.88389L15.6339 6.81231C15.75 6.69623 15.8421 6.55842 15.9049 6.40675C15.9678 6.25507 16.0001 6.0925 16.0001 5.92833C16.0001 5.76415 15.9678 5.60158 15.9049 5.44991C15.8421 5.29823 15.75 5.16042 15.6339 5.04434ZM5.11592 15.5623H1.62452V12.0709L8.49952 5.1959L11.9909 8.68731L5.11592 15.5623ZM12.8745 7.80372L9.38389 4.31231L11.2589 2.43731L14.7495 5.92872L12.8745 7.80372Z" fill="#23E7A0"/>
<path d="M30.2402 2.93164V3.73828C30.2402 4.55176 30.2402 5.57715 29.9805 6.91016H31.6621V7.94922H20.4512V6.91016H28.6816C28.9277 5.66602 28.9551 4.72949 28.9551 3.9707H21.8594V2.93164H30.2402ZM30.2539 9.04297V12.2559H23.0762V13.5H30.5684V14.5391H21.7773V11.2578H28.9688V10.082H21.7637V9.04297H30.2539ZM36.3516 4.88672C36.3516 6.04199 36.9053 7.48438 38.1426 8.33203C39.3594 7.49805 39.9199 6.07617 39.9199 4.88672V3.35547H41.2324V4.88672C41.2188 6.37695 42.0254 7.9082 43.666 8.5918L42.9551 9.5625C41.7793 9.0498 40.9863 8.09277 40.5625 6.95117C40.1523 8.12695 39.373 9.16602 38.1289 9.71289C36.8779 9.16602 36.085 8.08594 35.6816 6.91016C35.251 8.03809 34.458 9.03613 33.3027 9.5625L32.6055 8.5918C34.2051 7.88086 35.0391 6.25391 35.0527 4.88672V3.35547H36.3516V4.88672ZM43.748 11.9824V13.0488H32.5508V11.9824H43.748ZM54.8359 2.41211V14.6621H53.5234V2.41211H54.8359ZM51.1855 3.72461C51.1855 7.30664 49.6543 10.4238 45.457 12.4336L44.7734 11.3809C48.0342 9.8291 49.6201 7.62109 49.873 4.76367H45.3613V3.72461H51.1855Z" fill="#23E7A0"/>
</svg>
