<svg width="40" height="40" viewBox="0 0 40 40" fill="none" xmlns="http://www.w3.org/2000/svg">
<path d="M20.4999 7.55355L27.0069 4.79855C27.7459 4.48555 27.7459 3.43855 27.0069 3.12555L20.3579 0.310547C20.4449 0.400547 20.4999 0.522547 20.4999 0.657547V7.55355Z" fill="#4592FB"/>
<path d="M20.5 7.8662V0.658203C20.5 0.523203 20.445 0.401203 20.358 0.311203C20.267 0.217203 20.141 0.158203 20 0.158203C19.724 0.158203 19.5 0.382203 19.5 0.658203V7.8662C19.816 7.6982 20.184 7.6982 20.5 7.8662Z" fill="#333D4B"/>
<path d="M25.6738 37.707H33.8428C35.0338 37.707 35.9998 36.741 35.9998 35.55V17.292H25.6738V37.707Z" fill="#D0D5DA"/>
<path d="M4 17.291V35.549C4 36.74 4.966 37.706 6.157 37.706H14.326V17.29L4 17.291Z" fill="#D0D5DA"/>
<path d="M36 16.2097V17.2897H25.67L20 11.5897L14.33 17.2897H4V16.2097C4 15.0197 4.97 14.0497 6.16 14.0497H13.25L19.24 8.03969C19.31 7.95969 19.41 7.91969 19.5 7.86969C19.82 7.69969 20.18 7.69969 20.5 7.86969C20.59 7.91969 20.69 7.95969 20.76 8.03969L26.75 14.0497H33.84C35.03 14.0497 36 15.0197 36 16.2097Z" fill="#4592FB"/>
<path d="M25.6742 17.2909L20.0002 11.5889L14.3262 17.2909V37.7069H25.6742V17.2909ZM22.6972 37.7069H17.3042V33.5199C17.3042 32.8539 17.8442 32.3139 18.5102 32.3139H21.4912C22.1572 32.3139 22.6972 32.8539 22.6972 33.5199V37.7069ZM20.0002 24.6899C17.9572 24.6899 16.3012 23.0339 16.3012 20.9919C16.3012 18.9499 17.9572 17.2929 20.0002 17.2929C22.0432 17.2929 23.6992 18.9489 23.6992 20.9919C23.6992 23.0349 22.0432 24.6899 20.0002 24.6899Z" fill="#E5E9EE"/>
<path d="M19.9998 17.292C17.9568 17.292 16.3008 18.948 16.3008 20.991C16.3008 23.034 17.9568 24.689 19.9998 24.689C22.0428 24.689 23.6988 23.033 23.6988 20.991C23.6988 18.949 22.0428 17.292 19.9998 17.292ZM20.4998 21.5H18.2258C17.9498 21.5 17.7258 21.276 17.7258 21C17.7258 20.724 17.9498 20.5 18.2258 20.5H19.4998V18.688C19.4998 18.412 19.7238 18.188 19.9998 18.188C20.2758 18.188 20.4998 18.412 20.4998 18.688V21.5Z" fill="white"/>
<path d="M21.4912 32.3135H18.5102C17.8442 32.3135 17.3042 32.8535 17.3042 33.5195V37.7065H22.6972V33.5195C22.6972 32.8535 22.1572 32.3135 21.4912 32.3135Z" fill="#6B7683"/>
<path d="M20.0001 18.1885C19.7241 18.1885 19.5001 18.4125 19.5001 18.6885V20.5005H18.2261C17.9501 20.5005 17.7261 20.7245 17.7261 21.0005C17.7261 21.2765 17.9501 21.5005 18.2261 21.5005H20.5001V18.6885C20.5001 18.4125 20.2761 18.1885 20.0001 18.1885Z" fill="#6B7683"/>
</svg>
