<svg width="55" height="29" viewBox="0 0 55 29" fill="none" xmlns="http://www.w3.org/2000/svg">
<rect x="0.5" y="1.5" width="54" height="26" rx="13" fill="#0099FF" fill-opacity="0.06"/>
<rect x="0.5" y="1.5" width="54" height="26" rx="13" stroke="#0099FF"/>
<path d="M20.8107 10.191C19.9585 9.33881 18.8727 8.75845 17.6906 8.52333C16.5085 8.28821 15.2833 8.4089 14.1698 8.87013C13.0563 9.33135 12.1046 10.1124 11.4351 11.1145C10.7655 12.1166 10.4081 13.2948 10.4081 14.5C10.4081 15.7052 10.7655 16.8834 11.4351 17.8855C12.1046 18.8876 13.0563 19.6687 14.1698 20.1299C15.2833 20.5911 16.5085 20.7118 17.6906 20.4767C18.8727 20.2416 19.9585 19.6612 20.8107 18.809C21.3808 18.2455 21.8334 17.5745 22.1423 16.8348C22.4512 16.0952 22.6103 15.3016 22.6103 14.5C22.6103 13.6984 22.4512 12.9048 22.1423 12.1652C21.8334 11.4255 21.3808 10.7545 20.8107 10.191ZM12.8525 10.8537C13.6962 10.0088 14.808 9.48442 15.9966 9.37071C15.8821 10.5593 15.3554 11.6703 14.5078 12.5113C13.6656 13.3574 12.5543 13.8828 11.366 13.9967C11.4807 12.808 12.0064 11.6965 12.8525 10.8537ZM11.3631 14.9383C12.8024 14.8234 14.1532 14.1976 15.1716 13.174C16.1959 12.1559 16.8221 10.805 16.9371 9.36543C18.1489 9.46646 19.2857 9.99357 20.1458 10.8532C21.0058 11.7128 21.5335 12.8494 21.6351 14.0611C20.1963 14.179 18.846 14.8038 17.8249 15.8243C16.8037 16.8448 16.1781 18.1946 16.0593 19.6334C14.8475 19.5324 13.7107 19.0053 12.8507 18.1456C11.9906 17.286 11.4629 16.1494 11.3613 14.9377L11.3631 14.9383ZM20.1474 18.1463C19.3035 18.9909 18.1918 19.5153 17.0033 19.6293C17.1203 18.4417 17.6457 17.3314 18.4898 16.4879C19.3339 15.6443 20.4445 15.1196 21.6322 15.0033C21.518 16.1918 20.9929 17.3033 20.1474 18.1463Z" fill="#0099FF"/>
<path d="M35.6895 14.0566H37.0469V14.9551H35.6895V19.3691H34.6152V10.541H35.6895V14.0566ZM33.9316 12.7676H28.7266V11.8984H30.8164V10.668H31.9004V11.8984H33.9316V12.7676ZM31.3633 13.3438C31.7832 13.3438 32.1608 13.4333 32.4961 13.6123C32.8346 13.7881 33.0999 14.0339 33.292 14.3496C33.484 14.6654 33.5801 15.0234 33.5801 15.4238C33.5801 15.8242 33.484 16.1823 33.292 16.498C33.0999 16.8105 32.8346 17.0547 32.4961 17.2305C32.1608 17.4062 31.7832 17.4941 31.3633 17.4941C30.9368 17.4941 30.5544 17.4062 30.2158 17.2305C29.8773 17.0547 29.612 16.8105 29.4199 16.498C29.2279 16.1823 29.1335 15.8242 29.1367 15.4238C29.1335 15.0234 29.2279 14.6654 29.4199 14.3496C29.612 14.0339 29.8773 13.7881 30.2158 13.6123C30.5544 13.4333 30.9368 13.3438 31.3633 13.3438ZM31.3633 14.2324C31.1322 14.2324 30.9255 14.2812 30.7432 14.3789C30.5641 14.4766 30.4242 14.6165 30.3232 14.7988C30.2223 14.9779 30.1719 15.1862 30.1719 15.4238C30.1719 15.6615 30.2223 15.8698 30.3232 16.0488C30.4242 16.2246 30.5641 16.3613 30.7432 16.459C30.9255 16.5534 31.1322 16.599 31.3633 16.5957C31.5879 16.599 31.7881 16.5534 31.9639 16.459C32.1429 16.3613 32.2829 16.2246 32.3838 16.0488C32.488 15.8698 32.5417 15.6615 32.5449 15.4238C32.5417 15.1862 32.488 14.9779 32.3838 14.7988C32.2829 14.6198 32.1429 14.4814 31.9639 14.3838C31.7881 14.2829 31.5879 14.2324 31.3633 14.2324ZM44.4043 12.25C44.4043 12.7448 44.3978 13.1712 44.3848 13.5293C44.375 13.8874 44.3473 14.2992 44.3018 14.7646C44.2562 15.2269 44.1829 15.7266 44.082 16.2637L43.0176 16.1562C43.151 15.4368 43.234 14.7891 43.2666 14.2129C43.3024 13.6367 43.3203 12.9824 43.3203 12.25V12.2207H37.9785V11.3516H44.4043V12.25ZM45.2148 18.2266H37.168V17.3379H38.9746V14.5254H40.0586V17.3379H41.1816V14.5254H42.2461V17.3379H45.2148V18.2266Z" fill="#0099FF"/>
</svg>
