<svg width="30" height="30" viewBox="0 0 30 30" fill="none" xmlns="http://www.w3.org/2000/svg">
<g clip-path="url(#clip0_3781_3369)">
<path d="M3.2054 27.3752H14.9999V11.5165L10.1647 2.81348L5.3279 3.89348C4.94915 3.97823 4.6799 4.31423 4.6799 4.70198V12.9077C4.6799 14.1152 3.70115 15.094 2.49365 15.094V26.6627C2.49365 27.0557 2.8124 27.3752 3.2054 27.3752Z" fill="#FF7442"/>
<path d="M26.7945 27.3752H15V11.5165L19.8353 2.81348L24.672 3.89348C25.0507 3.97823 25.32 4.31423 25.32 4.70198V12.9077C25.32 14.1152 26.2987 15.094 27.5062 15.094V26.6627C27.5062 27.0557 27.1875 27.3752 26.7945 27.3752Z" fill="#FF7442"/>
<path d="M23.4294 19.2795V3.61347L20.5861 2.98047V19.2787C20.5861 19.6147 20.3139 19.887 19.9779 19.887H10.0216C9.68565 19.887 9.4134 19.6147 9.4134 19.2787V2.98122L6.57015 3.61647V19.2795C6.57015 19.6155 6.2979 19.8877 5.9619 19.8877H2.4939V22.689H27.5071V19.8877H24.0384C23.7024 19.8877 23.4294 19.6155 23.4294 19.2795Z" fill="#D0D6DE"/>
<path d="M15.0001 13.1318L9.41406 2.98125L10.9598 2.6295L15.0001 9.9015L19.0433 2.625L20.5861 2.98125L15.0001 13.1318Z" fill="#333D4B"/>
<path d="M15.7846 11.5166H14.2163V27.3746H15.7846V11.5166Z" fill="#333D4B"/>
</g>
<defs>
<clipPath id="clip0_3781_3369">
<rect width="30" height="30" fill="white"/>
</clipPath>
</defs>
</svg>
