<svg width="70" height="70" viewBox="0 0 70 70" fill="none" xmlns="http://www.w3.org/2000/svg">
<g clip-path="url(#clip0_4097_7275)">
<path d="M35.0001 65.4667C51.8258 65.4667 65.4658 51.8267 65.4658 35.0009C65.4658 18.1751 51.8258 4.53516 35.0001 4.53516C18.1743 4.53516 4.5343 18.1751 4.5343 35.0009C4.5343 51.8267 18.1743 65.4667 35.0001 65.4667Z" fill="#FFC84D"/>
<path d="M35 55.6425C36.9843 55.6425 38.5928 54.034 38.5928 52.0498C38.5928 50.0656 36.9843 48.457 35 48.457C33.0158 48.457 31.4073 50.0656 31.4073 52.0498C31.4073 54.034 33.0158 55.6425 35 55.6425Z" fill="#FF6D00"/>
<path d="M46.9193 29.2595H39.0933C38.4178 29.2595 37.8036 28.871 37.5131 28.2603C37.2226 27.6495 37.31 26.9268 37.737 26.4035L41.9808 21.1973H38.8833C37.9156 21.1973 37.1333 20.4133 37.1333 19.4473C37.1333 18.4813 37.9156 17.6973 38.8833 17.6973H45.6646C46.3401 17.6973 46.9543 18.0858 47.2448 18.6965C47.5353 19.3073 47.4478 20.03 47.0208 20.5533L42.7771 25.7595H46.9176C47.8853 25.7595 48.6676 26.5435 48.6676 27.5095C48.6676 28.4755 47.8853 29.2595 46.9176 29.2595H46.9193Z" fill="#6391FF"/>
<path d="M61.6053 24.9746H51.0371C50.3616 24.9746 49.7473 24.5861 49.4568 23.9754C49.1663 23.3646 49.2538 22.6419 49.6808 22.1186L56.2258 14.0879H50.7553C49.7876 14.0879 49.0053 13.3039 49.0053 12.3379C49.0053 11.3719 49.7876 10.5879 50.7553 10.5879H59.9096C60.5851 10.5879 61.1993 10.9764 61.4898 11.5871C61.7803 12.1979 61.6911 12.9206 61.2658 13.4439L54.7208 21.4746H61.6053C62.5731 21.4746 63.3553 22.2586 63.3553 23.2246C63.3553 24.1906 62.5731 24.9746 61.6053 24.9746Z" fill="#6391FF"/>
<path d="M21.3395 37.6689C20.9073 37.4554 20.4103 37.8299 20.5065 38.3024C21.0403 40.9256 23.2978 42.8961 26.0015 42.8961C28.7053 42.8961 30.9628 40.9256 31.4965 38.3024C31.5928 37.8299 31.0958 37.4554 30.6635 37.6689C29.7203 38.1344 28.1138 38.7206 26.0015 38.7206C23.8893 38.7206 22.2828 38.1344 21.3395 37.6689Z" fill="black"/>
<path d="M48.6605 37.6689C49.0928 37.4554 49.5898 37.8299 49.4935 38.3024C48.9598 40.9256 46.7023 42.8961 43.9985 42.8961C41.2948 42.8961 39.0373 40.9256 38.5035 38.3024C38.4073 37.8299 38.9043 37.4554 39.3365 37.6689C40.2798 38.1344 41.8863 38.7206 43.9985 38.7206C46.109 38.7206 47.7173 38.1344 48.6605 37.6689Z" fill="black"/>
</g>
<defs>
<clipPath id="clip0_4097_7275">
<rect width="70" height="70" fill="white"/>
</clipPath>
</defs>
</svg>
