<svg width="70" height="70" viewBox="0 0 70 70" fill="none" xmlns="http://www.w3.org/2000/svg">
<g clip-path="url(#clip0_3381_440)">
<path d="M35 65.625C51.9137 65.625 65.625 51.9137 65.625 35C65.625 18.0863 51.9137 4.375 35 4.375C18.0863 4.375 4.375 18.0863 4.375 35C4.375 51.9137 18.0863 65.625 35 65.625Z" fill="#FFC84D"/>
<path d="M51.7037 37.4697C52.9865 37.4697 54.0225 38.6177 53.7862 39.8777C52.381 47.3992 44.4972 53.1585 34.9825 53.1585C25.4677 53.1585 17.584 47.3992 16.1787 39.8777C15.9425 38.6177 16.9802 37.4697 18.2612 37.4697H51.7037Z" fill="#FF6D00"/>
<path d="M34.9842 41.9025C41.223 41.9025 46.9962 40.2575 51.7055 37.4697H18.2612C22.9705 40.2575 28.7455 41.9025 34.9842 41.9025Z" fill="white"/>
<path d="M26.9886 31.0728C29.0317 31.0728 30.6881 29.4165 30.6881 27.3733C30.6881 25.3302 29.0317 23.6738 26.9886 23.6738C24.9454 23.6738 23.2891 25.3302 23.2891 27.3733C23.2891 29.4165 24.9454 31.0728 26.9886 31.0728Z" fill="black"/>
<path d="M43.0115 31.0728C45.0547 31.0728 46.711 29.4165 46.711 27.3733C46.711 25.3302 45.0547 23.6738 43.0115 23.6738C40.9683 23.6738 39.312 25.3302 39.312 27.3733C39.312 29.4165 40.9683 31.0728 43.0115 31.0728Z" fill="black"/>
</g>
<defs>
<clipPath id="clip0_3381_440">
<rect width="70" height="70" fill="white"/>
</clipPath>
</defs>
</svg>
