<svg width="15" height="15" viewBox="0 0 15 15" fill="none" xmlns="http://www.w3.org/2000/svg">
<path d="M7.5 1.40625C6.29477 1.40625 5.11661 1.76364 4.1145 2.43323C3.11238 3.10282 2.33133 4.05454 1.87011 5.16802C1.40889 6.28151 1.28821 7.50676 1.52334 8.68883C1.75847 9.8709 2.33884 10.9567 3.19107 11.8089C4.0433 12.6612 5.1291 13.2415 6.31117 13.4767C7.49324 13.7118 8.71849 13.5911 9.83198 13.1299C10.9455 12.6687 11.8972 11.8876 12.5668 10.8855C13.2364 9.88339 13.5938 8.70523 13.5938 7.5C13.592 5.88436 12.9495 4.33538 11.807 3.19295C10.6646 2.05052 9.11564 1.40796 7.5 1.40625ZM5.39063 5.625C5.52969 5.625 5.66563 5.66624 5.78126 5.7435C5.89689 5.82076 5.98701 5.93057 6.04023 6.05905C6.09345 6.18753 6.10737 6.3289 6.08024 6.4653C6.05311 6.60169 5.98615 6.72698 5.88781 6.82531C5.78948 6.92364 5.66419 6.99061 5.5278 7.01774C5.39141 7.04487 5.25003 7.03095 5.12155 6.97773C4.99307 6.92451 4.88326 6.83439 4.806 6.71876C4.72874 6.60313 4.6875 6.46719 4.6875 6.32812C4.6875 6.14164 4.76158 5.9628 4.89344 5.83094C5.0253 5.69908 5.20415 5.625 5.39063 5.625ZM10.2492 9.14062C9.64629 10.183 8.64434 10.7812 7.5 10.7812C6.35567 10.7812 5.35371 10.1836 4.75078 9.14062C4.71687 9.08727 4.69409 9.02761 4.68383 8.96523C4.67357 8.90285 4.67604 8.83903 4.69108 8.77763C4.70612 8.71623 4.73343 8.6585 4.77135 8.60792C4.80928 8.55734 4.85705 8.51496 4.91179 8.48332C4.96652 8.45168 5.02709 8.43145 5.08985 8.42382C5.1526 8.4162 5.21626 8.42135 5.27697 8.43896C5.33769 8.45658 5.39422 8.48629 5.44315 8.52632C5.49208 8.56634 5.53242 8.61586 5.56172 8.67187C5.99942 9.42832 6.68731 9.84375 7.5 9.84375C8.3127 9.84375 9.00059 9.42773 9.43828 8.67187C9.46759 8.61586 9.50792 8.56634 9.55686 8.52632C9.60579 8.48629 9.66232 8.45658 9.72303 8.43896C9.78375 8.42135 9.8474 8.4162 9.91016 8.42382C9.97292 8.43145 10.0335 8.45168 10.0882 8.48332C10.143 8.51496 10.1907 8.55734 10.2287 8.60792C10.2666 8.6585 10.2939 8.71623 10.3089 8.77763C10.324 8.83903 10.3264 8.90285 10.3162 8.96523C10.3059 9.02761 10.2831 9.08727 10.2492 9.14062ZM9.60938 7.03125C9.47031 7.03125 9.33437 6.99001 9.21874 6.91275C9.10311 6.83549 9.01299 6.72568 8.95977 6.5972C8.90656 6.46872 8.89263 6.32734 8.91976 6.19095C8.94689 6.05456 9.01386 5.92927 9.11219 5.83094C9.21053 5.73261 9.33581 5.66564 9.4722 5.63851C9.6086 5.61138 9.74997 5.6253 9.87845 5.67852C10.0069 5.73174 10.1167 5.82186 10.194 5.93749C10.2713 6.05312 10.3125 6.18906 10.3125 6.32812C10.3125 6.51461 10.2384 6.69345 10.1066 6.82531C9.9747 6.95717 9.79586 7.03125 9.60938 7.03125Z" fill="#23E7A0"/>
</svg>
