<svg width="80" height="80" viewBox="0 0 80 80" fill="none" xmlns="http://www.w3.org/2000/svg">
<g clip-path="url(#clip0_1617_6881)">
<circle cx="40" cy="40" r="40" fill="#E8F8FF"/>
<g clip-path="url(#clip1_1617_6881)">
<path d="M40.0253 66.0761C41.8317 66.0761 43.325 64.7685 43.6285 63.0492C43.6656 62.841 43.693 62.6279 43.693 62.4099V58.7422H36.3575V62.4099C36.3575 62.6424 36.385 62.8668 36.4253 63.0863C36.7434 64.7878 38.2302 66.0761 40.0253 66.0761Z" fill="#FFCBA7"/>
<path d="M63.1102 80.4383L62.2416 76.9078C61.9043 75.5356 61.4587 74.178 60.7549 72.9511C59.0388 69.9614 56.3316 67.6287 53.061 66.3856L46.2663 63.8043C45.4058 63.4766 44.5228 63.2345 43.6301 63.0488C43.3266 64.7681 41.8333 66.0757 40.0269 66.0757C38.2334 66.0757 36.745 64.7858 36.427 63.0843C35.5891 63.2668 34.7578 63.4944 33.9474 63.8027L27.1527 66.384C23.8821 67.6271 21.1732 69.9598 19.4588 72.9495C18.755 74.1764 18.3094 75.5324 17.972 76.9062L17.1035 80.4367C16.9727 80.9711 17.3763 81.486 17.9252 81.486H62.2885C62.8373 81.486 63.2425 80.9727 63.1102 80.4383Z" fill="#17C7FE"/>
<g clip-path="url(#clip2_1617_6881)">
<path d="M39.6202 61.7566C49.0891 61.7566 56.7651 54.0806 56.7651 44.6117C56.7651 35.1428 49.0891 27.4668 39.6202 27.4668C30.1514 27.4668 22.4753 35.1428 22.4753 44.6117C22.4753 54.0806 30.1514 61.7566 39.6202 61.7566Z" fill="#FFCCA8"/>
<path d="M23.9729 51.5303C27.7635 51.5303 30.8364 48.6483 30.8364 45.0933C30.8364 41.5382 27.7635 38.6562 23.9729 38.6562C20.1822 38.6562 17.1093 41.5382 17.1093 45.0933C17.1093 48.6483 20.1822 51.5303 23.9729 51.5303Z" fill="#FFCCA8"/>
<path d="M55.2677 51.5303C59.0583 51.5303 62.1313 48.6483 62.1313 45.0933C62.1313 41.5382 59.0583 38.6562 55.2677 38.6562C51.477 38.6562 48.4041 41.5382 48.4041 45.0933C48.4041 48.6483 51.477 51.5303 55.2677 51.5303Z" fill="#FFCCA8"/>
<path d="M34.8035 45.9703C35.811 45.9703 36.6277 44.9901 36.6277 43.781C36.6277 42.5719 35.811 41.5918 34.8035 41.5918C33.7961 41.5918 32.9794 42.5719 32.9794 43.781C32.9794 44.9901 33.7961 45.9703 34.8035 45.9703Z" fill="black"/>
<path d="M44.4367 45.9703C45.4441 45.9703 46.2608 44.9901 46.2608 43.781C46.2608 42.5719 45.4441 41.5918 44.4367 41.5918C43.4292 41.5918 42.6125 42.5719 42.6125 43.781C42.6125 44.9901 43.4292 45.9703 44.4367 45.9703Z" fill="black"/>
<path d="M41.8902 52.4141C42.3002 52.4141 42.5922 52.8086 42.4833 53.2032C42.1375 54.4598 40.9871 55.3821 39.6216 55.3821C38.256 55.3821 37.1044 54.4598 36.7598 53.2032C36.6509 52.8073 36.9417 52.4141 37.3529 52.4141H41.8928H41.8902Z" fill="#5C2F17"/>
<path d="M59.3783 39.6953C59.5512 27.9242 49.4236 18.3129 37.4309 19.6003C28.2064 20.5905 20.8202 28.0882 19.9504 37.3242C19.862 38.2645 19.8389 39.1919 19.8786 40.104C19.8786 40.104 26.2952 40.4883 32.0315 33.2967C32.0315 33.2967 35.8322 37.3934 39.6214 37.3934C43.4106 37.3934 46.8706 33.2967 46.8706 33.2967C46.8706 33.2967 49.7989 39.6838 59.3808 39.6953H59.3783Z" fill="#333333"/>
</g>
</g>
</g>
<defs>
<clipPath id="clip0_1617_6881">
<rect width="80" height="80" rx="40" fill="white"/>
</clipPath>
<clipPath id="clip1_1617_6881">
<rect width="80" height="80" fill="white" transform="translate(0 12)"/>
</clipPath>
<clipPath id="clip2_1617_6881">
<rect width="51.24" height="51.24" fill="white" transform="translate(14 15)"/>
</clipPath>
</defs>
</svg>
