<svg width="15" height="15" viewBox="0 0 15 15" fill="none" xmlns="http://www.w3.org/2000/svg">
<path d="M7.03125 2.34375V1.875C7.03125 1.75068 7.08064 1.63145 7.16854 1.54354C7.25645 1.45564 7.37568 1.40625 7.5 1.40625C7.62432 1.40625 7.74355 1.45564 7.83146 1.54354C7.91936 1.63145 7.96875 1.75068 7.96875 1.875V2.34375C7.96875 2.46807 7.91936 2.5873 7.83146 2.67521C7.74355 2.76311 7.62432 2.8125 7.5 2.8125C7.37568 2.8125 7.25645 2.76311 7.16854 2.67521C7.08064 2.5873 7.03125 2.46807 7.03125 2.34375ZM11.25 7.5C11.25 8.24168 11.0301 8.9667 10.618 9.58339C10.206 10.2001 9.62029 10.6807 8.93506 10.9645C8.24984 11.2484 7.49584 11.3226 6.76841 11.1779C6.04098 11.0333 5.3728 10.6761 4.84835 10.1517C4.3239 9.6272 3.96675 8.95902 3.82206 8.23159C3.67736 7.50416 3.75162 6.75016 4.03545 6.06494C4.31928 5.37971 4.79993 4.79404 5.41661 4.38199C6.0333 3.96993 6.75832 3.75 7.5 3.75C8.49423 3.75109 9.44743 4.14652 10.1505 4.84955C10.8535 5.55258 11.2489 6.50577 11.25 7.5ZM10.3125 7.5C10.3125 6.94374 10.1475 6.39997 9.83851 5.93746C9.52947 5.47495 9.09021 5.11446 8.5763 4.90159C8.06238 4.68872 7.49688 4.63302 6.95131 4.74154C6.40574 4.85006 5.9046 5.11793 5.51126 5.51126C5.11793 5.9046 4.85006 6.40574 4.74154 6.95131C4.63302 7.49688 4.68872 8.06238 4.90159 8.5763C5.11446 9.09021 5.47495 9.52947 5.93746 9.83851C6.39997 10.1475 6.94374 10.3125 7.5 10.3125C8.24568 10.3117 8.9606 10.0152 9.48788 9.48788C10.0152 8.9606 10.3117 8.24568 10.3125 7.5ZM3.41836 4.08164C3.50632 4.1696 3.62561 4.21901 3.75 4.21901C3.87439 4.21901 3.99368 4.1696 4.08164 4.08164C4.1696 3.99368 4.21901 3.87439 4.21901 3.75C4.21901 3.62561 4.1696 3.50632 4.08164 3.41836L3.61289 2.94961C3.52493 2.86165 3.40564 2.81224 3.28125 2.81224C3.15686 2.81224 3.03757 2.86165 2.94961 2.94961C2.86165 3.03757 2.81224 3.15686 2.81224 3.28125C2.81224 3.40564 2.86165 3.52493 2.94961 3.61289L3.41836 4.08164ZM3.41836 10.9184L2.94961 11.3871C2.86165 11.4751 2.81224 11.5944 2.81224 11.7188C2.81224 11.8431 2.86165 11.9624 2.94961 12.0504C3.03757 12.1383 3.15686 12.1878 3.28125 12.1878C3.40564 12.1878 3.52493 12.1383 3.61289 12.0504L4.08164 11.5816C4.12519 11.5381 4.15974 11.4864 4.18331 11.4295C4.20688 11.3726 4.21901 11.3116 4.21901 11.25C4.21901 11.1884 4.20688 11.1274 4.18331 11.0705C4.15974 11.0136 4.12519 10.9619 4.08164 10.9184C4.03809 10.8748 3.98639 10.8403 3.92948 10.8167C3.87258 10.7931 3.81159 10.781 3.75 10.781C3.68841 10.781 3.62742 10.7931 3.57052 10.8167C3.51361 10.8403 3.46191 10.8748 3.41836 10.9184ZM11.25 4.21875C11.3116 4.2188 11.3726 4.20671 11.4295 4.18319C11.4864 4.15966 11.5381 4.12516 11.5816 4.08164L12.0504 3.61289C12.1383 3.52493 12.1878 3.40564 12.1878 3.28125C12.1878 3.15686 12.1383 3.03757 12.0504 2.94961C11.9624 2.86165 11.8431 2.81224 11.7188 2.81224C11.5944 2.81224 11.4751 2.86165 11.3871 2.94961L10.9184 3.41836C10.8527 3.48392 10.808 3.56747 10.7899 3.65845C10.7718 3.74943 10.7811 3.84373 10.8166 3.92943C10.8521 4.01513 10.9122 4.08837 10.9894 4.13987C11.0665 4.19137 11.1572 4.21882 11.25 4.21875ZM11.5816 10.9184C11.4937 10.8304 11.3744 10.781 11.25 10.781C11.1256 10.781 11.0063 10.8304 10.9184 10.9184C10.8304 11.0063 10.781 11.1256 10.781 11.25C10.781 11.3744 10.8304 11.4937 10.9184 11.5816L11.3871 12.0504C11.4307 12.0939 11.4824 12.1285 11.5393 12.1521C11.5962 12.1756 11.6572 12.1878 11.7188 12.1878C11.7803 12.1878 11.8413 12.1756 11.8982 12.1521C11.9551 12.1285 12.0068 12.0939 12.0504 12.0504C12.0939 12.0068 12.1285 11.9551 12.1521 11.8982C12.1756 11.8413 12.1878 11.7803 12.1878 11.7188C12.1878 11.6572 12.1756 11.5962 12.1521 11.5393C12.1285 11.4824 12.0939 11.4307 12.0504 11.3871L11.5816 10.9184ZM2.34375 7.03125H1.875C1.75068 7.03125 1.63145 7.08064 1.54354 7.16854C1.45564 7.25645 1.40625 7.37568 1.40625 7.5C1.40625 7.62432 1.45564 7.74355 1.54354 7.83146C1.63145 7.91936 1.75068 7.96875 1.875 7.96875H2.34375C2.46807 7.96875 2.5873 7.91936 2.67521 7.83146C2.76311 7.74355 2.8125 7.62432 2.8125 7.5C2.8125 7.37568 2.76311 7.25645 2.67521 7.16854C2.5873 7.08064 2.46807 7.03125 2.34375 7.03125ZM7.5 12.1875C7.37568 12.1875 7.25645 12.2369 7.16854 12.3248C7.08064 12.4127 7.03125 12.5319 7.03125 12.6562V13.125C7.03125 13.2493 7.08064 13.3685 7.16854 13.4565C7.25645 13.5444 7.37568 13.5938 7.5 13.5938C7.62432 13.5938 7.74355 13.5444 7.83146 13.4565C7.91936 13.3685 7.96875 13.2493 7.96875 13.125V12.6562C7.96875 12.5319 7.91936 12.4127 7.83146 12.3248C7.74355 12.2369 7.62432 12.1875 7.5 12.1875ZM13.125 7.03125H12.6562C12.5319 7.03125 12.4127 7.08064 12.3248 7.16854C12.2369 7.25645 12.1875 7.37568 12.1875 7.5C12.1875 7.62432 12.2369 7.74355 12.3248 7.83146C12.4127 7.91936 12.5319 7.96875 12.6562 7.96875H13.125C13.2493 7.96875 13.3685 7.91936 13.4565 7.83146C13.5444 7.74355 13.5938 7.62432 13.5938 7.5C13.5938 7.37568 13.5444 7.25645 13.4565 7.16854C13.3685 7.08064 13.2493 7.03125 13.125 7.03125Z" fill="currentColor"/>
</svg>
