<svg width="46" height="26" viewBox="0 0 46 26" fill="none" xmlns="http://www.w3.org/2000/svg">
<path d="M18.8341 5.374C18.8341 5.634 18.7561 5.842 18.6001 5.998C18.4614 6.13667 18.2708 6.19733 18.0281 6.18C16.8148 6.11067 15.6448 6.05 14.5181 5.998C13.4088 5.92867 12.3254 5.894 11.2681 5.894C10.2801 5.894 9.45678 5.91133 8.79811 5.946C8.13944 5.98067 7.61944 6.04133 7.23811 6.128C6.85678 6.21467 6.58811 6.336 6.43211 6.492C6.27611 6.63067 6.19811 6.81267 6.19811 7.038C6.19811 7.26333 6.25878 7.454 6.38011 7.61C6.50144 7.74867 6.72678 7.86133 7.05611 7.948C7.38544 8.03467 7.83611 8.09533 8.40811 8.13C8.98011 8.16467 9.70811 8.182 10.5921 8.182C11.0254 8.182 11.5281 8.17333 12.1001 8.156C12.6721 8.13867 13.2874 8.11267 13.9461 8.078C14.6221 8.026 15.3241 7.974 16.0521 7.922C16.7801 7.85267 17.5081 7.78333 18.2361 7.714C18.7214 7.662 18.9901 7.93067 19.0421 8.52L19.1721 10.106C19.2241 10.5913 18.9554 10.86 18.3661 10.912C17.4474 10.9987 16.5201 11.0853 15.5841 11.172C14.6481 11.2413 13.7468 11.2933 12.8801 11.328V11.978C12.8801 12.4807 13.1921 12.7493 13.8161 12.784C14.1281 12.8013 14.5441 12.81 15.0641 12.81C15.6014 12.7927 16.1734 12.7753 16.7801 12.758C17.3868 12.7407 18.0021 12.7147 18.6261 12.68C19.2501 12.6453 19.8134 12.6107 20.3161 12.576C20.9054 12.524 21.2001 12.784 21.2001 13.356V14.89C21.2001 15.3927 20.9141 15.67 20.3421 15.722C19.9434 15.7567 19.4148 15.7913 18.7561 15.826C18.1148 15.8433 17.3868 15.8607 16.5721 15.878C15.7574 15.8953 14.8734 15.9127 13.9201 15.93C12.9841 15.93 12.0048 15.93 10.9821 15.93C9.14478 15.93 7.41144 15.9213 5.78211 15.904C4.17011 15.8693 2.79211 15.8087 1.64811 15.722C1.07611 15.67 0.790109 15.3927 0.790109 14.89V13.356C0.790109 12.784 1.07611 12.524 1.64811 12.576C2.13344 12.6107 2.68811 12.6453 3.31211 12.68C3.95344 12.6973 4.62944 12.7147 5.34011 12.732C6.05078 12.7493 6.77878 12.7667 7.52411 12.784C8.26944 12.8013 8.98878 12.81 9.68211 12.81C9.30078 12.654 9.11011 12.3507 9.11011 11.9V11.328C7.89678 11.276 6.86544 11.1633 6.01611 10.99C5.16678 10.7993 4.47344 10.5307 3.93611 10.184C3.41611 9.83733 3.03478 9.404 2.79211 8.884C2.54944 8.364 2.42811 7.74867 2.42811 7.038C2.42811 6.24067 2.58411 5.56467 2.89611 5.01C3.22544 4.45533 3.73678 4.01333 4.43011 3.684C5.14078 3.33733 6.05944 3.086 7.18611 2.93C8.33011 2.774 9.71678 2.696 11.3461 2.696C12.2994 2.696 13.2961 2.71333 14.3361 2.748C15.3761 2.76533 16.6068 2.84333 18.0281 2.982C18.5654 3.034 18.8341 3.30267 18.8341 3.788V5.374ZM11.1901 16.788C12.7674 16.788 14.1194 16.8747 15.2461 17.048C16.3728 17.204 17.2914 17.464 18.0021 17.828C18.7128 18.192 19.2328 18.66 19.5621 19.232C19.9088 19.804 20.0821 20.4973 20.0821 21.312C20.0821 22.1267 19.9088 22.82 19.5621 23.392C19.2328 23.964 18.7128 24.432 18.0021 24.796C17.2914 25.16 16.3728 25.42 15.2461 25.576C14.1194 25.7493 12.7674 25.836 11.1901 25.836C9.61278 25.836 8.26078 25.7493 7.13411 25.576C6.00744 25.42 5.08878 25.16 4.37811 24.796C3.66744 24.432 3.13878 23.964 2.79211 23.392C2.46278 22.82 2.29811 22.1267 2.29811 21.312C2.29811 20.4973 2.46278 19.804 2.79211 19.232C3.13878 18.66 3.66744 18.192 4.37811 17.828C5.08878 17.464 6.00744 17.204 7.13411 17.048C8.26078 16.8747 9.61278 16.788 11.1901 16.788ZM6.06811 21.312C6.06811 21.5893 6.13744 21.8147 6.27611 21.988C6.43211 22.1787 6.70078 22.326 7.08211 22.43C7.46344 22.534 7.98344 22.6033 8.64211 22.638C9.31811 22.69 10.1674 22.716 11.1901 22.716C12.2128 22.716 13.0534 22.69 13.7121 22.638C14.3881 22.6033 14.9168 22.534 15.2981 22.43C15.6794 22.326 15.9394 22.1787 16.0781 21.988C16.2341 21.8147 16.3121 21.5893 16.3121 21.312C16.3121 21.0347 16.2341 20.8093 16.0781 20.636C15.9394 20.4453 15.6794 20.298 15.2981 20.194C14.9168 20.09 14.3881 20.0207 13.7121 19.986C13.0534 19.934 12.2128 19.908 11.1901 19.908C10.1674 19.908 9.31811 19.934 8.64211 19.986C7.98344 20.0207 7.46344 20.09 7.08211 20.194C6.70078 20.298 6.43211 20.4453 6.27611 20.636C6.13744 20.8093 6.06811 21.0347 6.06811 21.312ZM35.777 16.216C38.8103 16.216 41.1156 16.5973 42.693 17.36C44.2703 18.1053 45.059 19.3273 45.059 21.026C45.059 22.7247 44.2703 23.9467 42.693 24.692C41.1156 25.4547 38.8103 25.836 35.777 25.836C32.7436 25.836 30.4383 25.4547 28.861 24.692C27.2836 23.9467 26.495 22.7247 26.495 21.026C26.495 19.3273 27.2836 18.1053 28.861 17.36C30.4383 16.5973 32.7436 16.216 35.777 16.216ZM41.029 2.93C41.029 2.39267 41.2976 2.124 41.835 2.124H43.733C44.2703 2.124 44.539 2.39267 44.539 2.93V14.474C44.539 15.0113 44.2703 15.28 43.733 15.28H41.835C41.2976 15.28 41.029 15.0113 41.029 14.474V10.08H40.093C39.7983 10.08 39.5556 10.1753 39.365 10.366C39.1743 10.5393 39.079 10.7733 39.079 11.068V13.954C39.079 14.4913 38.8103 14.76 38.273 14.76H36.375C35.8376 14.76 35.569 14.4913 35.569 13.954V3.19C35.569 2.65267 35.8376 2.384 36.375 2.384H38.273C38.8103 2.384 39.079 2.65267 39.079 3.19V7.038C39.3043 6.726 39.6423 6.57 40.093 6.57H41.029V2.93ZM23.609 10.964C23.609 8.38133 25.2643 7.09 28.575 7.09C31.8856 7.09 33.541 8.38133 33.541 10.964C33.541 13.5467 31.8856 14.838 28.575 14.838C25.2643 14.838 23.609 13.5467 23.609 10.964ZM30.291 2.41C30.291 2.79133 30.525 2.982 30.993 2.982H33.541C34.0783 2.982 34.347 3.25067 34.347 3.788V5.348C34.347 5.88533 34.0783 6.154 33.541 6.154H23.635C23.0976 6.154 22.829 5.88533 22.829 5.348V3.788C22.829 3.25067 23.0976 2.982 23.635 2.982H27.301C27.041 2.826 26.911 2.57467 26.911 2.228V1.786C26.911 1.24867 27.1796 0.979999 27.717 0.979999H29.485C30.0223 0.979999 30.291 1.24867 30.291 1.786V2.41ZM30.265 21.026C30.265 21.3033 30.3603 21.5373 30.551 21.728C30.7416 21.936 31.0536 22.1007 31.487 22.222C31.9203 22.3433 32.4836 22.43 33.177 22.482C33.8876 22.5513 34.7543 22.586 35.777 22.586C36.7996 22.586 37.6576 22.5513 38.351 22.482C39.0616 22.43 39.6336 22.3433 40.067 22.222C40.5003 22.1007 40.8123 21.936 41.003 21.728C41.1936 21.5373 41.289 21.3033 41.289 21.026C41.289 20.7487 41.1936 20.5147 41.003 20.324C40.8123 20.116 40.5003 19.9513 40.067 19.83C39.6336 19.7087 39.0616 19.622 38.351 19.57C37.6576 19.5007 36.7996 19.466 35.777 19.466C34.7543 19.466 33.8876 19.5007 33.177 19.57C32.4836 19.622 31.9203 19.7087 31.487 19.83C31.0536 19.9513 30.7416 20.116 30.551 20.324C30.3603 20.5147 30.265 20.7487 30.265 21.026ZM27.041 10.964C27.041 11.588 27.5523 11.9 28.575 11.9C29.5976 11.9 30.109 11.588 30.109 10.964C30.109 10.34 29.5976 10.028 28.575 10.028C27.5523 10.028 27.041 10.34 27.041 10.964Z" fill="url(#paint0_linear_1970_3621)"/>
<defs>
<linearGradient id="paint0_linear_1970_3621" x1="-1" y1="15" x2="47" y2="15" gradientUnits="userSpaceOnUse">
<stop stop-color="#6DC4FF"/>
<stop offset="0.625" stop-color="#00DD8E"/>
</linearGradient>
</defs>
</svg>
