<svg width="70" height="70" viewBox="0 0 70 70" fill="none" xmlns="http://www.w3.org/2000/svg">
<g clip-path="url(#clip0_2894_3573)">
<path d="M35.0001 65.624C51.9138 65.624 65.6251 51.9127 65.6251 34.999C65.6251 18.0853 51.9138 4.37402 35.0001 4.37402C18.0863 4.37402 4.37506 18.0853 4.37506 34.999C4.37506 51.9127 18.0863 65.624 35.0001 65.624Z" fill="#FFC84D"/>
<path d="M43.8554 40.7039C50.5262 40.7039 55.9339 35.2961 55.9339 28.6254C55.9339 21.9546 50.5262 16.5469 43.8554 16.5469C37.1846 16.5469 31.7769 21.9546 31.7769 28.6254C31.7769 35.2961 37.1846 40.7039 43.8554 40.7039Z" fill="white"/>
<path d="M48.9828 19.9143C47.4796 19.027 45.7278 18.5195 43.8553 18.5195C38.2728 18.5195 33.7491 23.045 33.7491 28.6258C33.7491 31.8773 35.2856 34.77 37.6708 36.6198C39.3806 37.9445 41.5261 38.7338 43.8571 38.7338C49.4396 38.7338 53.9633 34.2083 53.9633 28.6275C53.9633 24.9175 51.9631 21.6713 48.9828 19.9143ZM40.1383 33.335C38.8678 33.335 37.7198 32.8135 36.8921 31.9753L40.8751 24.2805C43.0433 24.634 44.7023 26.503 44.7023 28.771C44.7023 31.291 42.6583 33.335 40.1383 33.335Z" fill="#E0E0E0"/>
<path d="M24.9347 23.2168C23.1217 23.2168 21.6517 24.6868 21.6517 26.4998C21.6517 28.3128 23.1217 29.7828 24.9347 29.7828C26.7477 29.7828 28.2177 28.3128 28.2177 26.4998C28.2177 24.6868 26.7477 23.2168 24.9347 23.2168Z" fill="black"/>
<path d="M36.892 31.9753L40.875 24.2805C40.6335 24.242 40.3903 24.207 40.1383 24.207C37.6183 24.207 35.5743 26.251 35.5743 28.771C35.5743 30.0205 36.0783 31.151 36.892 31.9753Z" fill="#6B6B6B"/>
<path d="M40.8744 24.2773L36.8914 31.9721C37.7191 32.8103 38.8671 33.3318 40.1376 33.3318C42.6594 33.3318 44.7016 31.2878 44.7016 28.7678C44.7016 26.4998 43.0426 24.6308 40.8744 24.2773Z" fill="black"/>
<path d="M40.1383 24.2043C40.3903 24.2043 40.6336 24.2393 40.8751 24.2778L43.8553 18.5186C38.2728 18.5186 33.7491 23.0441 33.7491 28.6248C33.7491 30.8001 34.4351 32.8143 35.6041 34.4628L36.8921 31.9743C36.0783 31.1501 35.5743 30.0196 35.5743 28.7701C35.5743 26.2501 37.6183 24.2061 40.1383 24.2061V24.2043Z" fill="#EDEDED"/>
<path d="M29.9993 44.8912C32.4686 45.1064 34.3043 45.7382 35.4646 46.2702C35.9633 46.4977 36.4551 45.9447 36.1733 45.4739C35.2651 43.9584 33.4608 41.8882 30.2863 41.6099C27.1118 41.3317 24.9751 43.0572 23.8166 44.3924C23.4578 44.8072 23.8463 45.4389 24.3766 45.3007C25.6121 44.9787 27.5283 44.6742 29.9993 44.8912Z" fill="#FF6D00"/>
<path d="M24.0521 18.827C26.0821 19.0037 27.2144 19.5725 28.1734 20.0992C28.7264 20.402 29.2076 19.9942 28.9714 19.3625C28.4639 17.9975 26.9414 16.4452 24.2814 16.2125C21.6214 15.9797 19.8521 17.2432 19.1154 18.4997C18.7741 19.0807 19.1766 19.5655 19.7734 19.3625C20.8094 19.0125 22.0221 18.6502 24.0521 18.827Z" fill="black"/>
<path d="M41.4711 13.577C39.4411 13.7537 38.3089 14.3225 37.3499 14.8492C36.7969 15.152 36.3156 14.7442 36.5519 14.1125C37.0594 12.7475 38.5819 11.1952 41.2419 10.9625C43.9019 10.7297 45.6711 11.9932 46.4079 13.2497C46.7491 13.8307 46.3466 14.3155 45.7499 14.1125C44.7139 13.7625 43.5011 13.4002 41.4711 13.577Z" fill="black"/>
</g>
<defs>
<clipPath id="clip0_2894_3573">
<rect width="70" height="70" fill="white"/>
</clipPath>
</defs>
</svg>
