<svg width="70" height="70" viewBox="0 0 70 70" fill="none" xmlns="http://www.w3.org/2000/svg">
<path d="M60.3208 32.477C60.3208 18.4928 48.9843 7.15625 35 7.15625C21.0158 7.15625 9.67926 18.4928 9.67926 32.477V60.099H60.3225L60.3208 32.477Z" fill="#E32939"/>
<path d="M51.331 32.8876C51.331 23.8681 44.0195 16.5566 35 16.5566C25.9805 16.5566 18.669 23.8681 18.669 32.8876V52.9601H51.3328L51.331 32.8876Z" fill="#EF4452"/>
<path d="M35 26.8984C36.876 26.8984 38.3985 28.4209 38.3985 30.2969V53.9482H31.6032V30.2969C31.6032 28.4209 33.124 26.8984 35 26.8984Z" fill="#F56570"/>
<path d="M62.8845 52.8789H7.1155C6.08521 52.8789 5.25 53.7141 5.25 54.7444V60.9779C5.25 62.0082 6.08521 62.8434 7.1155 62.8434H62.8845C63.9148 62.8434 64.75 62.0082 64.75 60.9779V54.7444C64.75 53.7141 63.9148 52.8789 62.8845 52.8789Z" fill="#333D4B"/>
</svg>
