<svg width="24" height="24" viewBox="0 0 24 24" fill="none" xmlns="http://www.w3.org/2000/svg">
<path fill-rule="evenodd" clip-rule="evenodd" d="M5.10652 3.97063C4.716 3.5801 4.08283 3.5801 3.69231 3.97063C3.30178 4.36115 3.30178 4.99432 3.69231 5.38484L10.4856 12.1781L3.69847 18.9653C3.30795 19.3558 3.30795 19.989 3.69847 20.3795C4.08899 20.77 4.72216 20.77 5.11268 20.3795L11.8998 13.5924L18.687 20.3795C19.0775 20.77 19.7107 20.77 20.1012 20.3795C20.4917 19.989 20.4917 19.3558 20.1012 18.9653L13.314 12.1781L20.1073 5.38484C20.4979 4.99432 20.4979 4.36115 20.1073 3.97063C19.7168 3.5801 19.0837 3.5801 18.6931 3.97063L11.8998 10.7639L5.10652 3.97063Z" fill="#D9D9D9"/>
</svg>
