<svg width="24" height="24" viewBox="0 0 24 24" fill="none" xmlns="http://www.w3.org/2000/svg">
<path d="M20.6502 14.8631C20.5433 14.7957 20.421 14.7563 20.2948 14.7488C20.1686 14.7413 20.0426 14.7657 19.9283 14.82C19.6426 14.9551 19.3272 15.0158 19.0117 14.9965C18.6962 14.9771 18.3907 14.8782 18.1236 14.7091C17.8565 14.5399 17.6365 14.306 17.4841 14.0291C17.3317 13.7521 17.2517 13.4411 17.2517 13.125C17.2517 12.8089 17.3317 12.4979 17.4841 12.2209C17.6365 11.9439 17.8565 11.71 18.1236 11.5409C18.3907 11.3718 18.6962 11.2729 19.0117 11.2535C19.3272 11.2341 19.6426 11.2948 19.9283 11.43C20.0427 11.4842 20.1689 11.5087 20.2952 11.501C20.4215 11.4934 20.5439 11.4539 20.6508 11.3863C20.7578 11.3186 20.8459 11.225 20.9069 11.1141C20.968 11.0032 21 10.8787 20.9999 10.7522V6.74999C20.9999 6.35216 20.8419 5.97063 20.5606 5.68933C20.2793 5.40802 19.8977 5.24999 19.4999 5.24999H16.1043C16.1182 5.12548 16.1251 5.00028 16.1249 4.87499C16.1242 4.41404 16.0294 3.95809 15.8463 3.53508C15.6631 3.11207 15.3956 2.73092 15.0599 2.41499C14.5952 1.9785 14.0163 1.68258 13.3903 1.56151C12.7643 1.44043 12.1168 1.49915 11.5228 1.73086C10.9289 1.96257 10.4127 2.35779 10.034 2.87076C9.65536 3.38373 9.42977 3.99347 9.38334 4.62936C9.36894 4.83621 9.37333 5.04393 9.39647 5.24999H5.99991C5.60208 5.24999 5.22055 5.40802 4.93925 5.68933C4.65794 5.97063 4.49991 6.35216 4.49991 6.74999V9.77061C4.3754 9.75666 4.2502 9.74977 4.12491 9.74999C3.66397 9.75073 3.20804 9.84557 2.78504 10.0287C2.36204 10.2118 1.98088 10.4794 1.66491 10.815C1.34667 11.1511 1.10163 11.5497 0.945264 11.9854C0.788899 12.421 0.724614 12.8844 0.75647 13.3462C0.810215 14.1594 1.15573 14.9258 1.72947 15.5046C2.30322 16.0833 3.06662 16.4354 3.87928 16.4962C4.08612 16.5111 4.29389 16.5067 4.49991 16.4831V19.5C4.49991 19.8978 4.65794 20.2793 4.93925 20.5606C5.22055 20.842 5.60208 21 5.99991 21H19.4999C19.8977 21 20.2793 20.842 20.5606 20.5606C20.8419 20.2793 20.9999 19.8978 20.9999 19.5V15.4978C21 15.3711 20.968 15.2464 20.9068 15.1354C20.8457 15.0244 20.7574 14.9307 20.6502 14.8631ZM19.4999 19.5H5.99991V15.4978C5.99995 15.3712 5.96796 15.2467 5.90693 15.1359C5.8459 15.025 5.7578 14.9314 5.65084 14.8637C5.54388 14.7961 5.42155 14.7566 5.29522 14.7489C5.16889 14.7413 5.04268 14.7657 4.92835 14.82C4.64256 14.9551 4.32725 15.0158 4.01171 14.9965C3.69617 14.9771 3.39066 14.8782 3.12358 14.7091C2.8565 14.5399 2.63652 14.306 2.48409 14.0291C2.33165 13.7521 2.25172 13.4411 2.25172 13.125C2.25172 12.8089 2.33165 12.4979 2.48409 12.2209C2.63652 11.9439 2.8565 11.71 3.12358 11.5409C3.39066 11.3718 3.69617 11.2729 4.01171 11.2535C4.32725 11.2341 4.64256 11.2948 4.92835 11.43C5.04268 11.4842 5.16889 11.5087 5.29522 11.501C5.42155 11.4934 5.54388 11.4539 5.65084 11.3863C5.7578 11.3186 5.8459 11.225 5.90693 11.1141C5.96796 11.0032 5.99995 10.8787 5.99991 10.7522V6.74999H10.3771C10.5037 6.75003 10.6282 6.71804 10.739 6.65701C10.8499 6.59597 10.9435 6.50788 11.0112 6.40092C11.0788 6.29396 11.1183 6.17162 11.126 6.0453C11.1336 5.91897 11.1092 5.79276 11.0549 5.67842C10.9198 5.39264 10.859 5.07732 10.8784 4.76179C10.8978 4.44625 10.9967 4.14074 11.1658 3.87366C11.335 3.60658 11.5689 3.3866 11.8458 3.23416C12.1228 3.08173 12.4338 3.0018 12.7499 3.0018C13.066 3.0018 13.377 3.08173 13.654 3.23416C13.9309 3.3866 14.1649 3.60658 14.334 3.87366C14.5031 4.14074 14.602 4.44625 14.6214 4.76179C14.6408 5.07732 14.5801 5.39264 14.4449 5.67842C14.3906 5.79276 14.3662 5.91897 14.3738 6.0453C14.3815 6.17162 14.421 6.29396 14.4886 6.40092C14.5563 6.50788 14.6499 6.59597 14.7608 6.65701C14.8717 6.71804 14.9962 6.75003 15.1227 6.74999H19.4999V9.77155C19.2939 9.74795 19.0861 9.74355 18.8793 9.75842C18.0064 9.82023 17.1916 10.2187 16.6069 10.8697C16.0221 11.5207 15.713 12.3734 15.7449 13.2479C15.7768 14.1224 16.1471 14.9503 16.7776 15.557C17.4082 16.1638 18.2498 16.5019 19.1249 16.5C19.2502 16.5002 19.3754 16.4933 19.4999 16.4794V19.5Z" fill="currentColor"/>
</svg>
